{"glyphs":{"a":{"x_min":0,"x_max":545,"ha":545,"o":"m 1 164 b 1 153 3 145 6 141 b 7 140 12 136 19 130 l 22 127 b 19 102 18 86 18 77 b 18 64 24 58 36 58 b 48 58 55 64 56 76 l 61 122 b 62 124 62 125 63 125 l 132 127 b 146 128 157 134 164 145 l 165 144 b 164 121 172 109 188 109 b 200 109 207 115 209 127 l 209 139 l 209 150 b 208 161 207 176 205 197 l 205 199 b 205 201 206 202 208 203 b 231 204 247 204 254 204 b 263 204 275 204 288 203 b 318 202 336 183 343 148 b 344 139 347 125 351 106 b 352 103 352 100 352 99 l 352 59 b 352 46 359 39 374 39 b 388 39 395 46 395 60 l 395 66 l 389 106 l 389 125 b 389 126 390 126 393 126 b 397 126 404 126 414 125 b 415 124 416 124 416 123 l 416 122 l 408 68 l 408 67 b 408 56 414 50 426 50 b 436 50 442 55 445 65 l 445 81 b 445 88 444 101 443 119 l 443 121 b 443 124 444 125 445 125 l 486 127 b 507 128 518 141 518 165 b 518 180 516 194 511 207 l 379 587 b 358 646 319 675 262 675 b 202 675 161 644 139 582 l 11 219 b 4 200 1 182 1 164 z m 268 479 b 268 480 269 481 272 481 b 285 481 294 470 300 448 b 304 434 306 424 306 419 l 306 416 b 305 418 305 420 304 421 b 299 433 296 442 293 449 b 290 456 286 462 279 468 b 272 475 268 478 268 479 z m 262 447 b 262 450 263 452 265 452 b 271 452 274 443 274 426 l 274 425 b 270 440 267 447 265 448 b 276 419 282 392 282 367 l 282 362 b 282 359 278 358 271 358 l 267 358 l 266 360 b 263 365 262 394 262 447 z m 248 441 b 248 442 249 443 252 445 b 253 444 254 442 254 439 b 250 439 248 440 248 441 z m 233 365 b 233 375 234 387 236 402 b 240 422 244 434 247 439 b 248 439 248 438 248 436 b 248 432 247 409 245 367 b 245 361 243 358 240 358 b 235 358 233 360 233 365 z m 310 231 l 315 231 b 340 231 356 219 365 194 b 372 174 376 162 376 157 b 376 156 376 155 375 153 b 370 142 368 134 368 127 l 368 121 b 369 118 369 115 369 113 l 369 111 l 369 108 b 367 113 366 121 366 130 b 366 135 367 146 370 163 l 370 164 b 370 178 360 195 340 214 b 335 218 326 223 311 230 z m 343 164 b 342 165 342 165 342 166 b 337 177 334 183 333 186 b 330 193 323 198 313 201 l 314 201 b 333 201 343 189 343 165 z m 27 156 b 27 161 29 164 32 164 b 39 164 43 159 43 149 b 43 140 42 131 41 124 l 41 140 b 41 143 39 146 34 149 b 29 153 27 155 27 156 z m 186 145 b 181 153 179 159 179 163 b 184 160 186 155 186 148 l 186 145 z m 423 152 b 420 152 419 153 419 156 b 422 156 424 155 425 153 b 425 152 424 152 423 152 z m 23 128 b 23 129 22 129 21 130 b 10 137 4 144 4 149 l 4 150 b 17 139 24 132 24 130 b 24 129 24 129 23 128 z m 185 130 b 185 131 185 133 186 135 b 187 134 187 133 187 132 b 187 131 186 130 185 129 z m 427 127 b 427 129 427 130 428 130 l 428 122 b 427 123 427 125 427 127 z m 180 112 b 172 112 168 116 168 124 l 168 125 b 173 122 177 117 181 112 z m 171 119 b 174 116 176 114 179 113 l 174 118 b 173 117 173 118 172 120 z m 30 61 b 23 61 20 65 20 72 b 25 72 28 70 29 65 b 26 67 24 69 22 70 l 22 69 b 22 65 25 62 31 61 z m 417 54 b 413 54 411 57 411 62 l 411 64 b 416 61 419 59 419 58 b 419 57 419 57 418 57 b 416 60 414 61 413 61 b 413 59 415 57 418 54 z m 368 41 b 359 41 355 46 355 55 l 355 56 b 364 48 368 43 368 41 z m 358 49 b 361 45 364 43 365 43 l 366 43 l 358 51 l 360 48 z"},"L":{"x_min":0,"x_max":369,"ha":369,"o":"m 7 620 b 3 586 1 549 1 510 l 1 396 l 1 317 l 4 228 b 6 162 39 126 102 121 l 103 120 l 103 112 l 103 101 b 102 94 101 84 100 70 l 100 66 b 100 57 104 52 113 52 b 123 52 128 58 128 69 l 128 76 b 127 82 127 91 126 103 b 125 104 125 108 125 113 b 125 116 125 118 126 119 l 127 120 l 176 120 l 178 118 l 178 71 b 178 62 183 57 194 57 b 205 57 210 64 210 77 l 210 83 b 210 88 209 97 208 109 l 208 115 l 208 119 l 209 120 b 209 121 222 121 247 121 l 259 121 l 270 121 b 271 120 272 119 272 118 l 272 60 b 272 47 280 40 295 40 b 307 40 314 52 315 77 b 316 96 322 120 335 149 b 338 156 339 167 340 184 l 340 211 b 340 233 339 250 338 262 b 335 280 317 290 284 291 l 283 291 b 248 292 231 292 230 292 b 198 293 182 316 181 361 l 177 606 b 176 638 168 659 152 668 b 147 671 138 673 124 674 b 114 675 103 675 90 675 b 79 675 67 675 54 674 b 29 673 14 655 7 620 z m 76 154 b 50 154 37 169 37 200 l 37 205 l 38 204 b 45 182 54 168 64 163 b 72 158 76 155 76 154 z m 62 129 b 29 129 13 147 13 183 l 13 184 b 22 159 38 140 63 129 z m 275 151 b 275 152 276 153 278 153 b 289 153 295 143 295 123 l 295 117 l 294 116 b 292 129 286 141 275 151 z m 188 146 b 183 146 181 148 181 151 b 186 151 189 150 189 148 b 189 147 189 146 188 146 z m 112 123 b 112 124 113 124 114 125 l 114 119 b 113 119 112 120 112 123 z m 190 122 b 190 123 190 124 191 125 b 192 125 193 124 193 121 b 193 119 192 118 191 117 b 190 119 190 121 190 122 z m 191 75 b 191 76 191 77 192 79 l 192 73 b 191 74 191 74 191 75 z m 186 61 b 183 61 181 64 181 69 l 181 70 l 182 69 b 183 66 184 63 187 61 z m 291 60 b 291 65 292 67 293 67 l 293 59 b 292 59 291 59 291 60 z m 286 43 b 279 43 275 47 275 56 l 275 57 l 290 42 b 283 48 279 51 278 51 b 281 46 284 44 287 43 z"},"3":{"x_min":0,"x_max":1219,"ha":1219,"o":"m 690 802 l 615 972 l 537 801 l 351 781 l 489 652 l 450 471 l 615 565 l 775 471 l 739 657 l 876 781 z m 663 562 l 642 576 l 631 634 l 592 634 l 583 576 l 564 562 l 541 576 l 586 834 l 639 834 l 682 576 z m 612 774 l 598 672 l 628 672 z m 616 39 b 618 43 619 46 619 49 b 623 45 621 43 624 39 l 631 21 l 610 21 z m 363 -5 l 363 3 l 352 3 l 352 -5 z m 883 -5 l 883 1 l 852 1 l 852 58 l 844 58 l 844 -5 z m 832 -5 l 832 1 l 795 1 l 795 22 l 829 22 l 829 30 l 795 30 l 795 49 l 832 49 l 832 58 l 787 58 l 787 -5 z m 573 -5 l 573 21 l 598 58 l 589 58 l 577 39 b 573 35 571 31 570 28 b 568 29 566 33 564 39 l 552 58 l 541 58 l 565 21 l 565 -5 z m 409 -5 b 412 -2 414 -4 415 0 b 418 0 420 2 421 6 b 421 7 423 9 423 13 b 423 15 422 18 420 22 b 417 25 414 27 411 28 b 414 28 416 30 417 34 b 419 35 420 37 420 40 b 420 44 419 47 417 49 b 416 52 413 54 409 55 b 408 55 404 58 400 58 l 376 58 l 376 -5 z m 213 -5 l 226 42 b 226 45 227 47 228 49 b 228 47 228 45 229 42 l 241 -5 l 249 -5 l 267 58 l 259 58 l 249 16 b 246 11 247 7 246 3 b 246 11 244 16 241 25 l 232 58 l 222 58 l 210 15 b 210 12 209 8 208 3 b 207 7 208 11 205 16 l 196 58 l 187 58 l 205 -5 z m 130 -5 l 144 42 b 144 45 145 47 147 49 b 147 47 147 45 148 42 l 160 -5 l 168 -5 l 186 58 l 177 58 l 168 16 b 165 11 167 7 163 3 b 163 11 163 16 160 25 l 150 58 l 141 58 l 129 15 b 129 12 128 8 127 3 b 124 7 123 11 123 16 l 115 58 l 105 58 l 123 -5 z m 384 49 l 396 49 b 401 49 404 49 405 48 b 406 48 405 46 408 46 l 409 46 b 410 45 411 43 411 40 b 411 37 410 35 409 34 b 409 33 408 33 405 33 b 404 31 401 30 397 30 l 384 30 z m 294 -5 l 307 42 b 307 45 308 47 310 49 b 310 47 311 45 312 42 l 324 -5 l 331 -5 l 349 58 l 342 58 l 331 16 b 330 11 331 7 327 3 b 327 11 325 16 324 25 l 313 58 l 304 58 l 292 15 b 292 12 291 11 291 3 b 287 7 289 11 286 16 l 277 58 l 268 58 l 285 -5 z m 664 49 l 684 49 b 690 49 693 49 694 48 b 696 46 697 43 697 40 b 697 37 697 35 696 34 b 696 29 686 28 682 28 l 664 28 z m 384 22 l 408 22 b 410 22 411 21 411 19 b 413 17 414 15 414 13 l 414 7 b 412 6 410 5 409 3 l 405 3 b 404 2 402 1 400 1 l 384 1 z m 442 -5 l 442 58 l 435 58 l 435 -5 z m 985 25 b 985 34 988 41 993 45 b 996 48 1000 49 1006 49 b 1011 49 1015 49 1018 48 b 1021 47 1024 44 1026 39 b 1027 36 1027 32 1027 27 b 1027 17 1025 10 1021 7 b 1018 3 1013 1 1006 1 b 990 1 985 10 985 25 z m 976 25 b 976 20 978 14 981 9 b 982 5 986 1 990 -3 b 995 -6 1001 -6 1006 -6 b 1012 -6 1017 -5 1021 -3 b 1033 6 1035 13 1035 27 b 1035 35 1034 40 1033 42 b 1029 47 1028 51 1021 54 b 1017 55 1013 58 1006 58 b 996 58 989 55 985 49 b 979 44 976 36 976 25 z m 600 -5 l 609 13 l 634 13 l 642 -5 l 651 -5 l 625 58 l 616 58 l 592 -5 z m 495 -5 l 495 1 l 466 1 l 466 58 l 459 58 l 459 -5 z m 903 -5 l 903 3 l 892 3 l 892 -5 z m 766 19 l 766 7 b 765 6 763 7 759 3 b 756 2 752 1 748 1 b 743 1 739 2 736 3 b 735 4 733 7 729 13 b 727 15 726 20 726 27 b 726 31 727 35 727 39 b 730 42 732 44 732 45 b 734 47 736 48 739 49 l 756 49 b 760 48 762 47 762 45 b 765 42 766 40 766 39 l 774 40 b 773 43 771 46 768 49 b 767 52 764 54 760 55 b 757 57 753 58 748 58 b 743 58 736 55 732 54 b 727 52 723 48 721 42 b 720 35 717 33 717 25 b 717 20 720 14 721 9 b 724 2 728 1 733 -3 b 737 -5 742 -6 748 -6 b 752 -6 758 -5 762 -5 b 766 -4 770 -1 774 3 l 774 27 l 748 27 l 748 19 z m 664 -5 l 664 22 l 678 22 b 679 22 678 21 681 21 l 682 21 b 685 18 687 20 687 16 b 688 15 689 11 693 7 l 702 -5 l 712 -5 l 700 10 b 696 14 697 17 694 21 b 693 21 692 22 688 22 b 695 26 699 27 702 28 b 705 31 706 35 706 40 b 706 44 705 47 703 49 b 702 52 700 54 697 55 b 693 55 689 58 684 58 l 657 58 l 657 -5 z m 544 -5 l 544 1 l 514 1 l 514 58 l 505 58 l 505 -5 z m 961 16 b 959 8 952 1 943 1 b 938 1 934 2 931 3 b 930 7 927 9 927 13 b 924 16 922 21 922 27 b 922 31 924 35 924 39 b 928 43 927 45 931 48 b 933 49 937 49 943 49 b 948 49 952 49 954 48 b 958 46 960 43 960 39 l 969 40 b 966 47 964 50 960 54 b 956 55 950 58 943 58 b 938 58 935 55 928 54 b 926 53 923 50 918 45 b 916 37 915 31 915 27 b 915 23 916 17 918 9 b 922 5 923 1 928 -3 b 932 -5 937 -6 943 -6 b 950 -6 956 -4 960 0 b 964 2 967 7 969 15 z m 1054 -5 l 1054 48 l 1072 -5 l 1080 -5 l 1098 46 l 1098 -5 l 1105 -5 l 1105 58 l 1093 58 l 1080 13 b 1078 7 1077 4 1077 3 b 1077 7 1074 9 1074 13 l 1059 58 l 1047 58 l 1047 -5 z m 616 39 b 618 43 619 46 619 49 b 623 45 621 43 624 39 l 631 21 l 610 21 z m 363 -5 l 363 3 l 352 3 l 352 -5 z m 883 -5 l 883 1 l 852 1 l 852 58 l 844 58 l 844 -5 z m 832 -5 l 832 1 l 795 1 l 795 22 l 829 22 l 829 30 l 795 30 l 795 49 l 832 49 l 832 58 l 787 58 l 787 -5 z m 573 -5 l 573 21 l 598 58 l 589 58 l 577 39 b 573 35 571 31 570 28 b 568 29 566 33 564 39 l 552 58 l 541 58 l 565 21 l 565 -5 z m 409 -5 b 412 -2 414 -4 415 0 b 418 0 420 2 421 6 b 421 7 423 9 423 13 b 423 15 422 18 420 22 b 417 25 414 27 411 28 b 414 28 416 30 417 34 b 419 35 420 37 420 40 b 420 44 419 47 417 49 b 416 52 413 54 409 55 b 408 55 404 58 400 58 l 376 58 l 376 -5 z m 213 -5 l 226 42 b 226 45 227 47 228 49 b 228 47 228 45 229 42 l 241 -5 l 249 -5 l 267 58 l 259 58 l 249 16 b 246 11 247 7 246 3 b 246 11 244 16 241 25 l 232 58 l 222 58 l 210 15 b 210 12 209 8 208 3 b 207 7 208 11 205 16 l 196 58 l 187 58 l 205 -5 z m 130 -5 l 144 42 b 144 45 145 47 147 49 b 147 47 147 45 148 42 l 160 -5 l 168 -5 l 186 58 l 177 58 l 168 16 b 165 11 167 7 163 3 b 163 11 163 16 160 25 l 150 58 l 141 58 l 129 15 b 129 12 128 8 127 3 b 124 7 123 11 123 16 l 115 58 l 105 58 l 123 -5 z m 384 49 l 396 49 b 401 49 404 49 405 48 b 406 48 405 46 408 46 l 409 46 b 410 45 411 43 411 40 b 411 37 410 35 409 34 b 409 33 408 33 405 33 b 404 31 401 30 397 30 l 384 30 z m 294 -5 l 307 42 b 307 45 308 47 310 49 b 310 47 311 45 312 42 l 324 -5 l 331 -5 l 349 58 l 342 58 l 331 16 b 330 11 331 7 327 3 b 327 11 325 16 324 25 l 313 58 l 304 58 l 292 15 b 292 12 291 11 291 3 b 287 7 289 11 286 16 l 277 58 l 268 58 l 285 -5 z m 664 49 l 684 49 b 690 49 693 49 694 48 b 696 46 697 43 697 40 b 697 37 697 35 696 34 b 696 29 686 28 682 28 l 664 28 z m 384 22 l 408 22 b 410 22 411 21 411 19 b 413 17 414 15 414 13 l 414 7 b 412 6 410 5 409 3 l 405 3 b 404 2 402 1 400 1 l 384 1 z m 442 -5 l 442 58 l 435 58 l 435 -5 z m 985 25 b 985 34 988 41 993 45 b 996 48 1000 49 1006 49 b 1011 49 1015 49 1018 48 b 1021 47 1024 44 1026 39 b 1027 36 1027 32 1027 27 b 1027 17 1025 10 1021 7 b 1018 3 1013 1 1006 1 b 990 1 985 10 985 25 z m 976 25 b 976 20 978 14 981 9 b 982 5 986 1 990 -3 b 995 -6 1001 -6 1006 -6 b 1012 -6 1017 -5 1021 -3 b 1033 6 1035 13 1035 27 b 1035 35 1034 40 1033 42 b 1029 47 1028 51 1021 54 b 1017 55 1013 58 1006 58 b 996 58 989 55 985 49 b 979 44 976 36 976 25 z m 600 -5 l 609 13 l 634 13 l 642 -5 l 651 -5 l 625 58 l 616 58 l 592 -5 z m 495 -5 l 495 1 l 466 1 l 466 58 l 459 58 l 459 -5 z m 903 -5 l 903 3 l 892 3 l 892 -5 z m 766 19 l 766 7 b 765 6 763 7 759 3 b 756 2 752 1 748 1 b 743 1 739 2 736 3 b 735 4 733 7 729 13 b 727 15 726 20 726 27 b 726 31 727 35 727 39 b 730 42 732 44 732 45 b 734 47 736 48 739 49 l 756 49 b 760 48 762 47 762 45 b 765 42 766 40 766 39 l 774 40 b 773 43 771 46 768 49 b 767 52 764 54 760 55 b 757 57 753 58 748 58 b 743 58 736 55 732 54 b 727 52 723 48 721 42 b 720 35 717 33 717 25 b 717 20 720 14 721 9 b 724 2 728 1 733 -3 b 737 -5 742 -6 748 -6 b 752 -6 758 -5 762 -5 b 766 -4 770 -1 774 3 l 774 27 l 748 27 l 748 19 z m 664 -5 l 664 22 l 678 22 b 679 22 678 21 681 21 l 682 21 b 685 18 687 20 687 16 b 688 15 689 11 693 7 l 702 -5 l 712 -5 l 700 10 b 696 14 697 17 694 21 b 693 21 692 22 688 22 b 695 26 699 27 702 28 b 705 31 706 35 706 40 b 706 44 705 47 703 49 b 702 52 700 54 697 55 b 693 55 689 58 684 58 l 657 58 l 657 -5 z m 544 -5 l 544 1 l 514 1 l 514 58 l 505 58 l 505 -5 z m 961 16 b 959 8 952 1 943 1 b 938 1 934 2 931 3 b 930 7 927 9 927 13 b 924 16 922 21 922 27 b 922 31 924 35 924 39 b 928 43 927 45 931 48 b 933 49 937 49 943 49 b 948 49 952 49 954 48 b 958 46 960 43 960 39 l 969 40 b 966 47 964 50 960 54 b 956 55 950 58 943 58 b 938 58 935 55 928 54 b 926 53 923 50 918 45 b 916 37 915 31 915 27 b 915 23 916 17 918 9 b 922 5 923 1 928 -3 b 932 -5 937 -6 943 -6 b 950 -6 956 -4 960 0 b 964 2 967 7 969 15 z m 1054 -5 l 1054 48 l 1072 -5 l 1080 -5 l 1098 46 l 1098 -5 l 1105 -5 l 1105 58 l 1093 58 l 1080 13 b 1078 7 1077 4 1077 3 b 1077 7 1074 9 1074 13 l 1059 58 l 1047 58 l 1047 -5 z m 616 39 b 618 43 619 46 619 49 b 623 45 621 43 624 39 l 631 21 l 610 21 z m 363 -5 l 363 3 l 352 3 l 352 -5 z m 883 -5 l 883 1 l 852 1 l 852 58 l 844 58 l 844 -5 z m 832 -5 l 832 1 l 795 1 l 795 22 l 829 22 l 829 30 l 795 30 l 795 49 l 832 49 l 832 58 l 787 58 l 787 -5 z m 573 -5 l 573 21 l 598 58 l 589 58 l 577 39 b 573 35 571 31 570 28 b 568 29 566 33 564 39 l 552 58 l 541 58 l 565 21 l 565 -5 z m 409 -5 b 412 -2 414 -4 415 0 b 418 0 420 2 421 6 b 421 7 423 9 423 13 b 423 15 422 18 420 22 b 417 25 414 27 411 28 b 414 28 416 30 417 34 b 419 35 420 37 420 40 b 420 44 419 47 417 49 b 416 52 413 54 409 55 b 408 55 404 58 400 58 l 376 58 l 376 -5 z m 213 -5 l 226 42 b 226 45 227 47 228 49 b 228 47 228 45 229 42 l 241 -5 l 249 -5 l 267 58 l 259 58 l 249 16 b 246 11 247 7 246 3 b 246 11 244 16 241 25 l 232 58 l 222 58 l 210 15 b 210 12 209 8 208 3 b 207 7 208 11 205 16 l 196 58 l 187 58 l 205 -5 z m 130 -5 l 144 42 b 144 45 145 47 147 49 b 147 47 147 45 148 42 l 160 -5 l 168 -5 l 186 58 l 177 58 l 168 16 b 165 11 167 7 163 3 b 163 11 163 16 160 25 l 150 58 l 141 58 l 129 15 b 129 12 128 8 127 3 b 124 7 123 11 123 16 l 115 58 l 105 58 l 123 -5 z m 384 49 l 396 49 b 401 49 404 49 405 48 b 406 48 405 46 408 46 l 409 46 b 410 45 411 43 411 40 b 411 37 410 35 409 34 b 409 33 408 33 405 33 b 404 31 401 30 397 30 l 384 30 z m 294 -5 l 307 42 b 307 45 308 47 310 49 b 310 47 311 45 312 42 l 324 -5 l 331 -5 l 349 58 l 342 58 l 331 16 b 330 11 331 7 327 3 b 327 11 325 16 324 25 l 313 58 l 304 58 l 292 15 b 292 12 291 11 291 3 b 287 7 289 11 286 16 l 277 58 l 268 58 l 285 -5 z m 664 49 l 684 49 b 690 49 693 49 694 48 b 696 46 697 43 697 40 b 697 37 697 35 696 34 b 696 29 686 28 682 28 l 664 28 z m 384 22 l 408 22 b 410 22 411 21 411 19 b 413 17 414 15 414 13 l 414 7 b 412 6 410 5 409 3 l 405 3 b 404 2 402 1 400 1 l 384 1 z m 442 -5 l 442 58 l 435 58 l 435 -5 z m 985 25 b 985 34 988 41 993 45 b 996 48 1000 49 1006 49 b 1011 49 1015 49 1018 48 b 1021 47 1024 44 1026 39 b 1027 36 1027 32 1027 27 b 1027 17 1025 10 1021 7 b 1018 3 1013 1 1006 1 b 990 1 985 10 985 25 z m 976 25 b 976 20 978 14 981 9 b 982 5 986 1 990 -3 b 995 -6 1001 -6 1006 -6 b 1012 -6 1017 -5 1021 -3 b 1033 6 1035 13 1035 27 b 1035 35 1034 40 1033 42 b 1029 47 1028 51 1021 54 b 1017 55 1013 58 1006 58 b 996 58 989 55 985 49 b 979 44 976 36 976 25 z m 600 -5 l 609 13 l 634 13 l 642 -5 l 651 -5 l 625 58 l 616 58 l 592 -5 z m 495 -5 l 495 1 l 466 1 l 466 58 l 459 58 l 459 -5 z m 903 -5 l 903 3 l 892 3 l 892 -5 z m 766 19 l 766 7 b 765 6 763 7 759 3 b 756 2 752 1 748 1 b 743 1 739 2 736 3 b 735 4 733 7 729 13 b 727 15 726 20 726 27 b 726 31 727 35 727 39 b 730 42 732 44 732 45 b 734 47 736 48 739 49 l 756 49 b 760 48 762 47 762 45 b 765 42 766 40 766 39 l 774 40 b 773 43 771 46 768 49 b 767 52 764 54 760 55 b 757 57 753 58 748 58 b 743 58 736 55 732 54 b 727 52 723 48 721 42 b 720 35 717 33 717 25 b 717 20 720 14 721 9 b 724 2 728 1 733 -3 b 737 -5 742 -6 748 -6 b 752 -6 758 -5 762 -5 b 766 -4 770 -1 774 3 l 774 27 l 748 27 l 748 19 z m 664 -5 l 664 22 l 678 22 b 679 22 678 21 681 21 l 682 21 b 685 18 687 20 687 16 b 688 15 689 11 693 7 l 702 -5 l 712 -5 l 700 10 b 696 14 697 17 694 21 b 693 21 692 22 688 22 b 695 26 699 27 702 28 b 705 31 706 35 706 40 b 706 44 705 47 703 49 b 702 52 700 54 697 55 b 693 55 689 58 684 58 l 657 58 l 657 -5 z m 544 -5 l 544 1 l 514 1 l 514 58 l 505 58 l 505 -5 z m 961 16 b 959 8 952 1 943 1 b 938 1 934 2 931 3 b 930 7 927 9 927 13 b 924 16 922 21 922 27 b 922 31 924 35 924 39 b 928 43 927 45 931 48 b 933 49 937 49 943 49 b 948 49 952 49 954 48 b 958 46 960 43 960 39 l 969 40 b 966 47 964 50 960 54 b 956 55 950 58 943 58 b 938 58 935 55 928 54 b 926 53 923 50 918 45 b 916 37 915 31 915 27 b 915 23 916 17 918 9 b 922 5 923 1 928 -3 b 932 -5 937 -6 943 -6 b 950 -6 956 -4 960 0 b 964 2 967 7 969 15 z m 1054 -5 l 1054 48 l 1072 -5 l 1080 -5 l 1098 46 l 1098 -5 l 1105 -5 l 1105 58 l 1093 58 l 1080 13 b 1078 7 1077 4 1077 3 b 1077 7 1074 9 1074 13 l 1059 58 l 1047 58 l 1047 -5 z m 175 111 b 173 97 161 85 147 85 b 141 85 135 87 130 91 b 126 93 123 98 121 105 b 118 109 117 115 117 124 b 117 133 117 140 118 144 b 120 149 124 153 130 157 b 134 161 140 163 148 163 b 154 163 159 161 163 157 b 166 156 170 152 174 144 l 186 145 b 183 156 178 163 171 165 b 167 170 159 172 148 172 b 139 172 131 170 124 166 b 117 163 112 158 109 151 b 105 144 103 135 103 124 b 103 114 105 106 109 99 b 110 93 115 87 123 81 b 131 77 139 75 148 75 b 157 75 166 78 174 84 b 181 90 185 97 187 106 z m 199 123 b 199 114 201 106 205 99 b 208 91 213 85 220 81 b 228 77 235 75 244 75 b 251 75 259 77 267 81 b 274 85 280 91 285 99 b 289 107 291 115 291 124 b 291 131 289 140 285 150 b 280 158 274 163 268 166 b 261 170 253 172 244 172 b 232 172 221 168 213 159 b 202 151 199 139 199 123 z m 213 123 b 213 138 216 148 222 153 b 229 160 236 163 244 163 b 252 163 258 161 261 157 b 267 155 271 151 273 144 b 274 137 277 132 277 124 b 277 113 274 104 267 97 b 262 89 254 85 244 85 b 235 85 227 88 220 94 b 215 101 213 111 213 123 z m 318 78 l 318 157 l 345 78 l 357 78 l 384 156 l 384 78 l 396 78 l 396 171 l 381 171 l 357 106 b 355 98 353 93 351 91 b 351 94 349 99 346 105 l 324 171 l 306 171 l 306 78 z m 429 78 l 429 117 l 453 117 b 467 117 476 119 481 124 b 486 131 489 138 489 144 b 489 149 487 153 486 157 b 482 162 479 165 478 166 b 475 169 471 171 466 171 l 417 171 l 417 78 z m 429 162 l 453 162 b 459 162 462 161 463 159 b 473 159 475 152 475 144 b 475 137 473 133 469 132 b 468 128 463 126 454 126 l 429 126 z m 564 78 l 564 87 l 517 87 l 517 171 l 505 171 l 505 78 z m 649 78 l 649 87 l 591 87 l 591 120 l 643 120 l 643 132 l 591 132 l 591 162 l 648 162 l 648 171 l 579 171 l 579 78 z m 703 78 l 703 162 l 735 162 l 735 171 l 658 171 l 658 162 l 690 162 l 690 78 z m 819 78 l 819 87 l 760 87 l 760 120 l 813 120 l 813 132 l 760 132 l 760 162 l 817 162 l 817 171 l 748 171 l 748 78 z m 870 106 b 870 100 871 95 873 91 b 881 79 895 75 909 75 b 917 75 923 78 928 79 b 932 81 936 84 940 88 b 942 91 943 96 943 103 b 943 109 942 114 940 117 b 936 121 935 123 928 126 b 924 127 918 129 907 132 b 895 137 889 139 889 139 b 886 141 885 144 885 147 b 885 151 886 154 889 157 b 891 160 897 162 907 162 b 914 162 919 160 922 157 b 925 156 928 152 930 144 l 942 145 b 942 151 940 156 936 159 b 933 164 929 165 924 169 b 920 171 914 172 907 172 b 897 172 891 172 889 171 b 884 167 880 166 877 162 b 873 158 871 153 871 147 b 871 143 872 139 876 136 b 878 131 881 128 885 126 b 889 123 895 124 904 120 b 914 118 920 117 921 117 b 925 113 927 112 930 111 b 931 109 931 106 931 103 b 931 97 930 88 922 88 b 918 87 913 87 909 87 b 902 87 897 87 895 88 b 890 90 887 93 885 97 b 883 99 882 103 882 108 z m 1032 78 l 1032 87 l 975 87 l 975 120 l 1027 120 l 1027 132 l 975 132 l 975 162 l 1029 162 l 1029 171 l 961 171 l 961 78 z m 1086 78 l 1086 162 l 1117 162 l 1117 171 l 1044 171 l 1044 162 l 1074 162 l 1074 78 z m 127 190 l 127 229 l 150 229 b 165 229 174 232 177 237 b 183 243 186 250 186 259 b 186 264 185 268 183 270 b 180 274 178 279 175 280 b 169 282 165 283 163 283 l 112 283 l 112 190 z m 127 274 l 150 274 b 157 274 161 274 162 273 b 164 273 166 271 169 268 b 172 264 174 260 174 256 b 174 252 172 248 168 244 b 165 242 159 241 150 241 l 127 241 z m 271 190 l 271 202 l 214 202 l 214 234 l 265 234 l 265 244 l 214 244 l 214 274 l 268 274 l 268 283 l 201 283 l 201 190 z m 303 190 l 303 234 l 316 234 b 320 234 323 233 324 231 b 326 231 328 230 330 229 b 331 229 332 226 336 223 b 337 219 342 215 343 210 l 357 190 l 372 190 l 355 216 b 353 220 350 224 345 229 b 342 232 341 230 337 234 b 357 238 364 246 364 259 b 364 261 363 266 361 274 b 359 277 356 280 351 282 b 347 283 340 283 331 283 l 288 283 l 288 190 z m 303 274 l 331 274 b 341 274 351 271 351 259 b 351 255 350 252 349 250 b 347 249 345 247 342 244 b 340 243 335 243 327 243 l 303 243 z m 381 222 b 381 214 381 209 384 204 b 388 197 392 196 397 192 b 405 190 413 189 420 189 b 425 189 431 190 439 192 b 443 196 446 197 450 204 b 453 208 454 212 454 217 b 454 223 453 228 450 231 b 447 235 443 237 439 241 b 433 241 426 243 417 247 b 407 249 401 251 400 253 b 397 254 396 257 396 261 b 396 265 397 268 400 270 b 403 274 409 276 417 276 b 424 276 429 274 433 270 b 436 268 439 263 441 256 l 453 259 b 453 262 451 267 447 273 b 442 283 427 286 417 286 b 408 286 402 285 400 283 b 393 281 389 278 388 274 b 384 270 384 265 384 261 b 384 256 384 252 385 249 b 394 240 402 235 415 234 b 423 230 429 232 430 229 b 434 227 438 225 441 223 b 442 222 442 220 442 216 b 442 213 441 211 441 208 b 440 206 436 204 430 202 b 429 201 424 201 420 201 b 416 201 411 202 405 204 b 401 204 397 207 396 210 b 393 214 391 218 391 222 z m 468 237 b 468 227 470 219 474 214 b 475 207 480 201 489 196 b 496 191 504 189 513 189 b 521 189 529 191 537 195 b 543 199 548 204 552 211 b 556 219 558 228 558 237 b 558 247 556 255 552 262 b 548 270 545 276 537 280 b 526 284 521 286 513 286 b 500 286 489 282 480 273 b 472 263 468 251 468 237 z m 480 237 b 480 251 483 261 489 267 b 498 272 502 276 513 276 b 520 276 526 274 531 270 b 534 268 537 264 540 259 b 544 254 544 245 544 237 b 544 226 542 217 537 210 b 531 204 523 201 513 201 b 493 201 480 213 480 237 z m 585 190 l 585 264 l 636 190 l 648 190 l 648 283 l 636 283 l 636 211 l 586 283 l 573 283 l 573 190 z m 670 190 l 682 220 l 721 220 l 732 190 l 747 190 l 708 283 l 694 283 l 658 190 z m 696 256 b 697 263 700 269 700 274 b 703 270 704 263 708 255 l 717 229 l 684 229 z m 814 190 l 814 202 l 768 202 l 768 283 l 754 283 l 754 190 z m 922 231 b 922 218 920 209 916 205 b 911 202 905 201 897 201 b 890 201 887 201 883 204 b 880 205 878 207 876 211 b 874 214 873 221 873 231 l 873 283 l 862 283 l 862 231 b 862 218 863 210 864 208 b 868 203 872 196 877 195 b 881 191 888 189 898 189 b 908 189 916 191 921 195 b 926 198 929 202 931 208 b 933 212 934 220 934 231 l 934 283 l 922 283 z m 951 222 b 951 214 953 209 957 204 b 961 197 966 196 970 192 b 977 189 982 189 993 189 b 998 189 1003 190 1009 192 b 1016 196 1017 197 1021 204 b 1024 207 1026 211 1026 217 b 1026 224 1024 229 1021 231 b 1020 235 1016 237 1009 241 b 1006 241 999 243 988 247 b 968 251 967 254 967 261 b 967 266 969 269 973 270 b 974 274 979 276 988 276 b 996 276 1002 274 1005 270 b 1009 267 1008 263 1012 256 l 1024 259 b 1024 263 1021 269 1020 273 b 1017 277 1012 280 1006 283 b 1002 287 995 286 988 286 b 980 286 974 285 970 283 b 964 281 961 278 960 274 b 957 269 955 265 955 261 b 955 256 957 252 960 249 b 961 245 964 242 969 240 b 970 236 979 235 987 234 b 995 230 1001 232 1005 229 b 1009 228 1008 226 1012 223 b 1013 222 1014 220 1014 216 b 1014 210 1011 205 1005 202 b 1002 201 997 201 990 201 b 987 201 982 202 976 204 b 972 204 970 207 967 210 b 966 214 963 218 963 222 z m 1113 190 l 1113 202 l 1057 202 l 1057 234 l 1107 234 l 1107 244 l 1057 244 l 1057 274 l 1111 274 l 1111 283 l 1044 283 l 1044 190 z m 307 388 b 307 364 271 346 250 345 b 245 342 236 343 232 343 b 223 344 216 346 210 348 b 219 353 226 361 234 372 l 258 397 l 267 408 b 275 408 281 406 285 406 b 300 404 307 398 307 388 z m 324 433 b 324 428 300 412 294 412 l 268 408 b 270 412 272 415 274 417 l 291 432 b 306 437 314 439 316 439 b 321 439 324 437 324 433 z m 342 460 b 339 462 335 463 330 463 l 324 463 b 311 467 302 469 289 469 b 274 469 260 464 246 454 b 233 443 226 432 226 421 b 226 415 229 410 235 406 b 235 407 235 408 234 409 b 231 412 229 416 229 420 b 229 448 275 464 298 466 b 303 466 310 465 319 462 b 299 456 274 435 243 400 l 225 379 b 226 382 226 386 226 391 l 226 393 b 222 386 223 380 219 376 b 215 372 211 368 207 363 b 207 362 203 359 195 354 b 180 363 172 374 172 387 b 172 394 175 400 181 406 b 183 410 185 412 187 412 l 190 417 b 176 407 168 395 166 382 b 166 368 172 357 183 349 b 175 345 170 343 162 343 b 158 343 155 345 148 346 b 141 348 136 352 132 358 b 128 365 126 370 126 379 b 126 389 130 401 139 415 b 149 427 159 436 169 441 b 170 443 176 446 186 450 b 193 454 199 456 205 456 b 210 456 215 454 220 451 b 216 455 209 457 198 457 b 187 456 177 453 166 444 b 149 433 137 420 130 405 b 126 394 124 389 124 381 b 124 367 129 356 139 349 b 145 343 154 340 165 340 b 173 340 180 342 187 346 l 187 345 b 182 341 176 339 168 339 l 163 339 b 167 338 172 336 178 334 l 181 334 b 186 334 192 336 198 340 b 205 337 216 335 224 335 b 230 335 238 337 247 339 b 271 341 321 363 321 391 b 321 401 312 407 294 409 b 317 414 331 421 336 430 l 336 436 b 336 445 328 445 321 445 b 317 445 314 444 310 444 b 306 441 301 440 297 436 b 310 449 321 457 331 459 b 335 459 335 457 339 457 b 342 457 343 458 343 460 z m 346 363 b 342 359 340 358 339 357 b 332 347 326 342 321 342 b 317 342 315 343 315 346 b 315 349 318 355 324 364 l 334 375 b 340 382 343 387 343 391 b 343 392 342 393 339 393 l 334 393 b 334 391 333 388 330 385 l 325 379 l 324 379 b 317 372 312 369 309 369 b 310 368 310 367 310 367 b 313 367 315 368 316 369 l 318 369 b 312 361 309 354 309 349 b 309 343 311 340 316 340 b 321 340 327 342 334 346 b 341 353 345 359 346 363 z m 354 405 b 354 407 354 409 354 411 l 346 414 l 346 411 b 344 404 340 400 333 400 l 328 400 b 332 397 336 396 339 396 b 345 396 350 399 354 405 z m 406 433 b 406 436 405 439 402 441 b 400 435 397 430 394 426 l 385 417 l 367 394 b 347 369 337 354 337 348 b 337 343 340 340 346 339 b 356 339 375 350 375 361 b 372 357 370 358 369 355 b 362 345 355 340 349 340 b 346 340 345 342 345 345 b 345 351 349 359 358 370 l 360 370 b 391 407 406 428 406 433 z m 432 433 b 432 436 430 439 427 441 b 426 437 423 432 418 426 l 409 417 l 391 394 b 371 369 361 354 361 348 b 361 343 364 340 370 339 b 381 339 398 350 400 361 l 394 355 b 385 345 379 340 375 340 b 371 340 369 342 369 345 b 369 350 374 358 384 370 b 416 408 432 429 432 433 z m 387 309 b 380 302 376 298 372 294 b 368 293 364 292 361 292 b 357 292 355 294 355 298 b 355 300 359 306 366 315 b 375 324 387 330 403 333 z m 447 430 b 444 425 440 419 436 411 l 418 394 b 397 375 387 360 387 348 b 387 343 389 340 394 340 b 398 340 404 340 412 348 l 403 334 l 399 334 b 396 334 394 333 393 333 b 382 332 368 325 351 313 l 361 315 l 360 313 b 356 309 355 304 352 303 b 350 300 350 298 350 295 b 350 292 351 290 355 289 b 358 285 363 283 369 283 b 376 285 382 289 388 295 l 406 318 b 413 327 420 332 424 336 l 426 337 b 418 333 412 330 409 328 l 423 346 l 435 366 b 440 374 442 379 442 381 b 442 384 441 386 439 388 l 439 397 b 433 375 423 358 408 346 b 404 344 401 343 400 343 b 397 343 396 345 396 348 b 396 353 399 360 405 369 b 404 366 403 364 403 362 b 403 361 403 361 403 360 b 403 362 404 364 406 366 b 413 375 419 382 426 390 b 426 391 427 390 427 393 b 438 404 445 416 447 430 z m 636 450 b 620 444 601 430 579 408 b 559 420 543 426 531 427 b 553 445 573 456 603 456 b 607 456 612 455 618 453 z m 627 420 b 616 408 608 398 604 393 l 589 402 l 600 412 b 612 424 619 431 622 433 b 633 444 641 444 649 447 z m 663 475 l 661 475 b 659 465 656 457 652 450 l 651 451 l 642 451 l 624 456 b 614 458 606 459 601 459 b 590 459 582 458 577 457 b 556 454 539 445 525 429 b 499 429 469 415 469 385 b 469 376 475 366 487 354 l 484 357 b 476 366 475 374 475 385 b 475 397 483 406 499 412 b 502 414 509 416 519 418 b 518 416 517 414 517 411 b 517 405 521 400 528 396 b 524 402 521 405 520 405 b 520 410 521 414 523 418 l 525 418 b 544 418 561 414 576 405 l 547 375 b 522 348 499 334 478 333 b 459 333 442 347 442 367 b 442 378 447 391 456 405 b 464 414 473 422 484 430 b 499 439 512 444 522 444 b 529 444 533 443 535 441 l 537 441 b 533 445 526 447 516 447 b 504 444 493 444 481 433 b 464 422 453 409 447 393 b 443 388 441 380 441 370 b 441 356 446 346 456 339 l 454 339 b 461 334 470 331 481 331 b 492 331 502 333 510 337 b 499 327 496 327 483 327 b 481 327 480 327 480 327 b 486 324 490 322 493 322 l 498 322 b 510 322 524 330 540 346 b 556 366 566 377 573 385 l 586 399 l 601 391 b 591 376 579 359 579 340 b 579 332 583 328 591 328 b 597 328 606 333 618 342 b 615 333 613 326 613 322 l 633 361 b 641 373 646 386 648 400 l 648 402 b 647 403 646 404 646 405 l 646 400 b 643 389 637 377 627 363 l 621 354 b 612 341 603 334 595 334 b 591 334 589 336 589 340 b 589 342 590 345 592 349 b 593 360 600 372 612 385 b 616 384 617 382 621 382 b 622 382 622 383 622 385 b 618 388 617 387 613 388 l 637 417 b 645 425 652 435 657 447 l 658 447 l 657 448 b 660 455 661 462 661 469 b 662 470 663 471 663 472 z m 682 375 b 682 381 678 385 670 388 b 675 395 678 399 678 400 l 676 402 b 675 402 675 401 675 400 b 668 394 664 391 664 390 b 664 387 666 388 666 387 b 663 382 657 375 648 367 b 639 357 632 352 628 352 l 631 351 l 637 354 b 646 358 657 368 669 385 b 672 383 674 381 674 378 b 674 378 673 377 673 376 b 673 374 670 369 663 360 b 654 351 649 344 649 340 b 649 338 652 337 657 337 b 657 338 657 339 658 339 b 659 339 660 339 661 340 l 658 340 b 665 351 670 358 681 367 b 682 369 682 372 682 375 z m 726 378 b 722 374 719 368 715 364 l 717 367 b 717 372 715 375 711 375 b 712 375 712 374 712 372 b 712 369 710 363 706 355 b 702 350 697 347 691 345 b 689 345 688 346 688 348 b 688 357 704 378 711 382 b 713 384 716 385 720 385 b 721 386 722 386 723 386 b 725 386 726 384 726 379 z m 759 393 b 757 396 754 397 751 397 b 747 397 743 395 738 390 l 730 381 l 729 381 b 729 389 725 393 718 393 b 705 393 682 364 682 352 b 682 344 686 340 694 340 b 696 340 699 341 702 342 l 685 318 b 675 303 666 295 657 295 b 656 295 655 296 655 297 b 654 298 654 299 654 300 b 654 303 654 305 655 307 b 659 319 671 328 690 334 l 688 336 b 684 336 685 334 682 334 b 670 331 659 325 649 315 b 652 315 655 315 657 316 b 653 312 651 308 651 303 b 651 303 651 300 651 295 b 654 290 659 289 664 289 b 682 289 708 333 715 348 b 726 364 733 376 741 385 b 746 390 750 393 754 393 z m 781 382 b 781 385 779 388 775 391 b 774 392 773 393 771 393 b 761 393 753 388 747 379 b 736 369 730 359 730 349 b 730 341 734 340 741 340 b 743 339 744 339 746 339 b 751 339 756 341 762 345 b 771 350 774 356 778 361 b 775 359 773 357 771 355 b 764 349 755 344 745 340 b 741 340 739 341 739 343 b 738 344 738 345 738 346 b 738 349 739 353 741 357 b 742 360 743 363 745 367 b 745 362 746 359 747 358 b 747 362 746 367 753 375 l 753 376 b 762 385 768 390 772 390 l 772 384 b 770 377 766 371 759 367 b 756 367 753 368 751 370 b 754 365 757 363 760 363 l 762 363 b 763 363 764 363 765 364 b 776 370 781 376 781 382 z m 841 433 b 841 436 840 439 837 441 b 837 437 834 432 828 426 l 819 417 l 801 394 b 782 371 772 356 772 348 b 772 344 775 341 780 339 b 791 339 810 349 810 361 b 807 357 805 358 804 355 b 797 345 790 340 784 340 b 781 340 780 342 780 345 b 780 351 784 359 793 370 b 825 408 841 429 841 433 z m 922 387 b 913 371 900 362 892 354 b 879 344 865 339 850 339 l 844 339 b 841 340 840 343 840 349 b 840 364 849 381 868 399 b 875 404 886 410 895 415 b 896 402 905 393 922 387 z m 936 405 l 925 391 b 908 394 899 403 897 417 b 914 425 928 429 940 430 l 952 430 z m 979 457 b 970 448 962 440 958 433 b 949 436 943 435 939 435 b 924 435 911 434 897 430 b 901 438 904 443 907 445 b 923 459 939 463 960 463 b 941 459 927 453 916 444 b 932 453 954 457 979 457 z m 1074 459 b 1070 458 1063 457 1054 457 b 1048 457 1040 459 1030 462 b 1021 466 1013 465 1005 468 b 1010 472 1016 474 1020 475 b 1020 475 1025 476 1036 478 b 1034 480 1025 482 1021 482 b 1013 482 1006 477 991 468 l 990 468 b 979 469 975 469 964 469 b 943 469 926 464 913 453 l 900 439 b 900 435 899 432 897 430 b 866 417 840 392 835 358 b 835 352 836 346 837 340 b 823 345 815 357 813 375 b 813 413 854 457 892 463 b 898 463 903 462 906 459 l 907 460 b 902 464 896 466 889 466 b 876 466 861 459 844 444 b 831 429 821 419 814 400 b 810 392 811 384 811 375 b 812 361 819 349 831 340 b 835 338 837 337 838 337 b 843 332 850 328 858 324 l 846 336 l 855 334 b 863 334 874 337 888 343 b 877 333 866 328 856 328 b 862 328 868 328 873 327 b 884 327 896 334 909 348 b 917 356 924 368 939 384 l 946 384 b 960 384 986 392 993 406 l 991 406 b 987 396 973 390 948 388 l 940 388 l 951 403 b 955 411 962 418 970 427 l 994 423 b 1000 421 1006 420 1011 420 b 1014 420 1018 420 1021 421 b 1032 423 1040 426 1044 430 b 1039 427 1029 426 1015 426 b 1003 426 989 429 973 430 l 994 456 b 1010 456 1023 452 1032 445 b 1028 441 1030 439 1027 438 b 1028 437 1029 436 1030 436 l 1033 436 b 1040 436 1048 439 1056 444 b 1065 448 1070 452 1074 459 z m 982 354 b 975 347 971 343 969 343 b 967 343 966 344 966 346 b 966 357 973 367 979 375 b 979 371 978 368 978 364 b 978 360 979 357 982 354 z m 1002 385 b 1000 378 997 373 994 370 b 994 371 993 374 991 378 b 992 377 993 376 993 375 b 993 373 992 369 990 363 b 987 360 988 361 987 358 l 987 360 l 987 358 l 982 354 b 981 355 981 357 981 360 b 981 365 989 383 993 387 b 995 388 997 388 999 388 b 1001 388 1002 387 1002 385 z m 1008 381 b 1008 389 1004 393 997 393 b 980 393 957 364 957 348 b 957 343 960 340 966 340 l 978 340 b 982 343 988 349 997 358 b 1004 368 1008 376 1008 381 z m 1057 384 b 1056 388 1054 391 1050 393 b 1043 393 1036 390 1030 385 b 1030 389 1027 392 1021 394 b 1021 393 1023 391 1023 388 b 1023 384 1020 379 1015 372 l 1006 361 b 999 354 995 347 993 340 b 992 339 992 337 992 336 b 992 334 993 331 993 327 b 997 335 999 339 1000 340 b 1001 343 1004 348 1009 354 b 1017 363 1025 370 1029 379 b 1037 385 1041 388 1041 388 b 1042 389 1044 389 1045 389 b 1047 389 1048 387 1048 384 b 1048 381 1047 382 1047 379 b 1043 371 1040 366 1038 364 b 1039 366 1039 367 1039 367 l 1039 372 b 1038 369 1037 367 1036 366 b 1032 358 1029 353 1021 345 b 1013 336 1009 325 1008 313 b 1010 321 1014 329 1021 336 l 1039 352 b 1041 354 1045 359 1051 367 b 1054 372 1057 378 1057 384 z m 1123 405 l 1108 405 l 1096 406 l 1102 415 b 1104 417 1105 420 1105 423 b 1105 427 1104 429 1102 430 b 1098 425 1094 417 1087 408 l 1083 409 b 1055 413 1039 417 1038 417 b 1017 417 1001 412 991 402 l 993 402 b 1005 407 1017 409 1029 409 l 1042 409 b 1048 409 1053 409 1057 408 l 1083 405 l 1048 363 b 1044 355 1042 350 1042 348 b 1043 344 1046 341 1051 339 b 1062 339 1080 349 1080 361 b 1077 360 1078 358 1077 357 l 1075 355 b 1066 345 1059 340 1054 340 b 1052 340 1051 342 1051 345 b 1051 350 1053 355 1057 360 b 1059 365 1061 367 1063 367 b 1079 390 1092 401 1093 405 z m 1126 385 b 1126 387 1126 389 1125 390 b 1125 391 1123 392 1119 394 b 1115 394 1114 396 1110 396 b 1101 396 1096 391 1096 381 b 1096 377 1097 373 1098 370 b 1099 367 1099 363 1099 358 b 1099 347 1095 342 1087 342 b 1079 342 1075 346 1075 354 b 1075 356 1077 359 1080 364 b 1082 366 1085 367 1089 367 l 1092 367 l 1086 369 b 1074 367 1068 362 1068 354 b 1068 352 1068 350 1069 349 b 1071 343 1077 340 1086 340 b 1101 340 1110 345 1110 361 b 1107 376 1105 385 1105 387 b 1106 391 1109 393 1114 393 l 1119 393 l 1119 387 b 1119 382 1117 378 1114 375 l 1116 376 b 1123 379 1126 382 1126 385 z"},"J":{"x_min":0,"x_max":404,"ha":404,"o":"m 173 288 b 168 288 160 296 149 311 b 148 314 145 315 141 315 b 136 315 130 313 122 310 l 27 269 b 10 261 1 252 1 243 b 1 237 5 227 12 214 b 15 209 19 202 24 193 b 32 179 36 166 36 153 l 36 145 b 33 128 31 111 29 94 b 28 89 28 83 28 77 b 28 58 38 48 58 48 b 71 48 79 55 82 68 l 82 75 b 82 86 80 105 77 133 l 77 135 b 77 137 78 138 79 138 l 80 138 b 92 131 109 123 131 116 b 133 115 134 113 134 111 b 134 106 133 100 131 91 b 129 82 126 70 121 53 b 120 50 120 48 120 47 b 120 35 127 29 142 29 b 155 29 161 35 161 47 b 161 50 160 53 159 57 b 157 64 153 75 148 89 b 146 96 145 103 145 108 b 145 111 146 112 147 112 l 148 112 b 162 111 175 110 186 110 b 227 110 262 119 291 137 l 292 137 b 293 137 294 136 294 135 b 297 115 298 98 297 83 b 300 70 306 64 317 64 b 331 64 338 71 338 85 b 338 90 337 98 335 107 b 333 140 332 160 332 169 b 332 174 332 178 333 179 b 358 217 370 262 370 313 l 370 557 b 370 570 369 588 368 612 b 367 641 360 660 347 667 b 341 671 331 673 316 674 b 306 675 295 675 282 675 b 269 675 257 675 247 674 b 214 672 197 652 196 614 l 193 316 b 193 297 186 288 173 288 z m 36 168 b 33 177 26 190 16 209 b 8 223 4 233 3 238 b 4 238 5 237 6 235 l 27 196 b 28 195 28 195 28 194 b 33 181 36 173 36 170 l 36 168 z m 61 169 b 61 176 58 186 52 197 b 45 206 41 214 38 219 b 34 226 32 230 32 231 l 32 234 b 40 234 49 223 58 201 b 62 191 66 181 70 170 b 70 169 70 169 69 168 b 62 157 59 150 58 148 l 58 150 l 58 152 b 59 158 60 162 61 165 l 61 169 z m 84 168 b 84 169 84 169 85 169 l 89 169 b 92 169 95 169 96 168 b 105 163 113 159 122 155 b 139 147 147 143 146 143 b 146 142 145 141 144 141 b 137 141 125 145 109 152 b 92 159 84 165 84 168 z m 308 152 b 311 149 312 144 312 135 l 312 133 l 308 148 z m 132 116 b 123 119 114 123 105 126 b 90 133 82 137 80 140 l 84 140 b 91 136 99 132 106 128 b 121 121 133 117 140 117 b 140 114 139 113 137 113 b 135 113 133 114 132 116 z m 314 84 b 314 87 315 88 317 88 b 317 85 316 83 315 82 b 314 83 314 83 314 84 z m 309 68 b 303 68 300 72 300 79 l 300 80 l 309 72 b 307 73 305 74 302 76 b 304 71 307 69 310 68 z m 52 75 b 52 77 52 78 53 79 b 54 78 55 76 55 72 b 53 72 52 73 52 75 z m 48 52 b 37 52 31 58 31 69 l 31 71 b 38 65 44 59 50 52 l 48 52 z m 46 54 b 45 55 43 57 41 58 b 40 59 38 60 37 62 l 36 63 b 39 57 42 54 45 54 z m 134 31 b 127 31 123 35 123 43 l 123 44 b 128 41 131 37 133 34 b 129 38 126 40 125 40 b 125 37 128 34 135 32 z"},"V":{"x_min":0,"x_max":518,"ha":518,"o":"m 1 632 b 1 619 2 608 5 599 l 42 469 l 42 466 l 42 461 b 41 460 41 459 41 457 b 40 450 40 444 40 438 b 40 430 41 423 43 417 b 45 411 48 402 52 389 b 54 383 55 376 55 369 b 55 362 54 352 51 341 b 50 334 47 324 43 311 b 42 302 41 295 41 290 b 41 267 55 256 84 256 b 89 256 96 258 106 262 l 107 262 b 108 262 108 261 109 260 b 117 239 125 219 133 198 b 144 171 164 149 193 132 l 193 127 b 193 122 192 116 190 107 b 187 94 184 80 181 67 l 181 61 b 181 47 188 40 202 40 b 217 40 224 47 224 62 l 224 67 l 216 112 l 216 128 l 217 129 b 242 128 266 129 289 131 b 290 131 298 134 313 140 l 314 140 b 315 140 316 140 316 139 b 317 126 319 114 322 104 b 327 87 338 79 355 79 b 370 79 379 87 382 103 b 381 120 381 138 382 155 b 382 161 383 170 384 181 l 384 197 b 384 211 381 228 376 249 l 376 254 l 412 360 b 412 361 413 362 414 363 l 415 360 l 415 326 b 415 317 421 312 433 312 b 449 312 457 320 457 336 b 457 372 452 407 442 441 b 441 444 441 446 441 447 l 441 449 l 477 569 b 485 594 489 616 489 633 b 489 659 474 673 444 674 l 415 674 b 386 674 365 673 354 670 b 331 665 316 648 308 619 l 250 397 b 249 392 248 390 247 390 b 244 390 240 397 237 411 l 186 609 b 177 641 164 661 146 668 b 137 671 124 673 106 674 l 78 674 l 46 674 b 16 673 1 659 1 632 z m 37 609 b 37 610 37 610 38 611 b 39 610 39 609 40 608 l 74 487 l 74 480 b 71 480 68 488 64 504 l 38 601 l 38 602 b 37 605 37 608 37 609 z m 14 573 l 43 472 l 43 469 l 14 570 z m 73 425 b 73 429 74 431 76 431 b 78 431 81 425 84 412 b 86 405 87 401 87 399 b 87 396 87 395 86 395 b 77 402 73 412 73 425 z m 55 386 b 48 405 44 416 44 418 l 44 419 b 51 407 55 396 55 387 z m 434 361 b 431 361 429 367 429 379 b 433 379 435 373 435 361 z m 432 329 b 432 334 433 337 435 338 l 435 335 b 435 332 434 330 432 329 z m 428 314 b 421 314 418 318 418 325 l 418 326 b 425 323 428 319 428 314 z m 427 316 b 427 320 424 323 419 324 b 421 319 424 316 427 316 z m 70 290 b 70 291 72 294 76 298 l 78 298 b 81 298 83 296 83 293 b 83 289 81 287 76 287 b 72 287 70 288 70 290 z m 114 296 b 114 297 114 298 115 298 l 118 298 b 129 298 137 291 143 278 b 148 262 154 246 160 231 b 173 201 186 181 200 170 l 208 165 b 208 164 208 163 207 163 l 204 163 b 187 163 174 176 163 203 l 139 267 b 138 271 129 280 114 295 z m 72 260 b 53 260 43 268 43 285 l 44 285 b 55 272 64 264 73 260 z m 108 264 b 108 265 109 265 110 265 b 111 265 111 264 112 262 b 121 235 132 210 143 187 b 156 162 172 145 191 137 b 195 135 197 134 197 133 b 197 132 197 132 196 132 b 181 132 168 142 155 161 b 146 174 139 186 134 199 b 126 218 118 238 111 258 z m 322 173 b 322 174 323 175 325 175 b 339 175 346 165 346 144 l 346 141 l 345 140 b 337 155 329 165 322 172 z m 203 133 b 203 135 204 136 205 136 b 205 133 205 130 204 129 b 203 130 203 132 203 133 z m 351 106 b 348 106 346 108 346 112 l 346 127 l 347 126 b 350 123 351 117 351 106 z m 346 81 b 331 81 323 90 323 108 l 323 109 b 326 103 332 96 339 89 b 344 85 346 82 346 81 z m 193 44 b 186 44 183 48 183 56 b 189 56 193 53 194 46 l 188 52 l 188 51 l 185 54 b 186 49 190 45 195 44 l 193 44 z"},"7":{"x_min":0,"x_max":1219,"ha":1219,"o":"m 690 802 l 615 972 l 537 801 l 351 781 l 489 652 l 450 471 l 615 565 l 775 471 l 739 657 l 876 781 z m 663 562 l 642 576 l 631 634 l 592 634 l 583 576 l 564 562 l 541 576 l 586 834 l 639 834 l 682 576 z m 612 774 l 598 672 l 628 672 z m 616 39 b 618 43 619 46 619 49 b 623 45 621 43 624 39 l 631 21 l 610 21 z m 363 -5 l 363 3 l 352 3 l 352 -5 z m 883 -5 l 883 1 l 852 1 l 852 58 l 844 58 l 844 -5 z m 832 -5 l 832 1 l 795 1 l 795 22 l 829 22 l 829 30 l 795 30 l 795 49 l 832 49 l 832 58 l 787 58 l 787 -5 z m 573 -5 l 573 21 l 598 58 l 589 58 l 577 39 b 573 35 571 31 570 28 b 568 29 566 33 564 39 l 552 58 l 541 58 l 565 21 l 565 -5 z m 409 -5 b 412 -2 414 -4 415 0 b 418 0 420 2 421 6 b 421 7 423 9 423 13 b 423 15 422 18 420 22 b 417 25 414 27 411 28 b 414 28 416 30 417 34 b 419 35 420 37 420 40 b 420 44 419 47 417 49 b 416 52 413 54 409 55 b 408 55 404 58 400 58 l 376 58 l 376 -5 z m 213 -5 l 226 42 b 226 45 227 47 228 49 b 228 47 228 45 229 42 l 241 -5 l 249 -5 l 267 58 l 259 58 l 249 16 b 246 11 247 7 246 3 b 246 11 244 16 241 25 l 232 58 l 222 58 l 210 15 b 210 12 209 8 208 3 b 207 7 208 11 205 16 l 196 58 l 187 58 l 205 -5 z m 130 -5 l 144 42 b 144 45 145 47 147 49 b 147 47 147 45 148 42 l 160 -5 l 168 -5 l 186 58 l 177 58 l 168 16 b 165 11 167 7 163 3 b 163 11 163 16 160 25 l 150 58 l 141 58 l 129 15 b 129 12 128 8 127 3 b 124 7 123 11 123 16 l 115 58 l 105 58 l 123 -5 z m 384 49 l 396 49 b 401 49 404 49 405 48 b 406 48 405 46 408 46 l 409 46 b 410 45 411 43 411 40 b 411 37 410 35 409 34 b 409 33 408 33 405 33 b 404 31 401 30 397 30 l 384 30 z m 294 -5 l 307 42 b 307 45 308 47 310 49 b 310 47 311 45 312 42 l 324 -5 l 331 -5 l 349 58 l 342 58 l 331 16 b 330 11 331 7 327 3 b 327 11 325 16 324 25 l 313 58 l 304 58 l 292 15 b 292 12 291 11 291 3 b 287 7 289 11 286 16 l 277 58 l 268 58 l 285 -5 z m 664 49 l 684 49 b 690 49 693 49 694 48 b 696 46 697 43 697 40 b 697 37 697 35 696 34 b 696 29 686 28 682 28 l 664 28 z m 384 22 l 408 22 b 410 22 411 21 411 19 b 413 17 414 15 414 13 l 414 7 b 412 6 410 5 409 3 l 405 3 b 404 2 402 1 400 1 l 384 1 z m 442 -5 l 442 58 l 435 58 l 435 -5 z m 985 25 b 985 34 988 41 993 45 b 996 48 1000 49 1006 49 b 1011 49 1015 49 1018 48 b 1021 47 1024 44 1026 39 b 1027 36 1027 32 1027 27 b 1027 17 1025 10 1021 7 b 1018 3 1013 1 1006 1 b 990 1 985 10 985 25 z m 976 25 b 976 20 978 14 981 9 b 982 5 986 1 990 -3 b 995 -6 1001 -6 1006 -6 b 1012 -6 1017 -5 1021 -3 b 1033 6 1035 13 1035 27 b 1035 35 1034 40 1033 42 b 1029 47 1028 51 1021 54 b 1017 55 1013 58 1006 58 b 996 58 989 55 985 49 b 979 44 976 36 976 25 z m 600 -5 l 609 13 l 634 13 l 642 -5 l 651 -5 l 625 58 l 616 58 l 592 -5 z m 495 -5 l 495 1 l 466 1 l 466 58 l 459 58 l 459 -5 z m 903 -5 l 903 3 l 892 3 l 892 -5 z m 766 19 l 766 7 b 765 6 763 7 759 3 b 756 2 752 1 748 1 b 743 1 739 2 736 3 b 735 4 733 7 729 13 b 727 15 726 20 726 27 b 726 31 727 35 727 39 b 730 42 732 44 732 45 b 734 47 736 48 739 49 l 756 49 b 760 48 762 47 762 45 b 765 42 766 40 766 39 l 774 40 b 773 43 771 46 768 49 b 767 52 764 54 760 55 b 757 57 753 58 748 58 b 743 58 736 55 732 54 b 727 52 723 48 721 42 b 720 35 717 33 717 25 b 717 20 720 14 721 9 b 724 2 728 1 733 -3 b 737 -5 742 -6 748 -6 b 752 -6 758 -5 762 -5 b 766 -4 770 -1 774 3 l 774 27 l 748 27 l 748 19 z m 664 -5 l 664 22 l 678 22 b 679 22 678 21 681 21 l 682 21 b 685 18 687 20 687 16 b 688 15 689 11 693 7 l 702 -5 l 712 -5 l 700 10 b 696 14 697 17 694 21 b 693 21 692 22 688 22 b 695 26 699 27 702 28 b 705 31 706 35 706 40 b 706 44 705 47 703 49 b 702 52 700 54 697 55 b 693 55 689 58 684 58 l 657 58 l 657 -5 z m 544 -5 l 544 1 l 514 1 l 514 58 l 505 58 l 505 -5 z m 961 16 b 959 8 952 1 943 1 b 938 1 934 2 931 3 b 930 7 927 9 927 13 b 924 16 922 21 922 27 b 922 31 924 35 924 39 b 928 43 927 45 931 48 b 933 49 937 49 943 49 b 948 49 952 49 954 48 b 958 46 960 43 960 39 l 969 40 b 966 47 964 50 960 54 b 956 55 950 58 943 58 b 938 58 935 55 928 54 b 926 53 923 50 918 45 b 916 37 915 31 915 27 b 915 23 916 17 918 9 b 922 5 923 1 928 -3 b 932 -5 937 -6 943 -6 b 950 -6 956 -4 960 0 b 964 2 967 7 969 15 z m 1054 -5 l 1054 48 l 1072 -5 l 1080 -5 l 1098 46 l 1098 -5 l 1105 -5 l 1105 58 l 1093 58 l 1080 13 b 1078 7 1077 4 1077 3 b 1077 7 1074 9 1074 13 l 1059 58 l 1047 58 l 1047 -5 z m 616 39 b 618 43 619 46 619 49 b 623 45 621 43 624 39 l 631 21 l 610 21 z m 363 -5 l 363 3 l 352 3 l 352 -5 z m 883 -5 l 883 1 l 852 1 l 852 58 l 844 58 l 844 -5 z m 832 -5 l 832 1 l 795 1 l 795 22 l 829 22 l 829 30 l 795 30 l 795 49 l 832 49 l 832 58 l 787 58 l 787 -5 z m 573 -5 l 573 21 l 598 58 l 589 58 l 577 39 b 573 35 571 31 570 28 b 568 29 566 33 564 39 l 552 58 l 541 58 l 565 21 l 565 -5 z m 409 -5 b 412 -2 414 -4 415 0 b 418 0 420 2 421 6 b 421 7 423 9 423 13 b 423 15 422 18 420 22 b 417 25 414 27 411 28 b 414 28 416 30 417 34 b 419 35 420 37 420 40 b 420 44 419 47 417 49 b 416 52 413 54 409 55 b 408 55 404 58 400 58 l 376 58 l 376 -5 z m 213 -5 l 226 42 b 226 45 227 47 228 49 b 228 47 228 45 229 42 l 241 -5 l 249 -5 l 267 58 l 259 58 l 249 16 b 246 11 247 7 246 3 b 246 11 244 16 241 25 l 232 58 l 222 58 l 210 15 b 210 12 209 8 208 3 b 207 7 208 11 205 16 l 196 58 l 187 58 l 205 -5 z m 130 -5 l 144 42 b 144 45 145 47 147 49 b 147 47 147 45 148 42 l 160 -5 l 168 -5 l 186 58 l 177 58 l 168 16 b 165 11 167 7 163 3 b 163 11 163 16 160 25 l 150 58 l 141 58 l 129 15 b 129 12 128 8 127 3 b 124 7 123 11 123 16 l 115 58 l 105 58 l 123 -5 z m 384 49 l 396 49 b 401 49 404 49 405 48 b 406 48 405 46 408 46 l 409 46 b 410 45 411 43 411 40 b 411 37 410 35 409 34 b 409 33 408 33 405 33 b 404 31 401 30 397 30 l 384 30 z m 294 -5 l 307 42 b 307 45 308 47 310 49 b 310 47 311 45 312 42 l 324 -5 l 331 -5 l 349 58 l 342 58 l 331 16 b 330 11 331 7 327 3 b 327 11 325 16 324 25 l 313 58 l 304 58 l 292 15 b 292 12 291 11 291 3 b 287 7 289 11 286 16 l 277 58 l 268 58 l 285 -5 z m 664 49 l 684 49 b 690 49 693 49 694 48 b 696 46 697 43 697 40 b 697 37 697 35 696 34 b 696 29 686 28 682 28 l 664 28 z m 384 22 l 408 22 b 410 22 411 21 411 19 b 413 17 414 15 414 13 l 414 7 b 412 6 410 5 409 3 l 405 3 b 404 2 402 1 400 1 l 384 1 z m 442 -5 l 442 58 l 435 58 l 435 -5 z m 985 25 b 985 34 988 41 993 45 b 996 48 1000 49 1006 49 b 1011 49 1015 49 1018 48 b 1021 47 1024 44 1026 39 b 1027 36 1027 32 1027 27 b 1027 17 1025 10 1021 7 b 1018 3 1013 1 1006 1 b 990 1 985 10 985 25 z m 976 25 b 976 20 978 14 981 9 b 982 5 986 1 990 -3 b 995 -6 1001 -6 1006 -6 b 1012 -6 1017 -5 1021 -3 b 1033 6 1035 13 1035 27 b 1035 35 1034 40 1033 42 b 1029 47 1028 51 1021 54 b 1017 55 1013 58 1006 58 b 996 58 989 55 985 49 b 979 44 976 36 976 25 z m 600 -5 l 609 13 l 634 13 l 642 -5 l 651 -5 l 625 58 l 616 58 l 592 -5 z m 495 -5 l 495 1 l 466 1 l 466 58 l 459 58 l 459 -5 z m 903 -5 l 903 3 l 892 3 l 892 -5 z m 766 19 l 766 7 b 765 6 763 7 759 3 b 756 2 752 1 748 1 b 743 1 739 2 736 3 b 735 4 733 7 729 13 b 727 15 726 20 726 27 b 726 31 727 35 727 39 b 730 42 732 44 732 45 b 734 47 736 48 739 49 l 756 49 b 760 48 762 47 762 45 b 765 42 766 40 766 39 l 774 40 b 773 43 771 46 768 49 b 767 52 764 54 760 55 b 757 57 753 58 748 58 b 743 58 736 55 732 54 b 727 52 723 48 721 42 b 720 35 717 33 717 25 b 717 20 720 14 721 9 b 724 2 728 1 733 -3 b 737 -5 742 -6 748 -6 b 752 -6 758 -5 762 -5 b 766 -4 770 -1 774 3 l 774 27 l 748 27 l 748 19 z m 664 -5 l 664 22 l 678 22 b 679 22 678 21 681 21 l 682 21 b 685 18 687 20 687 16 b 688 15 689 11 693 7 l 702 -5 l 712 -5 l 700 10 b 696 14 697 17 694 21 b 693 21 692 22 688 22 b 695 26 699 27 702 28 b 705 31 706 35 706 40 b 706 44 705 47 703 49 b 702 52 700 54 697 55 b 693 55 689 58 684 58 l 657 58 l 657 -5 z m 544 -5 l 544 1 l 514 1 l 514 58 l 505 58 l 505 -5 z m 961 16 b 959 8 952 1 943 1 b 938 1 934 2 931 3 b 930 7 927 9 927 13 b 924 16 922 21 922 27 b 922 31 924 35 924 39 b 928 43 927 45 931 48 b 933 49 937 49 943 49 b 948 49 952 49 954 48 b 958 46 960 43 960 39 l 969 40 b 966 47 964 50 960 54 b 956 55 950 58 943 58 b 938 58 935 55 928 54 b 926 53 923 50 918 45 b 916 37 915 31 915 27 b 915 23 916 17 918 9 b 922 5 923 1 928 -3 b 932 -5 937 -6 943 -6 b 950 -6 956 -4 960 0 b 964 2 967 7 969 15 z m 1054 -5 l 1054 48 l 1072 -5 l 1080 -5 l 1098 46 l 1098 -5 l 1105 -5 l 1105 58 l 1093 58 l 1080 13 b 1078 7 1077 4 1077 3 b 1077 7 1074 9 1074 13 l 1059 58 l 1047 58 l 1047 -5 z m 616 39 b 618 43 619 46 619 49 b 623 45 621 43 624 39 l 631 21 l 610 21 z m 363 -5 l 363 3 l 352 3 l 352 -5 z m 883 -5 l 883 1 l 852 1 l 852 58 l 844 58 l 844 -5 z m 832 -5 l 832 1 l 795 1 l 795 22 l 829 22 l 829 30 l 795 30 l 795 49 l 832 49 l 832 58 l 787 58 l 787 -5 z m 573 -5 l 573 21 l 598 58 l 589 58 l 577 39 b 573 35 571 31 570 28 b 568 29 566 33 564 39 l 552 58 l 541 58 l 565 21 l 565 -5 z m 409 -5 b 412 -2 414 -4 415 0 b 418 0 420 2 421 6 b 421 7 423 9 423 13 b 423 15 422 18 420 22 b 417 25 414 27 411 28 b 414 28 416 30 417 34 b 419 35 420 37 420 40 b 420 44 419 47 417 49 b 416 52 413 54 409 55 b 408 55 404 58 400 58 l 376 58 l 376 -5 z m 213 -5 l 226 42 b 226 45 227 47 228 49 b 228 47 228 45 229 42 l 241 -5 l 249 -5 l 267 58 l 259 58 l 249 16 b 246 11 247 7 246 3 b 246 11 244 16 241 25 l 232 58 l 222 58 l 210 15 b 210 12 209 8 208 3 b 207 7 208 11 205 16 l 196 58 l 187 58 l 205 -5 z m 130 -5 l 144 42 b 144 45 145 47 147 49 b 147 47 147 45 148 42 l 160 -5 l 168 -5 l 186 58 l 177 58 l 168 16 b 165 11 167 7 163 3 b 163 11 163 16 160 25 l 150 58 l 141 58 l 129 15 b 129 12 128 8 127 3 b 124 7 123 11 123 16 l 115 58 l 105 58 l 123 -5 z m 384 49 l 396 49 b 401 49 404 49 405 48 b 406 48 405 46 408 46 l 409 46 b 410 45 411 43 411 40 b 411 37 410 35 409 34 b 409 33 408 33 405 33 b 404 31 401 30 397 30 l 384 30 z m 294 -5 l 307 42 b 307 45 308 47 310 49 b 310 47 311 45 312 42 l 324 -5 l 331 -5 l 349 58 l 342 58 l 331 16 b 330 11 331 7 327 3 b 327 11 325 16 324 25 l 313 58 l 304 58 l 292 15 b 292 12 291 11 291 3 b 287 7 289 11 286 16 l 277 58 l 268 58 l 285 -5 z m 664 49 l 684 49 b 690 49 693 49 694 48 b 696 46 697 43 697 40 b 697 37 697 35 696 34 b 696 29 686 28 682 28 l 664 28 z m 384 22 l 408 22 b 410 22 411 21 411 19 b 413 17 414 15 414 13 l 414 7 b 412 6 410 5 409 3 l 405 3 b 404 2 402 1 400 1 l 384 1 z m 442 -5 l 442 58 l 435 58 l 435 -5 z m 985 25 b 985 34 988 41 993 45 b 996 48 1000 49 1006 49 b 1011 49 1015 49 1018 48 b 1021 47 1024 44 1026 39 b 1027 36 1027 32 1027 27 b 1027 17 1025 10 1021 7 b 1018 3 1013 1 1006 1 b 990 1 985 10 985 25 z m 976 25 b 976 20 978 14 981 9 b 982 5 986 1 990 -3 b 995 -6 1001 -6 1006 -6 b 1012 -6 1017 -5 1021 -3 b 1033 6 1035 13 1035 27 b 1035 35 1034 40 1033 42 b 1029 47 1028 51 1021 54 b 1017 55 1013 58 1006 58 b 996 58 989 55 985 49 b 979 44 976 36 976 25 z m 600 -5 l 609 13 l 634 13 l 642 -5 l 651 -5 l 625 58 l 616 58 l 592 -5 z m 495 -5 l 495 1 l 466 1 l 466 58 l 459 58 l 459 -5 z m 903 -5 l 903 3 l 892 3 l 892 -5 z m 766 19 l 766 7 b 765 6 763 7 759 3 b 756 2 752 1 748 1 b 743 1 739 2 736 3 b 735 4 733 7 729 13 b 727 15 726 20 726 27 b 726 31 727 35 727 39 b 730 42 732 44 732 45 b 734 47 736 48 739 49 l 756 49 b 760 48 762 47 762 45 b 765 42 766 40 766 39 l 774 40 b 773 43 771 46 768 49 b 767 52 764 54 760 55 b 757 57 753 58 748 58 b 743 58 736 55 732 54 b 727 52 723 48 721 42 b 720 35 717 33 717 25 b 717 20 720 14 721 9 b 724 2 728 1 733 -3 b 737 -5 742 -6 748 -6 b 752 -6 758 -5 762 -5 b 766 -4 770 -1 774 3 l 774 27 l 748 27 l 748 19 z m 664 -5 l 664 22 l 678 22 b 679 22 678 21 681 21 l 682 21 b 685 18 687 20 687 16 b 688 15 689 11 693 7 l 702 -5 l 712 -5 l 700 10 b 696 14 697 17 694 21 b 693 21 692 22 688 22 b 695 26 699 27 702 28 b 705 31 706 35 706 40 b 706 44 705 47 703 49 b 702 52 700 54 697 55 b 693 55 689 58 684 58 l 657 58 l 657 -5 z m 544 -5 l 544 1 l 514 1 l 514 58 l 505 58 l 505 -5 z m 961 16 b 959 8 952 1 943 1 b 938 1 934 2 931 3 b 930 7 927 9 927 13 b 924 16 922 21 922 27 b 922 31 924 35 924 39 b 928 43 927 45 931 48 b 933 49 937 49 943 49 b 948 49 952 49 954 48 b 958 46 960 43 960 39 l 969 40 b 966 47 964 50 960 54 b 956 55 950 58 943 58 b 938 58 935 55 928 54 b 926 53 923 50 918 45 b 916 37 915 31 915 27 b 915 23 916 17 918 9 b 922 5 923 1 928 -3 b 932 -5 937 -6 943 -6 b 950 -6 956 -4 960 0 b 964 2 967 7 969 15 z m 1054 -5 l 1054 48 l 1072 -5 l 1080 -5 l 1098 46 l 1098 -5 l 1105 -5 l 1105 58 l 1093 58 l 1080 13 b 1078 7 1077 4 1077 3 b 1077 7 1074 9 1074 13 l 1059 58 l 1047 58 l 1047 -5 z m 175 111 b 173 97 161 85 147 85 b 141 85 135 87 130 91 b 126 93 123 98 121 105 b 118 109 117 115 117 124 b 117 133 117 140 118 144 b 120 149 124 153 130 157 b 134 161 140 163 148 163 b 154 163 159 161 163 157 b 166 156 170 152 174 144 l 186 145 b 183 156 178 163 171 165 b 167 170 159 172 148 172 b 139 172 131 170 124 166 b 117 163 112 158 109 151 b 105 144 103 135 103 124 b 103 114 105 106 109 99 b 110 93 115 87 123 81 b 131 77 139 75 148 75 b 157 75 166 78 174 84 b 181 90 185 97 187 106 z m 199 123 b 199 114 201 106 205 99 b 208 91 213 85 220 81 b 228 77 235 75 244 75 b 251 75 259 77 267 81 b 274 85 280 91 285 99 b 289 107 291 115 291 124 b 291 131 289 140 285 150 b 280 158 274 163 268 166 b 261 170 253 172 244 172 b 232 172 221 168 213 159 b 202 151 199 139 199 123 z m 213 123 b 213 138 216 148 222 153 b 229 160 236 163 244 163 b 252 163 258 161 261 157 b 267 155 271 151 273 144 b 274 137 277 132 277 124 b 277 113 274 104 267 97 b 262 89 254 85 244 85 b 235 85 227 88 220 94 b 215 101 213 111 213 123 z m 318 78 l 318 157 l 345 78 l 357 78 l 384 156 l 384 78 l 396 78 l 396 171 l 381 171 l 357 106 b 355 98 353 93 351 91 b 351 94 349 99 346 105 l 324 171 l 306 171 l 306 78 z m 429 78 l 429 117 l 453 117 b 467 117 476 119 481 124 b 486 131 489 138 489 144 b 489 149 487 153 486 157 b 482 162 479 165 478 166 b 475 169 471 171 466 171 l 417 171 l 417 78 z m 429 162 l 453 162 b 459 162 462 161 463 159 b 473 159 475 152 475 144 b 475 137 473 133 469 132 b 468 128 463 126 454 126 l 429 126 z m 564 78 l 564 87 l 517 87 l 517 171 l 505 171 l 505 78 z m 649 78 l 649 87 l 591 87 l 591 120 l 643 120 l 643 132 l 591 132 l 591 162 l 648 162 l 648 171 l 579 171 l 579 78 z m 703 78 l 703 162 l 735 162 l 735 171 l 658 171 l 658 162 l 690 162 l 690 78 z m 819 78 l 819 87 l 760 87 l 760 120 l 813 120 l 813 132 l 760 132 l 760 162 l 817 162 l 817 171 l 748 171 l 748 78 z m 870 106 b 870 100 871 95 873 91 b 881 79 895 75 909 75 b 917 75 923 78 928 79 b 932 81 936 84 940 88 b 942 91 943 96 943 103 b 943 109 942 114 940 117 b 936 121 935 123 928 126 b 924 127 918 129 907 132 b 895 137 889 139 889 139 b 886 141 885 144 885 147 b 885 151 886 154 889 157 b 891 160 897 162 907 162 b 914 162 919 160 922 157 b 925 156 928 152 930 144 l 942 145 b 942 151 940 156 936 159 b 933 164 929 165 924 169 b 920 171 914 172 907 172 b 897 172 891 172 889 171 b 884 167 880 166 877 162 b 873 158 871 153 871 147 b 871 143 872 139 876 136 b 878 131 881 128 885 126 b 889 123 895 124 904 120 b 914 118 920 117 921 117 b 925 113 927 112 930 111 b 931 109 931 106 931 103 b 931 97 930 88 922 88 b 918 87 913 87 909 87 b 902 87 897 87 895 88 b 890 90 887 93 885 97 b 883 99 882 103 882 108 z m 1032 78 l 1032 87 l 975 87 l 975 120 l 1027 120 l 1027 132 l 975 132 l 975 162 l 1029 162 l 1029 171 l 961 171 l 961 78 z m 1086 78 l 1086 162 l 1117 162 l 1117 171 l 1044 171 l 1044 162 l 1074 162 l 1074 78 z m 127 190 l 127 229 l 150 229 b 165 229 174 232 177 237 b 183 243 186 250 186 259 b 186 264 185 268 183 270 b 180 274 178 279 175 280 b 169 282 165 283 163 283 l 112 283 l 112 190 z m 127 274 l 150 274 b 157 274 161 274 162 273 b 164 273 166 271 169 268 b 172 264 174 260 174 256 b 174 252 172 248 168 244 b 165 242 159 241 150 241 l 127 241 z m 271 190 l 271 202 l 214 202 l 214 234 l 265 234 l 265 244 l 214 244 l 214 274 l 268 274 l 268 283 l 201 283 l 201 190 z m 303 190 l 303 234 l 316 234 b 320 234 323 233 324 231 b 326 231 328 230 330 229 b 331 229 332 226 336 223 b 337 219 342 215 343 210 l 357 190 l 372 190 l 355 216 b 353 220 350 224 345 229 b 342 232 341 230 337 234 b 357 238 364 246 364 259 b 364 261 363 266 361 274 b 359 277 356 280 351 282 b 347 283 340 283 331 283 l 288 283 l 288 190 z m 303 274 l 331 274 b 341 274 351 271 351 259 b 351 255 350 252 349 250 b 347 249 345 247 342 244 b 340 243 335 243 327 243 l 303 243 z m 381 222 b 381 214 381 209 384 204 b 388 197 392 196 397 192 b 405 190 413 189 420 189 b 425 189 431 190 439 192 b 443 196 446 197 450 204 b 453 208 454 212 454 217 b 454 223 453 228 450 231 b 447 235 443 237 439 241 b 433 241 426 243 417 247 b 407 249 401 251 400 253 b 397 254 396 257 396 261 b 396 265 397 268 400 270 b 403 274 409 276 417 276 b 424 276 429 274 433 270 b 436 268 439 263 441 256 l 453 259 b 453 262 451 267 447 273 b 442 283 427 286 417 286 b 408 286 402 285 400 283 b 393 281 389 278 388 274 b 384 270 384 265 384 261 b 384 256 384 252 385 249 b 394 240 402 235 415 234 b 423 230 429 232 430 229 b 434 227 438 225 441 223 b 442 222 442 220 442 216 b 442 213 441 211 441 208 b 440 206 436 204 430 202 b 429 201 424 201 420 201 b 416 201 411 202 405 204 b 401 204 397 207 396 210 b 393 214 391 218 391 222 z m 468 237 b 468 227 470 219 474 214 b 475 207 480 201 489 196 b 496 191 504 189 513 189 b 521 189 529 191 537 195 b 543 199 548 204 552 211 b 556 219 558 228 558 237 b 558 247 556 255 552 262 b 548 270 545 276 537 280 b 526 284 521 286 513 286 b 500 286 489 282 480 273 b 472 263 468 251 468 237 z m 480 237 b 480 251 483 261 489 267 b 498 272 502 276 513 276 b 520 276 526 274 531 270 b 534 268 537 264 540 259 b 544 254 544 245 544 237 b 544 226 542 217 537 210 b 531 204 523 201 513 201 b 493 201 480 213 480 237 z m 585 190 l 585 264 l 636 190 l 648 190 l 648 283 l 636 283 l 636 211 l 586 283 l 573 283 l 573 190 z m 670 190 l 682 220 l 721 220 l 732 190 l 747 190 l 708 283 l 694 283 l 658 190 z m 696 256 b 697 263 700 269 700 274 b 703 270 704 263 708 255 l 717 229 l 684 229 z m 814 190 l 814 202 l 768 202 l 768 283 l 754 283 l 754 190 z m 922 231 b 922 218 920 209 916 205 b 911 202 905 201 897 201 b 890 201 887 201 883 204 b 880 205 878 207 876 211 b 874 214 873 221 873 231 l 873 283 l 862 283 l 862 231 b 862 218 863 210 864 208 b 868 203 872 196 877 195 b 881 191 888 189 898 189 b 908 189 916 191 921 195 b 926 198 929 202 931 208 b 933 212 934 220 934 231 l 934 283 l 922 283 z m 951 222 b 951 214 953 209 957 204 b 961 197 966 196 970 192 b 977 189 982 189 993 189 b 998 189 1003 190 1009 192 b 1016 196 1017 197 1021 204 b 1024 207 1026 211 1026 217 b 1026 224 1024 229 1021 231 b 1020 235 1016 237 1009 241 b 1006 241 999 243 988 247 b 968 251 967 254 967 261 b 967 266 969 269 973 270 b 974 274 979 276 988 276 b 996 276 1002 274 1005 270 b 1009 267 1008 263 1012 256 l 1024 259 b 1024 263 1021 269 1020 273 b 1017 277 1012 280 1006 283 b 1002 287 995 286 988 286 b 980 286 974 285 970 283 b 964 281 961 278 960 274 b 957 269 955 265 955 261 b 955 256 957 252 960 249 b 961 245 964 242 969 240 b 970 236 979 235 987 234 b 995 230 1001 232 1005 229 b 1009 228 1008 226 1012 223 b 1013 222 1014 220 1014 216 b 1014 210 1011 205 1005 202 b 1002 201 997 201 990 201 b 987 201 982 202 976 204 b 972 204 970 207 967 210 b 966 214 963 218 963 222 z m 1113 190 l 1113 202 l 1057 202 l 1057 234 l 1107 234 l 1107 244 l 1057 244 l 1057 274 l 1111 274 l 1111 283 l 1044 283 l 1044 190 z m 307 388 b 307 364 271 346 250 345 b 245 342 236 343 232 343 b 223 344 216 346 210 348 b 219 353 226 361 234 372 l 258 397 l 267 408 b 275 408 281 406 285 406 b 300 404 307 398 307 388 z m 324 433 b 324 428 300 412 294 412 l 268 408 b 270 412 272 415 274 417 l 291 432 b 306 437 314 439 316 439 b 321 439 324 437 324 433 z m 342 460 b 339 462 335 463 330 463 l 324 463 b 311 467 302 469 289 469 b 274 469 260 464 246 454 b 233 443 226 432 226 421 b 226 415 229 410 235 406 b 235 407 235 408 234 409 b 231 412 229 416 229 420 b 229 448 275 464 298 466 b 303 466 310 465 319 462 b 299 456 274 435 243 400 l 225 379 b 226 382 226 386 226 391 l 226 393 b 222 386 223 380 219 376 b 215 372 211 368 207 363 b 207 362 203 359 195 354 b 180 363 172 374 172 387 b 172 394 175 400 181 406 b 183 410 185 412 187 412 l 190 417 b 176 407 168 395 166 382 b 166 368 172 357 183 349 b 175 345 170 343 162 343 b 158 343 155 345 148 346 b 141 348 136 352 132 358 b 128 365 126 370 126 379 b 126 389 130 401 139 415 b 149 427 159 436 169 441 b 170 443 176 446 186 450 b 193 454 199 456 205 456 b 210 456 215 454 220 451 b 216 455 209 457 198 457 b 187 456 177 453 166 444 b 149 433 137 420 130 405 b 126 394 124 389 124 381 b 124 367 129 356 139 349 b 145 343 154 340 165 340 b 173 340 180 342 187 346 l 187 345 b 182 341 176 339 168 339 l 163 339 b 167 338 172 336 178 334 l 181 334 b 186 334 192 336 198 340 b 205 337 216 335 224 335 b 230 335 238 337 247 339 b 271 341 321 363 321 391 b 321 401 312 407 294 409 b 317 414 331 421 336 430 l 336 436 b 336 445 328 445 321 445 b 317 445 314 444 310 444 b 306 441 301 440 297 436 b 310 449 321 457 331 459 b 335 459 335 457 339 457 b 342 457 343 458 343 460 z m 346 363 b 342 359 340 358 339 357 b 332 347 326 342 321 342 b 317 342 315 343 315 346 b 315 349 318 355 324 364 l 334 375 b 340 382 343 387 343 391 b 343 392 342 393 339 393 l 334 393 b 334 391 333 388 330 385 l 325 379 l 324 379 b 317 372 312 369 309 369 b 310 368 310 367 310 367 b 313 367 315 368 316 369 l 318 369 b 312 361 309 354 309 349 b 309 343 311 340 316 340 b 321 340 327 342 334 346 b 341 353 345 359 346 363 z m 354 405 b 354 407 354 409 354 411 l 346 414 l 346 411 b 344 404 340 400 333 400 l 328 400 b 332 397 336 396 339 396 b 345 396 350 399 354 405 z m 406 433 b 406 436 405 439 402 441 b 400 435 397 430 394 426 l 385 417 l 367 394 b 347 369 337 354 337 348 b 337 343 340 340 346 339 b 356 339 375 350 375 361 b 372 357 370 358 369 355 b 362 345 355 340 349 340 b 346 340 345 342 345 345 b 345 351 349 359 358 370 l 360 370 b 391 407 406 428 406 433 z m 432 433 b 432 436 430 439 427 441 b 426 437 423 432 418 426 l 409 417 l 391 394 b 371 369 361 354 361 348 b 361 343 364 340 370 339 b 381 339 398 350 400 361 l 394 355 b 385 345 379 340 375 340 b 371 340 369 342 369 345 b 369 350 374 358 384 370 b 416 408 432 429 432 433 z m 387 309 b 380 302 376 298 372 294 b 368 293 364 292 361 292 b 357 292 355 294 355 298 b 355 300 359 306 366 315 b 375 324 387 330 403 333 z m 447 430 b 444 425 440 419 436 411 l 418 394 b 397 375 387 360 387 348 b 387 343 389 340 394 340 b 398 340 404 340 412 348 l 403 334 l 399 334 b 396 334 394 333 393 333 b 382 332 368 325 351 313 l 361 315 l 360 313 b 356 309 355 304 352 303 b 350 300 350 298 350 295 b 350 292 351 290 355 289 b 358 285 363 283 369 283 b 376 285 382 289 388 295 l 406 318 b 413 327 420 332 424 336 l 426 337 b 418 333 412 330 409 328 l 423 346 l 435 366 b 440 374 442 379 442 381 b 442 384 441 386 439 388 l 439 397 b 433 375 423 358 408 346 b 404 344 401 343 400 343 b 397 343 396 345 396 348 b 396 353 399 360 405 369 b 404 366 403 364 403 362 b 403 361 403 361 403 360 b 403 362 404 364 406 366 b 413 375 419 382 426 390 b 426 391 427 390 427 393 b 438 404 445 416 447 430 z m 636 450 b 620 444 601 430 579 408 b 559 420 543 426 531 427 b 553 445 573 456 603 456 b 607 456 612 455 618 453 z m 627 420 b 616 408 608 398 604 393 l 589 402 l 600 412 b 612 424 619 431 622 433 b 633 444 641 444 649 447 z m 663 475 l 661 475 b 659 465 656 457 652 450 l 651 451 l 642 451 l 624 456 b 614 458 606 459 601 459 b 590 459 582 458 577 457 b 556 454 539 445 525 429 b 499 429 469 415 469 385 b 469 376 475 366 487 354 l 484 357 b 476 366 475 374 475 385 b 475 397 483 406 499 412 b 502 414 509 416 519 418 b 518 416 517 414 517 411 b 517 405 521 400 528 396 b 524 402 521 405 520 405 b 520 410 521 414 523 418 l 525 418 b 544 418 561 414 576 405 l 547 375 b 522 348 499 334 478 333 b 459 333 442 347 442 367 b 442 378 447 391 456 405 b 464 414 473 422 484 430 b 499 439 512 444 522 444 b 529 444 533 443 535 441 l 537 441 b 533 445 526 447 516 447 b 504 444 493 444 481 433 b 464 422 453 409 447 393 b 443 388 441 380 441 370 b 441 356 446 346 456 339 l 454 339 b 461 334 470 331 481 331 b 492 331 502 333 510 337 b 499 327 496 327 483 327 b 481 327 480 327 480 327 b 486 324 490 322 493 322 l 498 322 b 510 322 524 330 540 346 b 556 366 566 377 573 385 l 586 399 l 601 391 b 591 376 579 359 579 340 b 579 332 583 328 591 328 b 597 328 606 333 618 342 b 615 333 613 326 613 322 l 633 361 b 641 373 646 386 648 400 l 648 402 b 647 403 646 404 646 405 l 646 400 b 643 389 637 377 627 363 l 621 354 b 612 341 603 334 595 334 b 591 334 589 336 589 340 b 589 342 590 345 592 349 b 593 360 600 372 612 385 b 616 384 617 382 621 382 b 622 382 622 383 622 385 b 618 388 617 387 613 388 l 637 417 b 645 425 652 435 657 447 l 658 447 l 657 448 b 660 455 661 462 661 469 b 662 470 663 471 663 472 z m 682 375 b 682 381 678 385 670 388 b 675 395 678 399 678 400 l 676 402 b 675 402 675 401 675 400 b 668 394 664 391 664 390 b 664 387 666 388 666 387 b 663 382 657 375 648 367 b 639 357 632 352 628 352 l 631 351 l 637 354 b 646 358 657 368 669 385 b 672 383 674 381 674 378 b 674 378 673 377 673 376 b 673 374 670 369 663 360 b 654 351 649 344 649 340 b 649 338 652 337 657 337 b 657 338 657 339 658 339 b 659 339 660 339 661 340 l 658 340 b 665 351 670 358 681 367 b 682 369 682 372 682 375 z m 726 378 b 722 374 719 368 715 364 l 717 367 b 717 372 715 375 711 375 b 712 375 712 374 712 372 b 712 369 710 363 706 355 b 702 350 697 347 691 345 b 689 345 688 346 688 348 b 688 357 704 378 711 382 b 713 384 716 385 720 385 b 721 386 722 386 723 386 b 725 386 726 384 726 379 z m 759 393 b 757 396 754 397 751 397 b 747 397 743 395 738 390 l 730 381 l 729 381 b 729 389 725 393 718 393 b 705 393 682 364 682 352 b 682 344 686 340 694 340 b 696 340 699 341 702 342 l 685 318 b 675 303 666 295 657 295 b 656 295 655 296 655 297 b 654 298 654 299 654 300 b 654 303 654 305 655 307 b 659 319 671 328 690 334 l 688 336 b 684 336 685 334 682 334 b 670 331 659 325 649 315 b 652 315 655 315 657 316 b 653 312 651 308 651 303 b 651 303 651 300 651 295 b 654 290 659 289 664 289 b 682 289 708 333 715 348 b 726 364 733 376 741 385 b 746 390 750 393 754 393 z m 781 382 b 781 385 779 388 775 391 b 774 392 773 393 771 393 b 761 393 753 388 747 379 b 736 369 730 359 730 349 b 730 341 734 340 741 340 b 743 339 744 339 746 339 b 751 339 756 341 762 345 b 771 350 774 356 778 361 b 775 359 773 357 771 355 b 764 349 755 344 745 340 b 741 340 739 341 739 343 b 738 344 738 345 738 346 b 738 349 739 353 741 357 b 742 360 743 363 745 367 b 745 362 746 359 747 358 b 747 362 746 367 753 375 l 753 376 b 762 385 768 390 772 390 l 772 384 b 770 377 766 371 759 367 b 756 367 753 368 751 370 b 754 365 757 363 760 363 l 762 363 b 763 363 764 363 765 364 b 776 370 781 376 781 382 z m 841 433 b 841 436 840 439 837 441 b 837 437 834 432 828 426 l 819 417 l 801 394 b 782 371 772 356 772 348 b 772 344 775 341 780 339 b 791 339 810 349 810 361 b 807 357 805 358 804 355 b 797 345 790 340 784 340 b 781 340 780 342 780 345 b 780 351 784 359 793 370 b 825 408 841 429 841 433 z m 922 387 b 913 371 900 362 892 354 b 879 344 865 339 850 339 l 844 339 b 841 340 840 343 840 349 b 840 364 849 381 868 399 b 875 404 886 410 895 415 b 896 402 905 393 922 387 z m 936 405 l 925 391 b 908 394 899 403 897 417 b 914 425 928 429 940 430 l 952 430 z m 979 457 b 970 448 962 440 958 433 b 949 436 943 435 939 435 b 924 435 911 434 897 430 b 901 438 904 443 907 445 b 923 459 939 463 960 463 b 941 459 927 453 916 444 b 932 453 954 457 979 457 z m 1074 459 b 1070 458 1063 457 1054 457 b 1048 457 1040 459 1030 462 b 1021 466 1013 465 1005 468 b 1010 472 1016 474 1020 475 b 1020 475 1025 476 1036 478 b 1034 480 1025 482 1021 482 b 1013 482 1006 477 991 468 l 990 468 b 979 469 975 469 964 469 b 943 469 926 464 913 453 l 900 439 b 900 435 899 432 897 430 b 866 417 840 392 835 358 b 835 352 836 346 837 340 b 823 345 815 357 813 375 b 813 413 854 457 892 463 b 898 463 903 462 906 459 l 907 460 b 902 464 896 466 889 466 b 876 466 861 459 844 444 b 831 429 821 419 814 400 b 810 392 811 384 811 375 b 812 361 819 349 831 340 b 835 338 837 337 838 337 b 843 332 850 328 858 324 l 846 336 l 855 334 b 863 334 874 337 888 343 b 877 333 866 328 856 328 b 862 328 868 328 873 327 b 884 327 896 334 909 348 b 917 356 924 368 939 384 l 946 384 b 960 384 986 392 993 406 l 991 406 b 987 396 973 390 948 388 l 940 388 l 951 403 b 955 411 962 418 970 427 l 994 423 b 1000 421 1006 420 1011 420 b 1014 420 1018 420 1021 421 b 1032 423 1040 426 1044 430 b 1039 427 1029 426 1015 426 b 1003 426 989 429 973 430 l 994 456 b 1010 456 1023 452 1032 445 b 1028 441 1030 439 1027 438 b 1028 437 1029 436 1030 436 l 1033 436 b 1040 436 1048 439 1056 444 b 1065 448 1070 452 1074 459 z m 982 354 b 975 347 971 343 969 343 b 967 343 966 344 966 346 b 966 357 973 367 979 375 b 979 371 978 368 978 364 b 978 360 979 357 982 354 z m 1002 385 b 1000 378 997 373 994 370 b 994 371 993 374 991 378 b 992 377 993 376 993 375 b 993 373 992 369 990 363 b 987 360 988 361 987 358 l 987 360 l 987 358 l 982 354 b 981 355 981 357 981 360 b 981 365 989 383 993 387 b 995 388 997 388 999 388 b 1001 388 1002 387 1002 385 z m 1008 381 b 1008 389 1004 393 997 393 b 980 393 957 364 957 348 b 957 343 960 340 966 340 l 978 340 b 982 343 988 349 997 358 b 1004 368 1008 376 1008 381 z m 1057 384 b 1056 388 1054 391 1050 393 b 1043 393 1036 390 1030 385 b 1030 389 1027 392 1021 394 b 1021 393 1023 391 1023 388 b 1023 384 1020 379 1015 372 l 1006 361 b 999 354 995 347 993 340 b 992 339 992 337 992 336 b 992 334 993 331 993 327 b 997 335 999 339 1000 340 b 1001 343 1004 348 1009 354 b 1017 363 1025 370 1029 379 b 1037 385 1041 388 1041 388 b 1042 389 1044 389 1045 389 b 1047 389 1048 387 1048 384 b 1048 381 1047 382 1047 379 b 1043 371 1040 366 1038 364 b 1039 366 1039 367 1039 367 l 1039 372 b 1038 369 1037 367 1036 366 b 1032 358 1029 353 1021 345 b 1013 336 1009 325 1008 313 b 1010 321 1014 329 1021 336 l 1039 352 b 1041 354 1045 359 1051 367 b 1054 372 1057 378 1057 384 z m 1123 405 l 1108 405 l 1096 406 l 1102 415 b 1104 417 1105 420 1105 423 b 1105 427 1104 429 1102 430 b 1098 425 1094 417 1087 408 l 1083 409 b 1055 413 1039 417 1038 417 b 1017 417 1001 412 991 402 l 993 402 b 1005 407 1017 409 1029 409 l 1042 409 b 1048 409 1053 409 1057 408 l 1083 405 l 1048 363 b 1044 355 1042 350 1042 348 b 1043 344 1046 341 1051 339 b 1062 339 1080 349 1080 361 b 1077 360 1078 358 1077 357 l 1075 355 b 1066 345 1059 340 1054 340 b 1052 340 1051 342 1051 345 b 1051 350 1053 355 1057 360 b 1059 365 1061 367 1063 367 b 1079 390 1092 401 1093 405 z m 1126 385 b 1126 387 1126 389 1125 390 b 1125 391 1123 392 1119 394 b 1115 394 1114 396 1110 396 b 1101 396 1096 391 1096 381 b 1096 377 1097 373 1098 370 b 1099 367 1099 363 1099 358 b 1099 347 1095 342 1087 342 b 1079 342 1075 346 1075 354 b 1075 356 1077 359 1080 364 b 1082 366 1085 367 1089 367 l 1092 367 l 1086 369 b 1074 367 1068 362 1068 354 b 1068 352 1068 350 1069 349 b 1071 343 1077 340 1086 340 b 1101 340 1110 345 1110 361 b 1107 376 1105 385 1105 387 b 1106 391 1109 393 1114 393 l 1119 393 l 1119 387 b 1119 382 1117 378 1114 375 l 1116 376 b 1123 379 1126 382 1126 385 z"},"S":{"x_min":0,"x_max":422,"ha":422,"o":"m 22 489 b 22 446 34 411 59 382 l 59 380 l 57 372 b 56 369 56 364 56 358 l 56 352 l 65 294 l 65 289 b 65 286 65 283 64 282 l 10 216 b 4 209 1 201 1 194 b 1 184 11 172 32 159 b 44 151 61 142 83 133 l 85 131 b 86 130 87 115 88 86 l 88 75 l 88 63 b 88 58 88 51 87 41 l 87 32 b 87 12 97 2 116 2 b 133 2 143 10 147 27 b 147 34 147 41 148 48 b 149 55 150 65 153 79 b 154 90 154 100 153 110 b 153 111 154 111 156 111 l 158 111 b 181 110 194 109 197 109 b 204 109 215 110 228 111 b 233 112 237 112 241 112 l 241 107 b 234 78 231 57 231 43 b 231 23 239 13 256 13 b 273 13 282 23 282 43 b 282 47 282 49 281 50 b 281 56 280 64 279 75 b 278 82 278 93 278 106 l 278 121 b 278 122 281 124 288 127 b 303 134 318 143 333 154 b 334 154 334 154 334 153 b 334 152 334 150 333 147 b 330 138 327 125 322 107 b 320 98 319 90 319 83 b 319 68 326 60 340 60 b 355 60 363 67 363 80 l 363 97 l 357 157 l 357 162 b 357 168 358 172 359 175 l 384 224 b 393 242 398 267 398 300 b 398 330 390 360 374 390 b 374 400 373 407 372 412 b 361 439 355 466 355 495 b 355 514 356 524 357 527 l 358 529 b 367 540 376 550 385 561 b 395 574 400 584 400 592 b 400 607 387 621 361 635 b 314 661 268 674 221 674 b 192 674 166 670 141 661 b 62 632 22 575 22 489 z m 229 550 b 230 551 232 551 233 551 b 251 551 260 540 260 517 l 259 517 l 260 515 b 259 516 258 516 258 517 b 248 529 238 539 229 548 b 228 548 228 549 228 550 z m 194 501 b 194 510 202 515 218 515 l 223 515 l 224 514 b 225 513 226 505 226 492 l 226 480 b 226 479 225 479 224 479 b 204 479 194 486 194 501 z m 302 516 b 316 516 323 507 323 489 b 323 487 323 486 322 485 b 317 496 310 506 302 513 z m 258 504 b 258 505 258 509 259 514 b 260 513 261 511 261 507 b 261 502 260 499 259 499 b 258 501 258 503 258 504 z m 295 482 b 296 482 296 481 296 479 b 296 478 296 477 295 476 z m 57 459 l 58 460 l 59 459 b 66 440 76 422 90 403 b 92 400 93 397 93 394 b 93 391 92 390 91 390 b 85 390 78 398 69 415 b 61 430 57 444 57 455 z m 62 382 b 58 382 52 390 43 406 b 34 423 29 435 29 441 l 29 444 b 34 429 40 416 48 405 b 57 391 62 383 62 382 z m 145 367 l 149 367 b 154 367 162 364 174 359 b 187 354 194 347 194 339 b 194 338 194 336 193 335 b 188 324 186 312 185 299 l 184 301 l 184 308 b 184 309 184 314 185 324 l 185 327 b 185 337 179 346 166 353 b 151 361 144 365 144 366 z m 90 349 l 91 348 l 91 338 l 90 339 z m 215 336 b 215 337 215 338 216 338 b 217 339 218 339 219 339 b 245 339 258 326 258 299 b 256 299 254 300 252 302 b 243 313 236 319 232 322 b 221 331 215 335 215 336 z m 166 306 b 163 319 159 326 156 327 l 140 334 l 140 335 b 157 332 166 323 166 308 l 166 306 z m 133 314 b 133 327 134 333 137 333 l 138 333 b 153 328 162 316 166 298 l 166 297 b 166 295 166 288 165 275 l 164 275 b 143 275 133 288 133 314 z m 93 310 b 92 311 91 314 91 321 l 91 327 b 92 326 93 322 93 315 l 93 310 z m 226 288 b 226 292 221 297 210 304 b 210 305 210 305 209 305 l 212 305 b 221 305 226 300 226 289 z m 211 273 b 208 281 207 291 207 304 b 218 304 224 297 224 283 b 224 275 221 271 214 271 b 213 271 212 272 211 273 z m 32 193 b 32 196 35 197 41 197 b 44 197 46 196 49 194 b 71 181 90 171 105 164 b 115 159 120 151 120 138 b 120 132 119 128 117 127 b 114 142 106 153 93 160 l 36 189 b 33 190 32 192 32 193 z m 83 134 b 71 139 59 145 48 151 b 35 157 25 164 17 171 b 8 180 3 186 3 190 l 5 190 l 10 185 b 25 169 50 153 86 136 b 87 135 88 134 88 133 b 88 131 88 130 87 131 z m 334 155 b 334 156 334 156 335 156 b 339 159 341 161 342 162 b 343 161 344 159 344 156 l 344 154 b 342 155 340 156 339 156 l 338 156 l 336 154 l 335 154 b 334 154 334 154 334 155 z m 256 119 b 256 121 256 122 257 123 b 258 122 259 120 259 115 l 259 112 b 257 113 256 116 256 119 z m 338 81 b 338 83 339 85 340 86 l 340 84 b 340 82 339 81 338 80 z m 334 63 b 326 63 322 67 322 75 l 322 76 b 327 73 331 70 334 66 l 327 71 l 327 69 l 324 72 b 325 69 329 66 335 63 z m 253 38 b 253 41 254 43 255 44 l 255 37 l 254 36 b 253 36 253 37 253 38 z m 112 29 b 112 32 113 34 115 37 b 116 36 117 35 117 32 b 116 29 115 28 114 28 b 113 28 112 28 112 29 z m 247 17 b 238 17 234 22 234 33 l 234 34 l 250 17 l 249 16 b 248 17 246 20 241 24 l 241 25 l 240 24 b 240 23 242 20 247 17 z m 107 5 b 96 6 90 12 90 21 l 90 23 l 107 6 z"},"Z":{"x_min":0,"x_max":436,"ha":436,"o":"m 8 591 b 8 576 9 560 10 543 b 13 524 28 513 56 512 b 72 511 88 511 104 511 b 105 510 106 509 106 508 l 106 507 l 100 457 l 100 451 b 100 445 102 438 107 430 l 107 427 l 30 325 b 10 298 0 261 0 214 b 0 187 1 168 4 159 b 6 152 15 144 30 135 b 31 135 31 134 31 132 l 31 130 l 23 89 l 23 86 b 23 77 27 73 35 73 b 42 73 46 77 46 85 l 46 89 b 41 110 39 124 39 132 b 47 132 58 131 71 129 b 114 128 166 127 227 126 b 228 126 228 125 228 123 b 228 105 228 90 227 79 b 226 73 225 64 224 52 l 224 44 l 224 35 b 228 22 237 15 251 15 b 265 15 274 22 278 36 l 278 48 l 278 59 b 278 62 278 66 277 71 l 277 92 l 277 113 b 278 122 280 127 281 127 l 288 127 b 290 127 291 120 292 107 l 292 94 b 292 90 292 80 291 65 l 291 62 b 291 50 297 44 310 44 b 323 44 330 50 330 61 b 330 62 330 62 329 63 b 327 84 326 97 326 100 b 326 118 327 127 329 128 b 340 129 351 131 361 132 b 383 135 397 144 403 158 b 405 161 406 169 407 182 b 408 191 408 201 408 214 b 408 227 408 239 407 252 b 406 276 396 289 377 292 b 368 293 362 294 359 294 l 311 295 l 307 296 b 307 297 309 298 312 301 b 321 308 325 320 325 336 b 325 344 324 353 323 362 b 320 380 317 398 314 415 l 314 417 b 314 418 314 419 315 420 l 342 456 b 343 458 344 459 345 459 b 346 459 347 458 347 457 l 350 423 b 351 416 355 413 363 413 b 372 413 376 417 377 425 l 384 510 b 384 513 387 522 393 537 b 399 552 402 573 402 602 b 402 616 402 626 401 633 b 399 654 385 667 359 670 b 340 673 317 674 290 674 l 205 674 l 121 674 b 104 674 87 673 70 672 b 41 670 22 663 15 650 b 10 642 8 622 8 591 z m 39 546 b 39 553 41 557 45 560 b 50 555 53 551 53 548 l 53 547 b 48 544 45 543 42 543 b 40 543 39 544 39 546 z m 155 545 l 159 545 b 180 545 191 536 191 518 b 191 515 190 514 188 514 b 176 526 168 533 164 536 b 158 541 155 543 154 544 z m 33 517 b 22 517 16 524 13 538 b 14 538 15 537 16 535 l 34 517 z m 105 513 b 108 514 111 515 114 515 l 113 509 b 113 510 112 510 111 510 b 107 511 105 512 105 513 z m 158 505 b 156 508 154 510 151 511 l 154 511 b 157 511 159 510 159 507 b 159 506 159 506 158 505 z m 131 465 b 127 477 125 492 125 511 b 146 511 156 508 156 503 b 156 500 154 494 149 486 b 140 471 135 464 133 464 b 132 464 131 464 131 465 z m 358 465 b 358 468 359 469 360 469 l 361 469 b 362 467 362 463 362 457 b 362 454 362 452 361 449 l 361 455 b 359 461 358 464 358 465 z m 109 430 b 105 435 103 439 103 442 l 103 444 b 108 441 110 437 110 432 b 110 431 110 430 109 430 z m 356 417 b 354 418 353 420 353 422 l 353 423 b 353 421 354 419 356 417 z m 283 379 l 284 379 b 289 379 293 370 297 353 b 298 346 299 338 299 329 b 299 326 299 322 298 319 b 295 312 294 306 294 299 b 293 300 292 301 292 302 l 292 304 b 295 313 297 321 297 330 b 297 343 292 359 283 378 z m 268 357 b 268 358 269 358 270 358 b 273 358 274 354 274 347 l 274 346 z m 237 304 b 237 309 239 315 244 322 b 257 344 265 355 268 355 b 270 355 272 349 274 337 b 275 325 276 316 277 310 b 278 307 278 305 279 303 l 282 296 l 255 296 b 243 297 237 299 237 304 z m 283 298 b 281 298 280 301 280 306 l 280 308 l 286 302 l 286 301 b 286 299 285 298 283 298 z m 32 169 b 32 176 34 180 37 182 l 51 167 b 50 165 47 164 40 164 b 35 164 32 166 32 169 z m 231 161 b 231 162 233 163 236 163 b 247 163 252 159 252 151 l 252 121 b 251 122 251 122 251 123 b 248 138 242 151 232 160 z m 304 156 b 297 156 294 158 294 163 b 301 163 304 161 304 156 z m 34 134 b 15 142 6 151 6 160 l 6 161 b 20 146 30 139 36 139 b 35 137 35 135 34 134 z m 306 129 b 306 132 306 134 307 135 l 308 134 l 307 116 b 306 120 306 124 306 129 z m 303 47 b 297 47 294 50 294 57 l 294 59 l 299 56 l 296 56 b 296 52 299 49 304 47 z m 247 39 b 247 44 248 46 249 46 l 251 46 b 251 41 250 39 247 39 z m 242 18 b 232 18 227 23 227 33 l 227 34 l 242 19 z m 234 24 b 236 21 238 20 239 20 l 234 26 l 236 22 z"},"x":{"x_min":0,"x_max":552,"ha":552,"o":"m 10 649 b 10 640 12 632 17 623 l 56 556 b 57 555 57 553 57 550 l 57 546 b 52 519 50 500 50 489 b 50 486 50 484 51 481 b 52 474 57 471 65 471 b 76 471 82 475 82 484 l 82 511 l 83 512 l 85 509 b 114 480 128 448 128 412 b 128 395 124 379 117 366 l 14 189 b 5 174 1 162 1 152 b 1 139 9 131 25 128 l 26 127 l 26 120 l 26 109 b 26 102 25 92 23 79 l 23 73 b 23 60 29 53 40 53 b 52 53 58 59 58 72 l 58 78 b 58 85 57 97 55 112 l 55 114 b 55 120 55 123 56 124 l 57 125 l 106 126 b 128 127 142 127 149 128 b 160 129 172 135 184 144 b 185 145 186 146 187 146 b 188 146 188 145 188 144 b 201 116 214 102 229 102 b 242 102 249 108 251 121 b 252 128 252 139 252 155 b 252 180 248 208 241 238 b 245 253 251 261 259 261 b 264 261 268 258 271 252 l 315 175 b 316 174 316 173 316 172 b 316 170 316 167 315 163 l 315 147 l 315 134 b 315 129 316 121 318 111 l 318 102 b 318 99 318 92 317 82 l 317 80 b 317 69 323 64 336 64 b 349 64 355 71 355 84 b 355 93 354 109 351 132 b 351 133 351 134 352 134 l 353 134 b 366 131 374 129 377 128 b 404 126 432 125 461 126 b 463 126 464 125 464 122 b 467 104 468 88 468 75 b 471 65 476 60 485 60 b 494 60 500 64 502 73 l 502 80 l 502 87 b 502 94 501 104 499 117 l 499 122 l 499 127 b 500 128 502 128 507 129 b 520 132 527 139 527 152 b 527 165 521 180 510 198 l 413 355 b 400 375 394 395 394 414 b 394 431 398 445 406 458 l 495 607 b 506 624 511 638 511 649 b 511 663 503 671 487 672 b 471 673 453 674 432 674 b 411 674 393 673 377 672 b 348 669 329 660 320 643 l 272 560 b 269 555 266 552 264 552 b 262 552 260 553 259 556 l 208 643 b 197 661 179 671 153 673 b 146 674 140 674 133 674 l 95 674 l 61 674 b 57 674 48 673 34 672 b 18 671 10 663 10 649 z m 23 614 b 18 625 14 634 13 641 l 14 640 b 17 634 19 628 22 623 b 34 602 46 580 59 559 b 60 558 60 556 60 555 b 60 554 60 554 59 554 b 58 555 46 575 23 614 z m 46 634 b 49 634 54 630 61 623 b 70 609 78 595 86 582 b 89 577 91 573 92 569 l 97 553 b 120 523 139 496 152 473 b 157 460 160 450 160 443 l 160 440 b 159 440 157 441 156 444 b 141 473 126 499 113 521 b 106 533 96 539 84 539 l 85 540 b 88 548 90 553 90 555 b 90 557 90 558 89 559 l 46 630 z m 83 513 b 83 514 84 515 86 515 b 87 515 89 512 92 507 b 102 490 112 472 121 455 b 126 445 128 438 128 433 l 128 431 b 123 444 120 453 117 458 b 107 475 97 492 86 509 b 84 511 83 512 83 513 z m 53 483 b 59 484 63 487 65 490 l 65 489 l 65 488 b 62 479 61 475 61 474 l 60 474 b 55 474 52 477 52 482 z m 267 296 b 267 297 269 298 272 298 b 285 298 296 289 306 271 l 350 191 b 353 180 356 174 359 173 l 375 165 b 375 164 374 163 371 163 l 369 163 b 365 164 362 165 360 165 l 358 165 b 351 165 344 161 337 152 l 337 153 l 338 155 b 344 166 347 173 347 176 b 347 178 346 181 344 184 l 295 268 b 294 271 286 278 272 290 l 267 295 z m 262 264 b 267 264 271 260 276 253 b 283 242 291 227 302 207 l 318 178 l 318 174 l 316 176 l 270 255 l 262 263 z m 193 179 b 193 180 194 181 196 181 b 205 181 212 174 217 159 b 221 146 223 136 223 131 b 223 130 223 130 222 130 b 221 131 220 133 220 134 b 213 152 208 163 203 168 b 196 175 193 178 193 179 z m 28 154 b 33 159 37 162 42 162 b 45 162 46 162 46 161 b 46 156 43 153 38 153 b 35 153 31 153 28 154 z m 331 134 b 331 143 333 149 336 151 l 336 150 b 334 141 333 133 332 126 b 331 129 331 131 331 134 z m 187 147 b 188 148 188 148 189 148 b 190 148 191 148 191 147 b 198 132 208 119 220 108 l 214 112 b 216 109 219 107 222 106 l 221 106 b 213 106 206 111 200 122 z m 17 132 b 8 132 4 136 4 144 l 4 146 b 12 141 16 137 17 132 z m 363 133 b 358 133 355 134 355 135 l 355 136 b 358 136 360 135 363 133 z m 479 129 l 479 132 l 480 133 b 481 131 481 128 481 123 l 481 118 b 480 122 479 126 479 129 z m 41 132 l 41 125 l 40 124 l 40 131 z m 214 110 b 213 112 211 113 208 114 l 209 114 b 209 113 211 112 214 110 z m 332 80 b 332 83 333 84 335 85 l 335 84 b 335 82 334 80 332 79 z m 483 77 b 483 78 483 80 484 82 b 485 81 485 79 485 77 l 485 76 b 484 75 483 76 483 77 z m 327 68 b 322 68 320 71 320 76 l 320 78 b 323 77 325 77 325 76 l 322 76 b 322 73 324 70 328 68 z m 37 68 b 37 71 38 73 40 74 l 40 73 b 40 70 39 68 37 68 z m 479 63 b 474 63 471 66 471 73 b 474 73 475 73 476 72 l 472 72 b 473 68 476 65 480 63 z m 34 56 b 29 56 26 59 26 65 l 26 67 l 30 65 l 27 65 b 27 62 30 59 35 56 z"},"v":{"x_min":0,"x_max":518,"ha":518,"o":"m 1 632 b 1 619 2 608 5 599 l 42 469 l 42 466 l 42 461 b 41 460 41 459 41 457 b 40 450 40 444 40 438 b 40 430 41 423 43 417 b 45 411 48 402 52 389 b 54 383 55 376 55 369 b 55 362 54 352 51 341 b 50 334 47 324 43 311 b 42 302 41 295 41 290 b 41 267 55 256 84 256 b 89 256 96 258 106 262 l 107 262 b 108 262 108 261 109 260 b 117 239 125 219 133 198 b 144 171 164 149 193 132 l 193 127 b 193 122 192 116 190 107 b 187 94 184 80 181 67 l 181 61 b 181 47 188 40 202 40 b 217 40 224 47 224 62 l 224 67 l 216 112 l 216 128 l 217 129 b 242 128 266 129 289 131 b 290 131 298 134 313 140 l 314 140 b 315 140 316 140 316 139 b 317 126 319 114 322 104 b 327 87 338 79 355 79 b 370 79 379 87 382 103 b 381 120 381 138 382 155 b 382 161 383 170 384 181 l 384 197 b 384 211 381 228 376 249 l 376 254 l 412 360 b 412 361 413 362 414 363 l 415 360 l 415 326 b 415 317 421 312 433 312 b 449 312 457 320 457 336 b 457 372 452 407 442 441 b 441 444 441 446 441 447 l 441 449 l 477 569 b 485 594 489 616 489 633 b 489 659 474 673 444 674 l 415 674 b 386 674 365 673 354 670 b 331 665 316 648 308 619 l 250 397 b 249 392 248 390 247 390 b 244 390 240 397 237 411 l 186 609 b 177 641 164 661 146 668 b 137 671 124 673 106 674 l 78 674 l 46 674 b 16 673 1 659 1 632 z m 37 609 b 37 610 37 610 38 611 b 39 610 39 609 40 608 l 74 487 l 74 480 b 71 480 68 488 64 504 l 38 601 l 38 602 b 37 605 37 608 37 609 z m 14 573 l 43 472 l 43 469 l 14 570 z m 73 425 b 73 429 74 431 76 431 b 78 431 81 425 84 412 b 86 405 87 401 87 399 b 87 396 87 395 86 395 b 77 402 73 412 73 425 z m 55 386 b 48 405 44 416 44 418 l 44 419 b 51 407 55 396 55 387 z m 434 361 b 431 361 429 367 429 379 b 433 379 435 373 435 361 z m 432 329 b 432 334 433 337 435 338 l 435 335 b 435 332 434 330 432 329 z m 428 314 b 421 314 418 318 418 325 l 418 326 b 425 323 428 319 428 314 z m 427 316 b 427 320 424 323 419 324 b 421 319 424 316 427 316 z m 70 290 b 70 291 72 294 76 298 l 78 298 b 81 298 83 296 83 293 b 83 289 81 287 76 287 b 72 287 70 288 70 290 z m 114 296 b 114 297 114 298 115 298 l 118 298 b 129 298 137 291 143 278 b 148 262 154 246 160 231 b 173 201 186 181 200 170 l 208 165 b 208 164 208 163 207 163 l 204 163 b 187 163 174 176 163 203 l 139 267 b 138 271 129 280 114 295 z m 72 260 b 53 260 43 268 43 285 l 44 285 b 55 272 64 264 73 260 z m 108 264 b 108 265 109 265 110 265 b 111 265 111 264 112 262 b 121 235 132 210 143 187 b 156 162 172 145 191 137 b 195 135 197 134 197 133 b 197 132 197 132 196 132 b 181 132 168 142 155 161 b 146 174 139 186 134 199 b 126 218 118 238 111 258 z m 322 173 b 322 174 323 175 325 175 b 339 175 346 165 346 144 l 346 141 l 345 140 b 337 155 329 165 322 172 z m 203 133 b 203 135 204 136 205 136 b 205 133 205 130 204 129 b 203 130 203 132 203 133 z m 351 106 b 348 106 346 108 346 112 l 346 127 l 347 126 b 350 123 351 117 351 106 z m 346 81 b 331 81 323 90 323 108 l 323 109 b 326 103 332 96 339 89 b 344 85 346 82 346 81 z m 193 44 b 186 44 183 48 183 56 b 189 56 193 53 194 46 l 188 52 l 188 51 l 185 54 b 186 49 190 45 195 44 l 193 44 z"},"O":{"x_min":0,"x_max":559,"ha":559,"o":"m 1 395 b 1 308 29 237 86 184 b 87 183 87 182 87 181 b 87 179 86 176 85 171 b 79 152 73 132 68 112 b 67 108 67 103 67 96 b 67 81 73 73 86 70 l 93 70 b 110 70 119 77 119 91 l 119 97 b 112 120 106 143 103 166 b 103 167 103 168 104 168 b 141 143 180 127 223 118 b 224 117 224 116 224 115 l 224 114 b 219 96 216 71 213 39 l 213 32 b 213 12 221 2 238 2 b 257 2 266 12 266 33 b 266 36 266 37 265 38 l 261 89 l 256 111 l 256 114 b 278 115 291 116 294 116 b 296 116 297 115 297 112 l 297 109 b 296 95 294 74 293 46 l 293 42 b 293 22 302 12 319 12 b 334 12 342 21 342 38 b 342 44 340 56 336 73 b 335 76 335 80 335 85 b 335 96 339 109 348 126 b 349 127 354 130 364 133 l 366 133 b 367 133 368 133 368 132 b 376 116 380 102 380 89 l 380 79 b 380 78 380 76 379 73 l 379 67 b 379 50 387 41 404 41 b 421 41 430 50 430 68 b 430 74 429 82 427 91 b 423 114 421 128 421 135 b 421 146 422 155 423 163 l 440 179 b 500 236 530 309 530 398 b 530 441 523 480 509 515 b 466 621 385 674 266 674 b 153 674 72 623 25 522 b 9 487 1 444 1 395 z m 286 533 b 286 534 288 535 291 535 b 297 535 306 530 319 520 b 320 519 320 519 321 519 b 360 503 380 477 380 442 l 380 440 l 377 443 b 365 469 352 488 338 501 b 329 509 323 513 320 513 b 317 513 314 512 311 510 b 306 516 298 523 288 531 z m 226 491 b 237 498 250 501 265 501 b 277 501 284 500 285 498 l 285 491 b 285 482 284 471 281 458 b 276 437 273 423 273 418 l 273 410 b 276 399 283 393 295 393 b 312 393 321 403 321 422 l 321 430 b 319 449 318 464 317 474 l 317 478 l 317 482 b 322 481 328 474 335 461 b 340 452 344 445 345 438 b 349 424 351 410 351 397 b 351 375 348 358 343 346 b 325 309 299 290 266 290 b 227 290 201 309 188 346 b 183 360 181 377 181 396 b 181 422 186 444 196 461 b 201 470 205 475 207 475 b 208 475 208 475 208 474 l 208 466 l 208 457 b 207 449 207 443 206 440 l 206 435 b 206 427 210 423 217 423 b 224 423 227 427 227 434 l 227 436 b 224 459 223 471 223 472 b 223 482 224 488 226 491 z m 319 484 b 326 484 334 475 343 456 b 347 447 349 439 349 433 l 349 432 b 349 433 349 433 348 434 b 341 454 331 470 319 483 z m 213 481 b 214 481 214 480 214 478 l 214 475 b 213 478 213 480 212 480 z m 293 414 b 294 418 295 420 296 421 l 296 418 b 296 415 295 414 293 414 z m 286 396 b 279 396 276 400 276 408 l 276 410 b 284 404 288 399 287 396 z m 284 399 b 282 401 281 402 280 402 b 282 399 284 398 285 397 l 285 398 b 285 399 284 401 281 403 z m 235 145 b 228 149 223 151 221 152 b 176 159 139 174 111 196 b 62 234 38 282 38 339 l 40 339 l 41 335 b 60 278 87 234 121 202 b 153 180 186 164 220 154 b 234 151 241 148 241 146 b 241 145 240 145 238 145 l 235 145 z m 88 183 b 61 208 39 239 24 275 b 17 293 13 305 13 311 l 13 312 b 26 268 51 227 88 188 b 89 186 89 185 89 184 b 89 183 89 183 88 183 z m 104 169 b 105 170 105 170 106 170 b 107 170 109 170 111 169 b 144 148 173 134 196 126 l 195 126 b 164 126 134 140 106 168 z m 398 111 l 389 141 b 387 147 385 151 382 154 b 377 161 374 164 374 165 b 383 165 390 158 393 143 b 397 123 399 113 399 112 l 399 109 z m 301 148 b 301 149 302 150 305 150 b 314 150 318 140 318 121 b 318 115 317 110 316 107 l 316 131 b 316 134 311 139 301 148 z m 368 134 b 368 135 368 136 369 136 b 376 136 380 128 380 111 l 380 109 z m 238 119 b 238 122 239 123 240 123 b 240 119 240 117 239 116 b 238 117 238 118 238 119 z m 84 72 b 75 72 70 78 69 89 l 70 89 l 84 74 l 85 73 z m 396 45 b 387 45 382 50 382 60 l 382 62 l 397 47 l 398 45 l 396 45 z m 396 46 l 391 52 l 391 51 b 391 48 393 46 396 46 z m 314 37 b 314 40 315 42 316 42 l 316 41 b 317 38 317 37 317 36 b 317 35 317 35 316 35 b 315 35 314 36 314 37 z m 312 16 b 301 16 296 22 296 33 l 296 34 l 312 17 z m 235 25 b 235 30 236 32 237 33 b 238 33 238 32 238 31 b 238 27 237 25 235 25 z m 232 4 b 221 4 216 10 216 21 l 216 23 l 232 6 z m 311 17 b 309 19 307 20 306 21 b 305 21 304 22 304 23 l 304 22 b 304 19 306 17 310 17 z m 230 7 b 229 8 226 11 221 14 b 225 9 228 7 229 7 z"},"C":{"x_min":0,"x_max":473,"ha":473,"o":"m 1 395 b 1 306 31 235 90 182 b 91 181 91 180 91 178 b 91 177 91 170 90 157 b 89 132 88 117 88 110 b 88 99 93 93 104 93 b 114 93 119 97 120 106 l 122 156 b 122 157 122 157 123 157 l 124 157 b 153 140 185 128 218 121 l 220 121 l 220 115 l 210 60 l 210 56 b 210 43 216 37 228 37 b 240 37 246 43 246 55 b 246 57 246 58 245 59 l 234 115 l 234 116 b 234 117 234 118 235 119 b 268 118 300 121 331 128 l 332 128 b 333 128 334 128 334 127 b 335 122 335 118 335 113 b 335 105 335 100 334 99 b 334 92 333 80 331 65 b 330 64 330 62 330 58 b 330 56 330 54 331 51 b 334 38 342 32 355 32 b 370 32 377 40 377 55 b 377 60 375 72 371 91 b 370 97 369 104 369 112 b 369 130 371 140 375 143 b 393 152 406 160 414 165 b 429 177 437 189 437 201 b 437 209 435 216 431 223 l 368 309 b 359 322 351 329 344 329 b 340 329 329 321 312 306 b 299 299 284 295 268 295 b 229 295 203 314 189 352 b 184 366 182 381 182 396 b 182 411 183 424 186 435 b 187 440 189 445 192 450 b 198 464 203 471 206 471 l 207 470 l 207 457 b 207 451 207 441 206 427 l 206 425 b 206 412 214 405 230 405 b 242 405 248 411 248 422 b 248 425 245 437 240 456 b 237 465 236 474 236 483 l 236 493 b 239 498 250 500 269 500 b 284 500 296 497 307 492 b 311 491 319 485 331 476 b 336 473 340 471 343 471 b 350 471 356 475 362 482 l 416 553 b 430 572 437 587 437 597 b 437 611 424 625 398 639 b 353 663 307 675 258 675 b 149 675 72 625 27 526 b 10 487 1 443 1 395 z m 293 526 b 292 527 292 527 292 528 b 300 528 308 527 315 524 b 332 518 340 511 340 504 b 340 503 339 502 338 502 l 337 502 b 326 511 311 519 293 526 z m 339 474 b 337 474 330 479 318 488 b 317 489 316 489 315 490 b 306 494 299 497 293 499 l 295 499 b 316 499 331 491 339 476 l 340 474 z m 338 475 b 337 476 334 478 329 481 b 331 478 334 476 338 475 z m 217 477 b 217 479 217 480 218 480 b 219 478 220 476 220 473 l 220 471 b 218 472 217 474 217 477 z m 305 397 b 305 379 315 370 334 370 b 336 370 338 370 341 371 b 352 373 357 381 357 394 b 357 404 353 420 345 441 b 342 449 338 457 334 465 b 334 466 333 466 332 466 b 314 452 305 429 305 397 z m 220 409 b 213 409 209 413 209 421 l 210 421 l 223 409 b 220 410 217 412 214 416 l 211 418 b 212 415 215 412 220 409 z m 327 394 b 327 397 328 398 329 399 b 330 398 331 396 331 395 b 331 394 330 393 329 393 b 328 393 327 393 327 394 z m 324 373 b 313 373 308 378 308 387 l 308 388 b 316 381 322 376 325 373 z m 320 375 b 317 380 314 382 312 382 b 315 379 317 376 320 375 z m 113 185 b 113 189 105 200 88 218 l 82 224 b 73 235 66 246 60 257 b 43 287 34 314 34 337 l 36 337 b 52 284 79 239 116 202 b 121 193 128 188 138 186 b 165 171 195 159 226 151 b 227 150 228 150 229 149 l 225 149 b 202 149 176 157 147 172 b 133 179 126 183 125 183 b 120 183 116 181 112 177 l 112 178 b 113 181 113 183 113 185 z m 92 181 b 91 181 85 187 74 199 b 68 206 61 215 53 224 b 44 237 34 254 24 276 b 17 293 13 304 13 310 l 13 311 b 28 264 54 223 91 187 b 92 186 93 184 93 181 z m 196 128 b 189 128 174 133 153 143 b 134 152 124 157 124 159 b 126 159 128 158 131 157 b 160 143 182 133 198 128 z m 351 124 b 350 127 349 131 349 135 l 349 138 b 350 138 351 135 351 129 l 351 124 z m 227 120 b 223 119 220 120 219 123 l 227 123 z m 97 96 b 94 97 91 100 90 105 l 91 105 b 92 105 93 105 94 104 l 92 104 b 92 102 94 99 97 96 z m 220 41 b 215 41 212 44 212 51 b 213 51 216 49 220 45 l 214 49 b 214 48 216 45 220 41 z m 347 35 b 337 35 332 40 332 51 l 348 35 z m 346 36 b 344 38 341 41 336 45 b 339 40 343 37 346 36 z"},"W":{"x_min":0,"x_max":742,"ha":742,"o":"m 1 625 b 1 607 2 592 5 581 l 68 313 l 68 310 b 68 306 67 303 66 300 l 66 259 b 66 255 66 248 65 239 l 65 222 l 65 205 b 67 194 74 189 87 189 b 88 189 92 190 98 191 l 100 191 b 101 191 104 184 111 169 b 117 156 120 138 120 117 l 120 104 b 119 94 118 78 115 57 l 115 49 b 115 30 123 20 140 20 b 158 20 167 29 167 47 l 167 51 b 161 78 158 97 158 108 b 158 111 158 116 159 121 b 159 122 160 122 162 122 l 164 122 b 187 121 200 120 203 120 b 230 120 248 121 257 123 b 278 127 291 141 298 165 l 352 373 b 353 380 355 383 357 384 b 359 383 360 381 360 378 l 360 377 b 359 370 358 366 358 365 l 361 352 b 365 335 367 323 367 317 b 367 310 366 303 364 297 b 361 288 356 274 350 255 b 347 244 345 234 345 223 b 345 189 357 172 382 172 b 389 172 397 176 405 185 b 406 185 406 185 407 184 b 414 159 425 140 439 129 b 443 126 445 111 445 85 b 445 84 443 73 440 53 b 439 45 438 37 438 30 b 438 11 448 1 468 1 b 487 1 496 10 496 29 b 496 31 494 42 491 62 b 490 66 490 70 490 74 b 490 99 497 114 510 119 b 511 119 521 120 540 121 b 574 123 597 145 608 186 l 664 389 b 665 392 665 393 666 393 b 671 389 675 387 678 387 b 683 387 687 389 688 394 b 692 422 694 446 694 466 b 694 475 693 483 691 490 l 691 491 l 691 492 l 710 587 b 712 597 713 610 713 625 l 713 641 b 711 657 702 667 687 672 b 682 673 669 674 648 674 b 619 674 599 672 588 667 b 565 658 551 637 544 606 l 506 416 b 506 415 505 414 504 413 b 503 413 503 414 502 417 l 459 612 b 452 643 439 663 420 670 b 413 673 402 674 387 674 l 355 674 l 326 674 b 288 673 265 655 257 619 l 215 417 b 215 416 215 415 214 415 b 213 415 212 417 211 421 l 175 612 b 169 643 157 663 138 670 b 132 672 121 673 105 674 l 75 674 l 45 674 b 16 673 1 656 1 625 z m 44 561 b 45 560 49 545 56 515 l 56 514 l 57 510 l 100 335 b 101 332 101 330 101 328 l 101 327 b 100 328 98 330 97 333 l 44 558 z m 363 419 b 363 420 365 421 368 421 b 385 421 394 412 394 393 b 394 391 393 390 392 390 l 391 390 l 364 418 b 363 418 363 418 363 419 z m 358 386 b 358 387 358 387 359 387 b 361 387 362 385 362 382 l 362 380 b 359 382 358 384 358 386 z m 363 352 b 361 354 360 356 360 359 b 362 359 363 358 363 355 l 363 352 z m 398 345 b 395 350 394 355 394 359 b 397 359 398 356 398 349 l 398 345 z m 90 217 b 90 229 94 235 102 235 b 117 235 129 225 138 206 b 145 189 151 175 156 166 b 158 163 159 161 160 160 l 160 159 l 160 157 b 149 150 142 139 139 123 b 138 124 138 124 138 125 b 138 128 139 131 140 136 l 147 158 b 147 160 147 162 146 164 b 138 184 133 196 130 201 b 122 214 113 221 104 221 b 101 221 97 219 90 216 z m 375 210 b 375 218 377 222 381 222 b 382 222 383 221 383 218 b 383 207 381 202 378 202 b 376 202 375 205 375 210 z m 412 219 b 412 220 413 221 416 221 b 428 221 436 215 441 202 b 447 186 451 177 452 175 b 453 174 459 167 470 154 b 474 149 476 144 476 139 l 476 135 b 471 114 469 98 468 87 l 466 87 b 466 88 467 101 470 126 l 470 127 b 470 134 467 141 461 147 b 452 157 446 164 445 167 b 438 186 435 195 434 196 l 413 217 b 412 218 411 218 412 219 z m 374 175 b 357 175 349 185 349 204 l 349 205 b 354 197 359 190 365 185 l 375 175 z m 80 191 b 71 191 67 196 67 205 b 72 205 77 201 82 192 b 81 191 81 191 80 191 z m 120 154 b 119 154 117 159 113 168 b 106 184 102 193 102 194 b 104 194 105 194 105 193 l 121 158 l 121 154 z m 443 127 b 436 127 428 137 419 156 b 411 173 407 184 407 187 l 410 187 b 416 166 427 147 444 130 l 444 127 z m 137 45 b 137 47 138 48 139 49 b 140 49 140 48 140 46 b 140 43 140 42 139 42 b 138 42 137 43 137 45 z m 132 23 b 123 23 118 28 118 39 l 118 40 l 133 25 l 134 23 l 132 23 z m 127 28 l 122 31 b 125 27 129 25 132 24 l 132 25 b 132 26 129 28 122 33 l 127 29 z m 463 28 b 463 31 464 33 466 33 b 466 28 465 26 464 26 b 463 26 463 27 463 28 z m 458 5 b 447 5 441 10 441 21 l 441 23 l 443 22 l 460 5 l 458 5 z m 456 7 b 455 7 455 7 455 8 b 452 10 450 12 449 13 b 452 9 454 7 456 7 z"},"A":{"x_min":0,"x_max":545,"ha":545,"o":"m 1 164 b 1 153 3 145 6 141 b 7 140 12 136 19 130 l 22 127 b 19 102 18 86 18 77 b 18 64 24 58 36 58 b 48 58 55 64 56 76 l 61 122 b 62 124 62 125 63 125 l 132 127 b 146 128 157 134 164 145 l 165 144 b 164 121 172 109 188 109 b 200 109 207 115 209 127 l 209 139 l 209 150 b 208 161 207 176 205 197 l 205 199 b 205 201 206 202 208 203 b 231 204 247 204 254 204 b 263 204 275 204 288 203 b 318 202 336 183 343 148 b 344 139 347 125 351 106 b 352 103 352 100 352 99 l 352 59 b 352 46 359 39 374 39 b 388 39 395 46 395 60 l 395 66 l 389 106 l 389 125 b 389 126 390 126 393 126 b 397 126 404 126 414 125 b 415 124 416 124 416 123 l 416 122 l 408 68 l 408 67 b 408 56 414 50 426 50 b 436 50 442 55 445 65 l 445 81 b 445 88 444 101 443 119 l 443 121 b 443 124 444 125 445 125 l 486 127 b 507 128 518 141 518 165 b 518 180 516 194 511 207 l 379 587 b 358 646 319 675 262 675 b 202 675 161 644 139 582 l 11 219 b 4 200 1 182 1 164 z m 268 479 b 268 480 269 481 272 481 b 285 481 294 470 300 448 b 304 434 306 424 306 419 l 306 416 b 305 418 305 420 304 421 b 299 433 296 442 293 449 b 290 456 286 462 279 468 b 272 475 268 478 268 479 z m 262 447 b 262 450 263 452 265 452 b 271 452 274 443 274 426 l 274 425 b 270 440 267 447 265 448 b 276 419 282 392 282 367 l 282 362 b 282 359 278 358 271 358 l 267 358 l 266 360 b 263 365 262 394 262 447 z m 248 441 b 248 442 249 443 252 445 b 253 444 254 442 254 439 b 250 439 248 440 248 441 z m 233 365 b 233 375 234 387 236 402 b 240 422 244 434 247 439 b 248 439 248 438 248 436 b 248 432 247 409 245 367 b 245 361 243 358 240 358 b 235 358 233 360 233 365 z m 310 231 l 315 231 b 340 231 356 219 365 194 b 372 174 376 162 376 157 b 376 156 376 155 375 153 b 370 142 368 134 368 127 l 368 121 b 369 118 369 115 369 113 l 369 111 l 369 108 b 367 113 366 121 366 130 b 366 135 367 146 370 163 l 370 164 b 370 178 360 195 340 214 b 335 218 326 223 311 230 z m 343 164 b 342 165 342 165 342 166 b 337 177 334 183 333 186 b 330 193 323 198 313 201 l 314 201 b 333 201 343 189 343 165 z m 27 156 b 27 161 29 164 32 164 b 39 164 43 159 43 149 b 43 140 42 131 41 124 l 41 140 b 41 143 39 146 34 149 b 29 153 27 155 27 156 z m 186 145 b 181 153 179 159 179 163 b 184 160 186 155 186 148 l 186 145 z m 423 152 b 420 152 419 153 419 156 b 422 156 424 155 425 153 b 425 152 424 152 423 152 z m 23 128 b 23 129 22 129 21 130 b 10 137 4 144 4 149 l 4 150 b 17 139 24 132 24 130 b 24 129 24 129 23 128 z m 185 130 b 185 131 185 133 186 135 b 187 134 187 133 187 132 b 187 131 186 130 185 129 z m 427 127 b 427 129 427 130 428 130 l 428 122 b 427 123 427 125 427 127 z m 180 112 b 172 112 168 116 168 124 l 168 125 b 173 122 177 117 181 112 z m 171 119 b 174 116 176 114 179 113 l 174 118 b 173 117 173 118 172 120 z m 30 61 b 23 61 20 65 20 72 b 25 72 28 70 29 65 b 26 67 24 69 22 70 l 22 69 b 22 65 25 62 31 61 z m 417 54 b 413 54 411 57 411 62 l 411 64 b 416 61 419 59 419 58 b 419 57 419 57 418 57 b 416 60 414 61 413 61 b 413 59 415 57 418 54 z m 368 41 b 359 41 355 46 355 55 l 355 56 b 364 48 368 43 368 41 z m 358 49 b 361 45 364 43 365 43 l 366 43 l 358 51 l 360 48 z"},"f":{"x_min":0,"x_max":366,"ha":366,"o":"m 1 265 b 1 252 2 230 4 201 b 6 170 14 147 28 131 l 28 125 l 28 120 b 27 99 26 86 26 82 l 26 61 b 27 48 35 42 48 42 b 61 42 69 49 70 62 b 73 84 74 104 74 121 b 75 123 75 124 76 124 l 91 124 b 92 124 93 121 94 115 l 98 53 b 99 43 105 38 118 38 b 131 38 138 44 138 57 l 138 61 b 137 65 137 71 136 79 l 136 85 b 136 104 138 117 142 124 b 142 125 145 126 150 128 b 164 134 171 146 172 163 l 175 272 b 176 293 188 304 212 304 l 218 304 l 219 303 l 224 234 b 225 222 231 216 244 216 b 257 216 263 223 263 236 l 263 242 b 262 244 262 247 262 250 b 261 252 261 257 261 264 b 261 273 262 281 264 288 b 266 298 268 304 269 305 b 296 307 311 313 315 323 b 318 330 320 343 320 363 b 321 380 321 397 320 414 b 321 420 322 425 322 430 b 322 440 320 450 317 460 b 316 465 313 473 309 484 b 308 486 308 487 308 488 l 308 509 b 308 510 312 511 319 514 b 331 519 338 530 339 549 b 340 562 340 576 340 591 b 340 604 340 617 339 628 b 337 655 317 670 279 673 b 241 674 208 675 179 675 b 143 675 116 675 98 674 b 38 672 7 638 4 572 l 1 507 z m 265 538 b 266 539 268 540 269 540 b 279 540 284 532 284 515 l 284 506 b 283 507 283 508 283 509 b 280 520 278 525 278 526 z m 232 510 b 232 512 233 513 234 513 l 234 503 b 233 504 232 506 232 510 z m 174 497 b 175 504 182 507 193 508 b 203 509 211 509 217 509 b 221 509 223 506 223 501 l 223 469 l 191 469 b 180 469 174 476 174 489 l 174 497 z m 248 497 l 248 507 l 250 509 l 261 509 l 263 508 l 263 501 b 263 479 260 468 255 468 b 250 468 248 478 248 497 z m 222 333 b 221 334 222 335 223 335 b 224 336 225 336 226 336 b 235 336 241 332 242 323 l 242 312 b 242 304 241 292 240 277 l 240 309 b 240 314 235 322 224 331 z m 241 242 b 242 241 242 238 242 235 l 241 235 z m 237 219 b 231 219 227 224 225 233 b 228 232 232 228 237 222 l 228 229 b 229 226 232 222 237 219 z m 51 126 b 46 141 43 152 40 157 b 37 162 36 171 36 184 b 37 184 37 183 38 182 b 42 172 45 166 47 164 b 52 157 55 152 55 149 b 55 145 54 137 51 126 z m 29 132 b 25 132 21 138 16 151 b 13 159 11 164 11 167 l 11 168 b 14 160 17 153 20 148 b 27 139 30 134 30 132 z m 96 153 b 96 154 97 155 99 155 b 110 155 116 146 116 128 b 116 121 115 113 114 104 b 114 124 112 136 108 140 z m 46 63 b 46 71 46 75 47 75 l 48 75 b 48 67 47 63 46 63 z m 42 45 b 33 45 29 49 29 58 l 30 58 l 42 46 z m 31 55 b 31 52 34 49 40 46 z m 108 41 b 102 41 99 45 99 53 l 101 53 l 110 43 b 107 47 104 49 102 50 b 103 47 105 45 108 42 z"},"Q":{"x_min":0,"x_max":583,"ha":583,"o":"m 0 396 b 0 339 12 287 36 240 b 37 238 37 233 37 224 b 37 214 36 206 35 199 b 34 192 31 180 28 165 b 27 158 26 153 26 149 b 26 132 34 124 49 124 b 64 124 72 133 72 151 l 72 159 b 71 164 71 171 71 181 b 70 182 70 184 70 187 b 70 189 70 190 71 191 l 72 192 l 74 190 b 105 164 132 147 156 139 b 159 136 160 123 160 102 l 160 92 b 160 87 160 79 159 69 l 159 61 b 159 43 166 34 181 34 b 198 34 206 42 206 59 b 206 69 205 89 202 118 l 202 123 l 202 126 l 203 127 b 224 124 242 122 255 122 b 284 122 314 122 343 121 b 346 120 347 113 347 101 l 347 93 b 346 86 345 76 342 63 l 342 57 b 342 43 349 36 364 36 b 378 36 385 45 385 62 b 385 69 383 83 378 103 b 377 108 376 113 376 117 b 376 119 376 120 377 121 b 399 122 426 122 458 122 l 480 122 l 481 121 l 481 118 b 481 114 481 111 480 108 l 466 56 l 464 31 b 463 11 473 1 494 1 b 512 1 521 11 521 32 b 521 40 520 50 519 61 b 518 68 516 80 514 95 b 513 101 513 107 513 114 b 513 121 514 124 516 125 b 537 130 549 138 553 147 b 556 152 557 162 557 176 l 557 208 l 557 239 b 556 262 544 273 523 274 l 522 275 l 522 278 b 522 286 523 307 525 342 b 530 362 532 383 532 405 b 532 450 524 490 508 523 b 461 624 381 674 268 674 b 154 674 73 622 24 517 b 8 482 0 442 0 396 z m 288 532 b 288 533 290 533 293 533 b 302 533 313 525 325 510 l 323 508 b 316 503 312 498 310 493 l 310 494 l 310 495 b 311 498 311 500 312 501 l 312 502 b 312 507 305 516 290 529 b 289 530 288 531 288 532 z m 331 509 b 331 510 333 510 336 510 b 348 510 360 499 373 476 b 380 461 384 449 384 439 l 384 436 b 383 437 382 438 381 440 b 369 463 352 485 331 508 z m 239 495 b 239 498 241 499 245 499 b 246 499 246 497 246 493 b 241 493 239 494 239 495 z m 258 499 l 266 499 b 280 499 287 494 287 484 b 287 475 285 459 280 436 l 280 432 b 280 424 284 419 293 416 l 299 416 b 315 416 323 422 323 434 l 323 437 b 322 448 322 454 322 457 l 322 467 b 323 472 325 475 326 475 b 345 458 355 430 355 393 b 355 375 352 359 347 344 b 333 305 307 285 268 285 b 230 285 204 305 190 344 b 185 359 182 375 182 392 b 182 428 190 454 205 470 b 220 486 232 494 239 494 b 239 493 238 489 236 481 b 235 472 234 466 234 463 b 233 458 233 452 233 446 b 233 435 239 429 250 429 b 259 429 264 434 264 443 l 264 444 l 256 497 z m 305 480 b 305 483 306 487 309 492 l 309 491 b 309 490 308 485 305 478 l 305 480 z m 327 477 b 332 477 338 470 345 456 b 350 445 353 436 353 430 b 352 431 352 431 352 432 b 345 451 336 466 327 476 z m 247 447 b 248 446 248 444 248 443 b 247 441 246 440 246 439 b 245 436 245 434 245 432 l 244 432 b 238 432 235 435 235 441 l 239 441 l 239 440 l 238 440 b 238 435 240 433 244 433 b 244 435 245 438 246 442 l 246 443 b 245 442 245 442 244 442 l 243 442 z m 293 418 b 286 418 283 421 283 428 b 290 428 293 425 293 418 z m 285 424 b 288 421 290 419 291 419 l 292 419 b 291 423 289 425 288 425 l 288 424 l 286 425 l 288 422 z m 71 244 b 62 251 53 268 46 295 b 41 310 39 323 39 332 l 39 335 b 40 334 40 333 41 332 b 50 303 60 278 70 257 b 71 253 72 250 72 247 b 72 246 72 245 71 244 z m 38 240 l 28 261 b 26 265 24 269 23 273 b 16 290 13 301 13 304 l 13 305 b 16 296 20 286 24 276 b 31 263 35 253 38 246 b 39 244 39 242 39 240 z m 509 300 b 510 301 510 302 511 302 l 512 302 b 513 296 514 288 514 278 l 514 274 l 512 273 b 511 272 505 272 494 272 l 494 275 b 498 280 503 289 509 300 z m 63 216 b 63 231 66 238 72 238 b 75 234 78 231 81 230 b 90 225 101 217 113 207 b 126 196 141 187 158 179 b 173 172 183 167 187 162 l 187 161 l 187 159 b 182 141 180 130 179 125 l 179 131 l 179 137 b 180 140 180 143 180 144 l 180 147 b 180 156 174 164 162 169 b 145 176 134 181 128 184 b 117 190 102 201 83 218 b 82 219 79 220 76 220 b 73 220 68 218 63 215 z m 72 193 b 73 194 74 194 75 194 b 76 194 77 194 78 193 b 102 172 127 155 154 143 b 158 143 160 142 160 139 b 160 138 160 138 159 137 b 158 139 156 140 154 141 b 122 154 95 172 72 193 z m 46 146 b 46 148 47 150 48 151 l 48 148 b 48 145 48 144 47 144 b 46 144 46 145 46 146 z m 41 127 b 33 127 29 132 29 142 l 30 142 l 41 131 l 42 129 b 37 134 34 137 32 137 l 31 137 l 34 134 l 33 133 b 36 130 39 128 43 127 l 41 127 z m 494 125 b 494 128 495 129 496 129 l 496 119 b 495 121 494 123 494 125 z m 358 122 l 358 126 l 359 127 l 360 113 b 359 114 358 117 358 122 z m 348 118 b 345 120 344 122 344 124 b 347 124 348 123 348 120 l 348 118 z m 179 56 b 179 59 180 61 181 63 b 182 62 182 60 182 59 b 182 58 181 56 180 54 b 179 55 179 55 179 56 z m 358 39 b 349 39 344 43 344 52 l 344 53 b 350 50 354 46 356 43 b 352 46 349 48 348 49 b 352 44 355 41 357 40 l 357 41 b 358 40 358 40 358 39 z m 174 37 b 166 37 162 42 162 51 l 162 52 l 174 40 l 174 39 b 172 42 170 44 168 45 l 168 43 l 165 48 l 165 47 b 165 43 168 40 175 37 z m 489 26 b 489 31 490 34 491 34 b 492 33 492 31 492 29 b 492 27 491 26 489 26 z m 485 5 b 476 5 470 12 467 25 l 486 5 z"},"w":{"x_min":0,"x_max":742,"ha":742,"o":"m 1 625 b 1 607 2 592 5 581 l 68 313 l 68 310 b 68 306 67 303 66 300 l 66 259 b 66 255 66 248 65 239 l 65 222 l 65 205 b 67 194 74 189 87 189 b 88 189 92 190 98 191 l 100 191 b 101 191 104 184 111 169 b 117 156 120 138 120 117 l 120 104 b 119 94 118 78 115 57 l 115 49 b 115 30 123 20 140 20 b 158 20 167 29 167 47 l 167 51 b 161 78 158 97 158 108 b 158 111 158 116 159 121 b 159 122 160 122 162 122 l 164 122 b 187 121 200 120 203 120 b 230 120 248 121 257 123 b 278 127 291 141 298 165 l 352 373 b 353 380 355 383 357 384 b 359 383 360 381 360 378 l 360 377 b 359 370 358 366 358 365 l 361 352 b 365 335 367 323 367 317 b 367 310 366 303 364 297 b 361 288 356 274 350 255 b 347 244 345 234 345 223 b 345 189 357 172 382 172 b 389 172 397 176 405 185 b 406 185 406 185 407 184 b 414 159 425 140 439 129 b 443 126 445 111 445 85 b 445 84 443 73 440 53 b 439 45 438 37 438 30 b 438 11 448 1 468 1 b 487 1 496 10 496 29 b 496 31 494 42 491 62 b 490 66 490 70 490 74 b 490 99 497 114 510 119 b 511 119 521 120 540 121 b 574 123 597 145 608 186 l 664 389 b 665 392 665 393 666 393 b 671 389 675 387 678 387 b 683 387 687 389 688 394 b 692 422 694 446 694 466 b 694 475 693 483 691 490 l 691 491 l 691 492 l 710 587 b 712 597 713 610 713 625 l 713 641 b 711 657 702 667 687 672 b 682 673 669 674 648 674 b 619 674 599 672 588 667 b 565 658 551 637 544 606 l 506 416 b 506 415 505 414 504 413 b 503 413 503 414 502 417 l 459 612 b 452 643 439 663 420 670 b 413 673 402 674 387 674 l 355 674 l 326 674 b 288 673 265 655 257 619 l 215 417 b 215 416 215 415 214 415 b 213 415 212 417 211 421 l 175 612 b 169 643 157 663 138 670 b 132 672 121 673 105 674 l 75 674 l 45 674 b 16 673 1 656 1 625 z m 44 561 b 45 560 49 545 56 515 l 56 514 l 57 510 l 100 335 b 101 332 101 330 101 328 l 101 327 b 100 328 98 330 97 333 l 44 558 z m 363 419 b 363 420 365 421 368 421 b 385 421 394 412 394 393 b 394 391 393 390 392 390 l 391 390 l 364 418 b 363 418 363 418 363 419 z m 358 386 b 358 387 358 387 359 387 b 361 387 362 385 362 382 l 362 380 b 359 382 358 384 358 386 z m 363 352 b 361 354 360 356 360 359 b 362 359 363 358 363 355 l 363 352 z m 398 345 b 395 350 394 355 394 359 b 397 359 398 356 398 349 l 398 345 z m 90 217 b 90 229 94 235 102 235 b 117 235 129 225 138 206 b 145 189 151 175 156 166 b 158 163 159 161 160 160 l 160 159 l 160 157 b 149 150 142 139 139 123 b 138 124 138 124 138 125 b 138 128 139 131 140 136 l 147 158 b 147 160 147 162 146 164 b 138 184 133 196 130 201 b 122 214 113 221 104 221 b 101 221 97 219 90 216 z m 375 210 b 375 218 377 222 381 222 b 382 222 383 221 383 218 b 383 207 381 202 378 202 b 376 202 375 205 375 210 z m 412 219 b 412 220 413 221 416 221 b 428 221 436 215 441 202 b 447 186 451 177 452 175 b 453 174 459 167 470 154 b 474 149 476 144 476 139 l 476 135 b 471 114 469 98 468 87 l 466 87 b 466 88 467 101 470 126 l 470 127 b 470 134 467 141 461 147 b 452 157 446 164 445 167 b 438 186 435 195 434 196 l 413 217 b 412 218 411 218 412 219 z m 374 175 b 357 175 349 185 349 204 l 349 205 b 354 197 359 190 365 185 l 375 175 z m 80 191 b 71 191 67 196 67 205 b 72 205 77 201 82 192 b 81 191 81 191 80 191 z m 120 154 b 119 154 117 159 113 168 b 106 184 102 193 102 194 b 104 194 105 194 105 193 l 121 158 l 121 154 z m 443 127 b 436 127 428 137 419 156 b 411 173 407 184 407 187 l 410 187 b 416 166 427 147 444 130 l 444 127 z m 137 45 b 137 47 138 48 139 49 b 140 49 140 48 140 46 b 140 43 140 42 139 42 b 138 42 137 43 137 45 z m 132 23 b 123 23 118 28 118 39 l 118 40 l 133 25 l 134 23 l 132 23 z m 127 28 l 122 31 b 125 27 129 25 132 24 l 132 25 b 132 26 129 28 122 33 l 127 29 z m 463 28 b 463 31 464 33 466 33 b 466 28 465 26 464 26 b 463 26 463 27 463 28 z m 458 5 b 447 5 441 10 441 21 l 441 23 l 443 22 l 460 5 l 458 5 z m 456 7 b 455 7 455 7 455 8 b 452 10 450 12 449 13 b 452 9 454 7 456 7 z"},"E":{"x_min":0,"x_max":384,"ha":384,"o":"m 89 673 b 36 668 8 638 5 582 l 1 511 l 1 289 l 5 222 b 7 189 20 162 43 141 b 44 140 44 140 44 139 l 44 124 l 38 62 l 38 36 b 38 21 48 14 68 14 b 85 14 94 23 95 41 l 100 125 l 101 126 b 102 127 104 127 109 127 b 120 127 126 126 127 123 b 130 110 131 99 131 89 b 132 69 132 49 131 28 b 135 11 146 2 164 2 l 171 2 b 186 5 193 15 193 30 b 193 40 191 50 188 59 b 184 70 180 81 176 91 b 174 100 173 109 173 118 l 173 124 l 175 125 l 224 125 b 225 125 226 124 226 122 b 226 110 222 90 214 62 l 214 58 b 214 45 221 38 234 38 b 249 38 257 45 257 60 l 257 62 b 256 70 255 82 254 98 l 254 102 b 254 108 254 116 255 125 b 255 126 257 126 260 126 b 274 127 288 127 302 128 b 329 130 345 139 352 155 b 355 160 356 171 356 186 l 356 211 b 356 230 356 244 355 253 b 354 269 347 280 335 285 b 332 286 320 288 298 290 b 292 291 289 300 289 317 l 289 324 l 291 326 b 312 328 325 334 330 345 b 332 351 333 361 334 376 l 334 401 l 334 426 b 333 459 318 477 288 480 b 285 481 284 489 284 502 l 284 509 l 286 511 b 313 512 330 517 337 525 b 342 530 344 543 344 564 l 344 589 l 344 615 b 344 651 325 670 286 673 b 243 674 207 675 178 675 b 150 675 120 674 89 673 z m 270 512 b 270 513 271 514 273 514 b 273 510 272 508 271 508 b 270 509 270 511 270 512 z m 259 511 b 261 511 262 510 263 509 l 263 503 b 263 487 260 479 253 479 b 250 479 245 479 239 480 b 233 484 230 493 230 507 b 230 508 230 509 231 510 z m 195 480 b 176 480 167 483 167 488 l 167 502 b 167 507 174 509 188 510 l 211 510 b 211 495 207 485 200 480 l 195 480 z m 213 354 b 213 355 214 355 217 355 b 223 355 226 352 226 346 b 222 346 218 349 213 354 z m 269 351 b 264 351 262 352 262 355 b 267 355 269 354 269 351 z m 227 332 l 228 332 l 228 322 l 227 323 z m 271 327 b 271 329 271 330 272 331 l 272 321 b 271 323 271 325 271 327 z m 195 292 b 176 292 167 295 167 301 l 167 316 b 167 321 172 323 183 324 b 192 325 199 325 206 325 b 209 325 210 324 210 322 b 210 305 208 295 203 292 l 195 292 z m 247 316 l 247 324 l 248 325 l 257 325 b 258 325 259 320 259 311 b 259 298 257 291 253 291 b 252 291 251 292 250 293 b 248 298 247 306 247 316 z m 71 135 b 70 136 70 136 70 137 b 67 146 65 153 62 156 b 45 175 37 191 37 206 l 37 212 b 38 211 38 209 39 208 b 45 192 49 183 52 180 b 67 166 75 156 75 150 b 75 145 74 140 71 135 z m 46 140 b 24 155 13 172 13 190 l 13 191 b 18 174 29 158 46 143 z m 146 134 b 145 139 142 144 136 149 b 131 153 129 156 129 157 b 142 157 149 154 149 147 b 150 129 150 118 150 114 l 150 112 z m 230 155 b 230 156 230 156 231 156 b 234 156 236 155 236 152 b 233 152 231 153 230 155 z m 239 123 b 238 124 238 126 238 130 l 239 130 z m 228 41 b 220 41 216 45 216 54 l 217 54 l 228 43 l 229 41 z m 227 42 b 226 44 223 47 218 51 b 220 46 223 43 227 42 z m 61 40 b 61 45 62 47 64 47 b 65 47 65 45 65 42 b 65 39 64 38 63 38 b 62 38 61 39 61 40 z m 156 31 b 156 34 157 36 158 36 l 159 36 b 160 36 161 34 161 29 b 161 28 160 27 159 27 b 157 27 156 28 156 31 z m 58 17 b 47 17 41 22 41 33 l 41 34 z m 153 5 b 140 5 134 12 134 25 l 134 26 b 138 20 145 13 154 6 b 154 5 154 5 155 5 l 153 5 z"},"s":{"x_min":0,"x_max":422,"ha":422,"o":"m 22 489 b 22 446 34 411 59 382 l 59 380 l 57 372 b 56 369 56 364 56 358 l 56 352 l 65 294 l 65 289 b 65 286 65 283 64 282 l 10 216 b 4 209 1 201 1 194 b 1 184 11 172 32 159 b 44 151 61 142 83 133 l 85 131 b 86 130 87 115 88 86 l 88 75 l 88 63 b 88 58 88 51 87 41 l 87 32 b 87 12 97 2 116 2 b 133 2 143 10 147 27 b 147 34 147 41 148 48 b 149 55 150 65 153 79 b 154 90 154 100 153 110 b 153 111 154 111 156 111 l 158 111 b 181 110 194 109 197 109 b 204 109 215 110 228 111 b 233 112 237 112 241 112 l 241 107 b 234 78 231 57 231 43 b 231 23 239 13 256 13 b 273 13 282 23 282 43 b 282 47 282 49 281 50 b 281 56 280 64 279 75 b 278 82 278 93 278 106 l 278 121 b 278 122 281 124 288 127 b 303 134 318 143 333 154 b 334 154 334 154 334 153 b 334 152 334 150 333 147 b 330 138 327 125 322 107 b 320 98 319 90 319 83 b 319 68 326 60 340 60 b 355 60 363 67 363 80 l 363 97 l 357 157 l 357 162 b 357 168 358 172 359 175 l 384 224 b 393 242 398 267 398 300 b 398 330 390 360 374 390 b 374 400 373 407 372 412 b 361 439 355 466 355 495 b 355 514 356 524 357 527 l 358 529 b 367 540 376 550 385 561 b 395 574 400 584 400 592 b 400 607 387 621 361 635 b 314 661 268 674 221 674 b 192 674 166 670 141 661 b 62 632 22 575 22 489 z m 229 550 b 230 551 232 551 233 551 b 251 551 260 540 260 517 l 259 517 l 260 515 b 259 516 258 516 258 517 b 248 529 238 539 229 548 b 228 548 228 549 228 550 z m 194 501 b 194 510 202 515 218 515 l 223 515 l 224 514 b 225 513 226 505 226 492 l 226 480 b 226 479 225 479 224 479 b 204 479 194 486 194 501 z m 302 516 b 316 516 323 507 323 489 b 323 487 323 486 322 485 b 317 496 310 506 302 513 z m 258 504 b 258 505 258 509 259 514 b 260 513 261 511 261 507 b 261 502 260 499 259 499 b 258 501 258 503 258 504 z m 295 482 b 296 482 296 481 296 479 b 296 478 296 477 295 476 z m 57 459 l 58 460 l 59 459 b 66 440 76 422 90 403 b 92 400 93 397 93 394 b 93 391 92 390 91 390 b 85 390 78 398 69 415 b 61 430 57 444 57 455 z m 62 382 b 58 382 52 390 43 406 b 34 423 29 435 29 441 l 29 444 b 34 429 40 416 48 405 b 57 391 62 383 62 382 z m 145 367 l 149 367 b 154 367 162 364 174 359 b 187 354 194 347 194 339 b 194 338 194 336 193 335 b 188 324 186 312 185 299 l 184 301 l 184 308 b 184 309 184 314 185 324 l 185 327 b 185 337 179 346 166 353 b 151 361 144 365 144 366 z m 90 349 l 91 348 l 91 338 l 90 339 z m 215 336 b 215 337 215 338 216 338 b 217 339 218 339 219 339 b 245 339 258 326 258 299 b 256 299 254 300 252 302 b 243 313 236 319 232 322 b 221 331 215 335 215 336 z m 166 306 b 163 319 159 326 156 327 l 140 334 l 140 335 b 157 332 166 323 166 308 l 166 306 z m 133 314 b 133 327 134 333 137 333 l 138 333 b 153 328 162 316 166 298 l 166 297 b 166 295 166 288 165 275 l 164 275 b 143 275 133 288 133 314 z m 93 310 b 92 311 91 314 91 321 l 91 327 b 92 326 93 322 93 315 l 93 310 z m 226 288 b 226 292 221 297 210 304 b 210 305 210 305 209 305 l 212 305 b 221 305 226 300 226 289 z m 211 273 b 208 281 207 291 207 304 b 218 304 224 297 224 283 b 224 275 221 271 214 271 b 213 271 212 272 211 273 z m 32 193 b 32 196 35 197 41 197 b 44 197 46 196 49 194 b 71 181 90 171 105 164 b 115 159 120 151 120 138 b 120 132 119 128 117 127 b 114 142 106 153 93 160 l 36 189 b 33 190 32 192 32 193 z m 83 134 b 71 139 59 145 48 151 b 35 157 25 164 17 171 b 8 180 3 186 3 190 l 5 190 l 10 185 b 25 169 50 153 86 136 b 87 135 88 134 88 133 b 88 131 88 130 87 131 z m 334 155 b 334 156 334 156 335 156 b 339 159 341 161 342 162 b 343 161 344 159 344 156 l 344 154 b 342 155 340 156 339 156 l 338 156 l 336 154 l 335 154 b 334 154 334 154 334 155 z m 256 119 b 256 121 256 122 257 123 b 258 122 259 120 259 115 l 259 112 b 257 113 256 116 256 119 z m 338 81 b 338 83 339 85 340 86 l 340 84 b 340 82 339 81 338 80 z m 334 63 b 326 63 322 67 322 75 l 322 76 b 327 73 331 70 334 66 l 327 71 l 327 69 l 324 72 b 325 69 329 66 335 63 z m 253 38 b 253 41 254 43 255 44 l 255 37 l 254 36 b 253 36 253 37 253 38 z m 112 29 b 112 32 113 34 115 37 b 116 36 117 35 117 32 b 116 29 115 28 114 28 b 113 28 112 28 112 29 z m 247 17 b 238 17 234 22 234 33 l 234 34 l 250 17 l 249 16 b 248 17 246 20 241 24 l 241 25 l 240 24 b 240 23 242 20 247 17 z m 107 5 b 96 6 90 12 90 21 l 90 23 l 107 6 z"},"l":{"x_min":0,"x_max":369,"ha":369,"o":"m 7 620 b 3 586 1 549 1 510 l 1 396 l 1 317 l 4 228 b 6 162 39 126 102 121 l 103 120 l 103 112 l 103 101 b 102 94 101 84 100 70 l 100 66 b 100 57 104 52 113 52 b 123 52 128 58 128 69 l 128 76 b 127 82 127 91 126 103 b 125 104 125 108 125 113 b 125 116 125 118 126 119 l 127 120 l 176 120 l 178 118 l 178 71 b 178 62 183 57 194 57 b 205 57 210 64 210 77 l 210 83 b 210 88 209 97 208 109 l 208 115 l 208 119 l 209 120 b 209 121 222 121 247 121 l 259 121 l 270 121 b 271 120 272 119 272 118 l 272 60 b 272 47 280 40 295 40 b 307 40 314 52 315 77 b 316 96 322 120 335 149 b 338 156 339 167 340 184 l 340 211 b 340 233 339 250 338 262 b 335 280 317 290 284 291 l 283 291 b 248 292 231 292 230 292 b 198 293 182 316 181 361 l 177 606 b 176 638 168 659 152 668 b 147 671 138 673 124 674 b 114 675 103 675 90 675 b 79 675 67 675 54 674 b 29 673 14 655 7 620 z m 76 154 b 50 154 37 169 37 200 l 37 205 l 38 204 b 45 182 54 168 64 163 b 72 158 76 155 76 154 z m 62 129 b 29 129 13 147 13 183 l 13 184 b 22 159 38 140 63 129 z m 275 151 b 275 152 276 153 278 153 b 289 153 295 143 295 123 l 295 117 l 294 116 b 292 129 286 141 275 151 z m 188 146 b 183 146 181 148 181 151 b 186 151 189 150 189 148 b 189 147 189 146 188 146 z m 112 123 b 112 124 113 124 114 125 l 114 119 b 113 119 112 120 112 123 z m 190 122 b 190 123 190 124 191 125 b 192 125 193 124 193 121 b 193 119 192 118 191 117 b 190 119 190 121 190 122 z m 191 75 b 191 76 191 77 192 79 l 192 73 b 191 74 191 74 191 75 z m 186 61 b 183 61 181 64 181 69 l 181 70 l 182 69 b 183 66 184 63 187 61 z m 291 60 b 291 65 292 67 293 67 l 293 59 b 292 59 291 59 291 60 z m 286 43 b 279 43 275 47 275 56 l 275 57 l 290 42 b 283 48 279 51 278 51 b 281 46 284 44 287 43 z"},"8":{"x_min":0,"x_max":1219,"ha":1219,"o":"m 690 802 l 615 972 l 537 801 l 351 781 l 489 652 l 450 471 l 615 565 l 775 471 l 739 657 l 876 781 z m 663 562 l 642 576 l 631 634 l 592 634 l 583 576 l 564 562 l 541 576 l 586 834 l 639 834 l 682 576 z m 612 774 l 598 672 l 628 672 z m 616 39 b 618 43 619 46 619 49 b 623 45 621 43 624 39 l 631 21 l 610 21 z m 363 -5 l 363 3 l 352 3 l 352 -5 z m 883 -5 l 883 1 l 852 1 l 852 58 l 844 58 l 844 -5 z m 832 -5 l 832 1 l 795 1 l 795 22 l 829 22 l 829 30 l 795 30 l 795 49 l 832 49 l 832 58 l 787 58 l 787 -5 z m 573 -5 l 573 21 l 598 58 l 589 58 l 577 39 b 573 35 571 31 570 28 b 568 29 566 33 564 39 l 552 58 l 541 58 l 565 21 l 565 -5 z m 409 -5 b 412 -2 414 -4 415 0 b 418 0 420 2 421 6 b 421 7 423 9 423 13 b 423 15 422 18 420 22 b 417 25 414 27 411 28 b 414 28 416 30 417 34 b 419 35 420 37 420 40 b 420 44 419 47 417 49 b 416 52 413 54 409 55 b 408 55 404 58 400 58 l 376 58 l 376 -5 z m 213 -5 l 226 42 b 226 45 227 47 228 49 b 228 47 228 45 229 42 l 241 -5 l 249 -5 l 267 58 l 259 58 l 249 16 b 246 11 247 7 246 3 b 246 11 244 16 241 25 l 232 58 l 222 58 l 210 15 b 210 12 209 8 208 3 b 207 7 208 11 205 16 l 196 58 l 187 58 l 205 -5 z m 130 -5 l 144 42 b 144 45 145 47 147 49 b 147 47 147 45 148 42 l 160 -5 l 168 -5 l 186 58 l 177 58 l 168 16 b 165 11 167 7 163 3 b 163 11 163 16 160 25 l 150 58 l 141 58 l 129 15 b 129 12 128 8 127 3 b 124 7 123 11 123 16 l 115 58 l 105 58 l 123 -5 z m 384 49 l 396 49 b 401 49 404 49 405 48 b 406 48 405 46 408 46 l 409 46 b 410 45 411 43 411 40 b 411 37 410 35 409 34 b 409 33 408 33 405 33 b 404 31 401 30 397 30 l 384 30 z m 294 -5 l 307 42 b 307 45 308 47 310 49 b 310 47 311 45 312 42 l 324 -5 l 331 -5 l 349 58 l 342 58 l 331 16 b 330 11 331 7 327 3 b 327 11 325 16 324 25 l 313 58 l 304 58 l 292 15 b 292 12 291 11 291 3 b 287 7 289 11 286 16 l 277 58 l 268 58 l 285 -5 z m 664 49 l 684 49 b 690 49 693 49 694 48 b 696 46 697 43 697 40 b 697 37 697 35 696 34 b 696 29 686 28 682 28 l 664 28 z m 384 22 l 408 22 b 410 22 411 21 411 19 b 413 17 414 15 414 13 l 414 7 b 412 6 410 5 409 3 l 405 3 b 404 2 402 1 400 1 l 384 1 z m 442 -5 l 442 58 l 435 58 l 435 -5 z m 985 25 b 985 34 988 41 993 45 b 996 48 1000 49 1006 49 b 1011 49 1015 49 1018 48 b 1021 47 1024 44 1026 39 b 1027 36 1027 32 1027 27 b 1027 17 1025 10 1021 7 b 1018 3 1013 1 1006 1 b 990 1 985 10 985 25 z m 976 25 b 976 20 978 14 981 9 b 982 5 986 1 990 -3 b 995 -6 1001 -6 1006 -6 b 1012 -6 1017 -5 1021 -3 b 1033 6 1035 13 1035 27 b 1035 35 1034 40 1033 42 b 1029 47 1028 51 1021 54 b 1017 55 1013 58 1006 58 b 996 58 989 55 985 49 b 979 44 976 36 976 25 z m 600 -5 l 609 13 l 634 13 l 642 -5 l 651 -5 l 625 58 l 616 58 l 592 -5 z m 495 -5 l 495 1 l 466 1 l 466 58 l 459 58 l 459 -5 z m 903 -5 l 903 3 l 892 3 l 892 -5 z m 766 19 l 766 7 b 765 6 763 7 759 3 b 756 2 752 1 748 1 b 743 1 739 2 736 3 b 735 4 733 7 729 13 b 727 15 726 20 726 27 b 726 31 727 35 727 39 b 730 42 732 44 732 45 b 734 47 736 48 739 49 l 756 49 b 760 48 762 47 762 45 b 765 42 766 40 766 39 l 774 40 b 773 43 771 46 768 49 b 767 52 764 54 760 55 b 757 57 753 58 748 58 b 743 58 736 55 732 54 b 727 52 723 48 721 42 b 720 35 717 33 717 25 b 717 20 720 14 721 9 b 724 2 728 1 733 -3 b 737 -5 742 -6 748 -6 b 752 -6 758 -5 762 -5 b 766 -4 770 -1 774 3 l 774 27 l 748 27 l 748 19 z m 664 -5 l 664 22 l 678 22 b 679 22 678 21 681 21 l 682 21 b 685 18 687 20 687 16 b 688 15 689 11 693 7 l 702 -5 l 712 -5 l 700 10 b 696 14 697 17 694 21 b 693 21 692 22 688 22 b 695 26 699 27 702 28 b 705 31 706 35 706 40 b 706 44 705 47 703 49 b 702 52 700 54 697 55 b 693 55 689 58 684 58 l 657 58 l 657 -5 z m 544 -5 l 544 1 l 514 1 l 514 58 l 505 58 l 505 -5 z m 961 16 b 959 8 952 1 943 1 b 938 1 934 2 931 3 b 930 7 927 9 927 13 b 924 16 922 21 922 27 b 922 31 924 35 924 39 b 928 43 927 45 931 48 b 933 49 937 49 943 49 b 948 49 952 49 954 48 b 958 46 960 43 960 39 l 969 40 b 966 47 964 50 960 54 b 956 55 950 58 943 58 b 938 58 935 55 928 54 b 926 53 923 50 918 45 b 916 37 915 31 915 27 b 915 23 916 17 918 9 b 922 5 923 1 928 -3 b 932 -5 937 -6 943 -6 b 950 -6 956 -4 960 0 b 964 2 967 7 969 15 z m 1054 -5 l 1054 48 l 1072 -5 l 1080 -5 l 1098 46 l 1098 -5 l 1105 -5 l 1105 58 l 1093 58 l 1080 13 b 1078 7 1077 4 1077 3 b 1077 7 1074 9 1074 13 l 1059 58 l 1047 58 l 1047 -5 z m 616 39 b 618 43 619 46 619 49 b 623 45 621 43 624 39 l 631 21 l 610 21 z m 363 -5 l 363 3 l 352 3 l 352 -5 z m 883 -5 l 883 1 l 852 1 l 852 58 l 844 58 l 844 -5 z m 832 -5 l 832 1 l 795 1 l 795 22 l 829 22 l 829 30 l 795 30 l 795 49 l 832 49 l 832 58 l 787 58 l 787 -5 z m 573 -5 l 573 21 l 598 58 l 589 58 l 577 39 b 573 35 571 31 570 28 b 568 29 566 33 564 39 l 552 58 l 541 58 l 565 21 l 565 -5 z m 409 -5 b 412 -2 414 -4 415 0 b 418 0 420 2 421 6 b 421 7 423 9 423 13 b 423 15 422 18 420 22 b 417 25 414 27 411 28 b 414 28 416 30 417 34 b 419 35 420 37 420 40 b 420 44 419 47 417 49 b 416 52 413 54 409 55 b 408 55 404 58 400 58 l 376 58 l 376 -5 z m 213 -5 l 226 42 b 226 45 227 47 228 49 b 228 47 228 45 229 42 l 241 -5 l 249 -5 l 267 58 l 259 58 l 249 16 b 246 11 247 7 246 3 b 246 11 244 16 241 25 l 232 58 l 222 58 l 210 15 b 210 12 209 8 208 3 b 207 7 208 11 205 16 l 196 58 l 187 58 l 205 -5 z m 130 -5 l 144 42 b 144 45 145 47 147 49 b 147 47 147 45 148 42 l 160 -5 l 168 -5 l 186 58 l 177 58 l 168 16 b 165 11 167 7 163 3 b 163 11 163 16 160 25 l 150 58 l 141 58 l 129 15 b 129 12 128 8 127 3 b 124 7 123 11 123 16 l 115 58 l 105 58 l 123 -5 z m 384 49 l 396 49 b 401 49 404 49 405 48 b 406 48 405 46 408 46 l 409 46 b 410 45 411 43 411 40 b 411 37 410 35 409 34 b 409 33 408 33 405 33 b 404 31 401 30 397 30 l 384 30 z m 294 -5 l 307 42 b 307 45 308 47 310 49 b 310 47 311 45 312 42 l 324 -5 l 331 -5 l 349 58 l 342 58 l 331 16 b 330 11 331 7 327 3 b 327 11 325 16 324 25 l 313 58 l 304 58 l 292 15 b 292 12 291 11 291 3 b 287 7 289 11 286 16 l 277 58 l 268 58 l 285 -5 z m 664 49 l 684 49 b 690 49 693 49 694 48 b 696 46 697 43 697 40 b 697 37 697 35 696 34 b 696 29 686 28 682 28 l 664 28 z m 384 22 l 408 22 b 410 22 411 21 411 19 b 413 17 414 15 414 13 l 414 7 b 412 6 410 5 409 3 l 405 3 b 404 2 402 1 400 1 l 384 1 z m 442 -5 l 442 58 l 435 58 l 435 -5 z m 985 25 b 985 34 988 41 993 45 b 996 48 1000 49 1006 49 b 1011 49 1015 49 1018 48 b 1021 47 1024 44 1026 39 b 1027 36 1027 32 1027 27 b 1027 17 1025 10 1021 7 b 1018 3 1013 1 1006 1 b 990 1 985 10 985 25 z m 976 25 b 976 20 978 14 981 9 b 982 5 986 1 990 -3 b 995 -6 1001 -6 1006 -6 b 1012 -6 1017 -5 1021 -3 b 1033 6 1035 13 1035 27 b 1035 35 1034 40 1033 42 b 1029 47 1028 51 1021 54 b 1017 55 1013 58 1006 58 b 996 58 989 55 985 49 b 979 44 976 36 976 25 z m 600 -5 l 609 13 l 634 13 l 642 -5 l 651 -5 l 625 58 l 616 58 l 592 -5 z m 495 -5 l 495 1 l 466 1 l 466 58 l 459 58 l 459 -5 z m 903 -5 l 903 3 l 892 3 l 892 -5 z m 766 19 l 766 7 b 765 6 763 7 759 3 b 756 2 752 1 748 1 b 743 1 739 2 736 3 b 735 4 733 7 729 13 b 727 15 726 20 726 27 b 726 31 727 35 727 39 b 730 42 732 44 732 45 b 734 47 736 48 739 49 l 756 49 b 760 48 762 47 762 45 b 765 42 766 40 766 39 l 774 40 b 773 43 771 46 768 49 b 767 52 764 54 760 55 b 757 57 753 58 748 58 b 743 58 736 55 732 54 b 727 52 723 48 721 42 b 720 35 717 33 717 25 b 717 20 720 14 721 9 b 724 2 728 1 733 -3 b 737 -5 742 -6 748 -6 b 752 -6 758 -5 762 -5 b 766 -4 770 -1 774 3 l 774 27 l 748 27 l 748 19 z m 664 -5 l 664 22 l 678 22 b 679 22 678 21 681 21 l 682 21 b 685 18 687 20 687 16 b 688 15 689 11 693 7 l 702 -5 l 712 -5 l 700 10 b 696 14 697 17 694 21 b 693 21 692 22 688 22 b 695 26 699 27 702 28 b 705 31 706 35 706 40 b 706 44 705 47 703 49 b 702 52 700 54 697 55 b 693 55 689 58 684 58 l 657 58 l 657 -5 z m 544 -5 l 544 1 l 514 1 l 514 58 l 505 58 l 505 -5 z m 961 16 b 959 8 952 1 943 1 b 938 1 934 2 931 3 b 930 7 927 9 927 13 b 924 16 922 21 922 27 b 922 31 924 35 924 39 b 928 43 927 45 931 48 b 933 49 937 49 943 49 b 948 49 952 49 954 48 b 958 46 960 43 960 39 l 969 40 b 966 47 964 50 960 54 b 956 55 950 58 943 58 b 938 58 935 55 928 54 b 926 53 923 50 918 45 b 916 37 915 31 915 27 b 915 23 916 17 918 9 b 922 5 923 1 928 -3 b 932 -5 937 -6 943 -6 b 950 -6 956 -4 960 0 b 964 2 967 7 969 15 z m 1054 -5 l 1054 48 l 1072 -5 l 1080 -5 l 1098 46 l 1098 -5 l 1105 -5 l 1105 58 l 1093 58 l 1080 13 b 1078 7 1077 4 1077 3 b 1077 7 1074 9 1074 13 l 1059 58 l 1047 58 l 1047 -5 z m 616 39 b 618 43 619 46 619 49 b 623 45 621 43 624 39 l 631 21 l 610 21 z m 363 -5 l 363 3 l 352 3 l 352 -5 z m 883 -5 l 883 1 l 852 1 l 852 58 l 844 58 l 844 -5 z m 832 -5 l 832 1 l 795 1 l 795 22 l 829 22 l 829 30 l 795 30 l 795 49 l 832 49 l 832 58 l 787 58 l 787 -5 z m 573 -5 l 573 21 l 598 58 l 589 58 l 577 39 b 573 35 571 31 570 28 b 568 29 566 33 564 39 l 552 58 l 541 58 l 565 21 l 565 -5 z m 409 -5 b 412 -2 414 -4 415 0 b 418 0 420 2 421 6 b 421 7 423 9 423 13 b 423 15 422 18 420 22 b 417 25 414 27 411 28 b 414 28 416 30 417 34 b 419 35 420 37 420 40 b 420 44 419 47 417 49 b 416 52 413 54 409 55 b 408 55 404 58 400 58 l 376 58 l 376 -5 z m 213 -5 l 226 42 b 226 45 227 47 228 49 b 228 47 228 45 229 42 l 241 -5 l 249 -5 l 267 58 l 259 58 l 249 16 b 246 11 247 7 246 3 b 246 11 244 16 241 25 l 232 58 l 222 58 l 210 15 b 210 12 209 8 208 3 b 207 7 208 11 205 16 l 196 58 l 187 58 l 205 -5 z m 130 -5 l 144 42 b 144 45 145 47 147 49 b 147 47 147 45 148 42 l 160 -5 l 168 -5 l 186 58 l 177 58 l 168 16 b 165 11 167 7 163 3 b 163 11 163 16 160 25 l 150 58 l 141 58 l 129 15 b 129 12 128 8 127 3 b 124 7 123 11 123 16 l 115 58 l 105 58 l 123 -5 z m 384 49 l 396 49 b 401 49 404 49 405 48 b 406 48 405 46 408 46 l 409 46 b 410 45 411 43 411 40 b 411 37 410 35 409 34 b 409 33 408 33 405 33 b 404 31 401 30 397 30 l 384 30 z m 294 -5 l 307 42 b 307 45 308 47 310 49 b 310 47 311 45 312 42 l 324 -5 l 331 -5 l 349 58 l 342 58 l 331 16 b 330 11 331 7 327 3 b 327 11 325 16 324 25 l 313 58 l 304 58 l 292 15 b 292 12 291 11 291 3 b 287 7 289 11 286 16 l 277 58 l 268 58 l 285 -5 z m 664 49 l 684 49 b 690 49 693 49 694 48 b 696 46 697 43 697 40 b 697 37 697 35 696 34 b 696 29 686 28 682 28 l 664 28 z m 384 22 l 408 22 b 410 22 411 21 411 19 b 413 17 414 15 414 13 l 414 7 b 412 6 410 5 409 3 l 405 3 b 404 2 402 1 400 1 l 384 1 z m 442 -5 l 442 58 l 435 58 l 435 -5 z m 985 25 b 985 34 988 41 993 45 b 996 48 1000 49 1006 49 b 1011 49 1015 49 1018 48 b 1021 47 1024 44 1026 39 b 1027 36 1027 32 1027 27 b 1027 17 1025 10 1021 7 b 1018 3 1013 1 1006 1 b 990 1 985 10 985 25 z m 976 25 b 976 20 978 14 981 9 b 982 5 986 1 990 -3 b 995 -6 1001 -6 1006 -6 b 1012 -6 1017 -5 1021 -3 b 1033 6 1035 13 1035 27 b 1035 35 1034 40 1033 42 b 1029 47 1028 51 1021 54 b 1017 55 1013 58 1006 58 b 996 58 989 55 985 49 b 979 44 976 36 976 25 z m 600 -5 l 609 13 l 634 13 l 642 -5 l 651 -5 l 625 58 l 616 58 l 592 -5 z m 495 -5 l 495 1 l 466 1 l 466 58 l 459 58 l 459 -5 z m 903 -5 l 903 3 l 892 3 l 892 -5 z m 766 19 l 766 7 b 765 6 763 7 759 3 b 756 2 752 1 748 1 b 743 1 739 2 736 3 b 735 4 733 7 729 13 b 727 15 726 20 726 27 b 726 31 727 35 727 39 b 730 42 732 44 732 45 b 734 47 736 48 739 49 l 756 49 b 760 48 762 47 762 45 b 765 42 766 40 766 39 l 774 40 b 773 43 771 46 768 49 b 767 52 764 54 760 55 b 757 57 753 58 748 58 b 743 58 736 55 732 54 b 727 52 723 48 721 42 b 720 35 717 33 717 25 b 717 20 720 14 721 9 b 724 2 728 1 733 -3 b 737 -5 742 -6 748 -6 b 752 -6 758 -5 762 -5 b 766 -4 770 -1 774 3 l 774 27 l 748 27 l 748 19 z m 664 -5 l 664 22 l 678 22 b 679 22 678 21 681 21 l 682 21 b 685 18 687 20 687 16 b 688 15 689 11 693 7 l 702 -5 l 712 -5 l 700 10 b 696 14 697 17 694 21 b 693 21 692 22 688 22 b 695 26 699 27 702 28 b 705 31 706 35 706 40 b 706 44 705 47 703 49 b 702 52 700 54 697 55 b 693 55 689 58 684 58 l 657 58 l 657 -5 z m 544 -5 l 544 1 l 514 1 l 514 58 l 505 58 l 505 -5 z m 961 16 b 959 8 952 1 943 1 b 938 1 934 2 931 3 b 930 7 927 9 927 13 b 924 16 922 21 922 27 b 922 31 924 35 924 39 b 928 43 927 45 931 48 b 933 49 937 49 943 49 b 948 49 952 49 954 48 b 958 46 960 43 960 39 l 969 40 b 966 47 964 50 960 54 b 956 55 950 58 943 58 b 938 58 935 55 928 54 b 926 53 923 50 918 45 b 916 37 915 31 915 27 b 915 23 916 17 918 9 b 922 5 923 1 928 -3 b 932 -5 937 -6 943 -6 b 950 -6 956 -4 960 0 b 964 2 967 7 969 15 z m 1054 -5 l 1054 48 l 1072 -5 l 1080 -5 l 1098 46 l 1098 -5 l 1105 -5 l 1105 58 l 1093 58 l 1080 13 b 1078 7 1077 4 1077 3 b 1077 7 1074 9 1074 13 l 1059 58 l 1047 58 l 1047 -5 z m 175 111 b 173 97 161 85 147 85 b 141 85 135 87 130 91 b 126 93 123 98 121 105 b 118 109 117 115 117 124 b 117 133 117 140 118 144 b 120 149 124 153 130 157 b 134 161 140 163 148 163 b 154 163 159 161 163 157 b 166 156 170 152 174 144 l 186 145 b 183 156 178 163 171 165 b 167 170 159 172 148 172 b 139 172 131 170 124 166 b 117 163 112 158 109 151 b 105 144 103 135 103 124 b 103 114 105 106 109 99 b 110 93 115 87 123 81 b 131 77 139 75 148 75 b 157 75 166 78 174 84 b 181 90 185 97 187 106 z m 199 123 b 199 114 201 106 205 99 b 208 91 213 85 220 81 b 228 77 235 75 244 75 b 251 75 259 77 267 81 b 274 85 280 91 285 99 b 289 107 291 115 291 124 b 291 131 289 140 285 150 b 280 158 274 163 268 166 b 261 170 253 172 244 172 b 232 172 221 168 213 159 b 202 151 199 139 199 123 z m 213 123 b 213 138 216 148 222 153 b 229 160 236 163 244 163 b 252 163 258 161 261 157 b 267 155 271 151 273 144 b 274 137 277 132 277 124 b 277 113 274 104 267 97 b 262 89 254 85 244 85 b 235 85 227 88 220 94 b 215 101 213 111 213 123 z m 318 78 l 318 157 l 345 78 l 357 78 l 384 156 l 384 78 l 396 78 l 396 171 l 381 171 l 357 106 b 355 98 353 93 351 91 b 351 94 349 99 346 105 l 324 171 l 306 171 l 306 78 z m 429 78 l 429 117 l 453 117 b 467 117 476 119 481 124 b 486 131 489 138 489 144 b 489 149 487 153 486 157 b 482 162 479 165 478 166 b 475 169 471 171 466 171 l 417 171 l 417 78 z m 429 162 l 453 162 b 459 162 462 161 463 159 b 473 159 475 152 475 144 b 475 137 473 133 469 132 b 468 128 463 126 454 126 l 429 126 z m 564 78 l 564 87 l 517 87 l 517 171 l 505 171 l 505 78 z m 649 78 l 649 87 l 591 87 l 591 120 l 643 120 l 643 132 l 591 132 l 591 162 l 648 162 l 648 171 l 579 171 l 579 78 z m 703 78 l 703 162 l 735 162 l 735 171 l 658 171 l 658 162 l 690 162 l 690 78 z m 819 78 l 819 87 l 760 87 l 760 120 l 813 120 l 813 132 l 760 132 l 760 162 l 817 162 l 817 171 l 748 171 l 748 78 z m 870 106 b 870 100 871 95 873 91 b 881 79 895 75 909 75 b 917 75 923 78 928 79 b 932 81 936 84 940 88 b 942 91 943 96 943 103 b 943 109 942 114 940 117 b 936 121 935 123 928 126 b 924 127 918 129 907 132 b 895 137 889 139 889 139 b 886 141 885 144 885 147 b 885 151 886 154 889 157 b 891 160 897 162 907 162 b 914 162 919 160 922 157 b 925 156 928 152 930 144 l 942 145 b 942 151 940 156 936 159 b 933 164 929 165 924 169 b 920 171 914 172 907 172 b 897 172 891 172 889 171 b 884 167 880 166 877 162 b 873 158 871 153 871 147 b 871 143 872 139 876 136 b 878 131 881 128 885 126 b 889 123 895 124 904 120 b 914 118 920 117 921 117 b 925 113 927 112 930 111 b 931 109 931 106 931 103 b 931 97 930 88 922 88 b 918 87 913 87 909 87 b 902 87 897 87 895 88 b 890 90 887 93 885 97 b 883 99 882 103 882 108 z m 1032 78 l 1032 87 l 975 87 l 975 120 l 1027 120 l 1027 132 l 975 132 l 975 162 l 1029 162 l 1029 171 l 961 171 l 961 78 z m 1086 78 l 1086 162 l 1117 162 l 1117 171 l 1044 171 l 1044 162 l 1074 162 l 1074 78 z m 127 190 l 127 229 l 150 229 b 165 229 174 232 177 237 b 183 243 186 250 186 259 b 186 264 185 268 183 270 b 180 274 178 279 175 280 b 169 282 165 283 163 283 l 112 283 l 112 190 z m 127 274 l 150 274 b 157 274 161 274 162 273 b 164 273 166 271 169 268 b 172 264 174 260 174 256 b 174 252 172 248 168 244 b 165 242 159 241 150 241 l 127 241 z m 271 190 l 271 202 l 214 202 l 214 234 l 265 234 l 265 244 l 214 244 l 214 274 l 268 274 l 268 283 l 201 283 l 201 190 z m 303 190 l 303 234 l 316 234 b 320 234 323 233 324 231 b 326 231 328 230 330 229 b 331 229 332 226 336 223 b 337 219 342 215 343 210 l 357 190 l 372 190 l 355 216 b 353 220 350 224 345 229 b 342 232 341 230 337 234 b 357 238 364 246 364 259 b 364 261 363 266 361 274 b 359 277 356 280 351 282 b 347 283 340 283 331 283 l 288 283 l 288 190 z m 303 274 l 331 274 b 341 274 351 271 351 259 b 351 255 350 252 349 250 b 347 249 345 247 342 244 b 340 243 335 243 327 243 l 303 243 z m 381 222 b 381 214 381 209 384 204 b 388 197 392 196 397 192 b 405 190 413 189 420 189 b 425 189 431 190 439 192 b 443 196 446 197 450 204 b 453 208 454 212 454 217 b 454 223 453 228 450 231 b 447 235 443 237 439 241 b 433 241 426 243 417 247 b 407 249 401 251 400 253 b 397 254 396 257 396 261 b 396 265 397 268 400 270 b 403 274 409 276 417 276 b 424 276 429 274 433 270 b 436 268 439 263 441 256 l 453 259 b 453 262 451 267 447 273 b 442 283 427 286 417 286 b 408 286 402 285 400 283 b 393 281 389 278 388 274 b 384 270 384 265 384 261 b 384 256 384 252 385 249 b 394 240 402 235 415 234 b 423 230 429 232 430 229 b 434 227 438 225 441 223 b 442 222 442 220 442 216 b 442 213 441 211 441 208 b 440 206 436 204 430 202 b 429 201 424 201 420 201 b 416 201 411 202 405 204 b 401 204 397 207 396 210 b 393 214 391 218 391 222 z m 468 237 b 468 227 470 219 474 214 b 475 207 480 201 489 196 b 496 191 504 189 513 189 b 521 189 529 191 537 195 b 543 199 548 204 552 211 b 556 219 558 228 558 237 b 558 247 556 255 552 262 b 548 270 545 276 537 280 b 526 284 521 286 513 286 b 500 286 489 282 480 273 b 472 263 468 251 468 237 z m 480 237 b 480 251 483 261 489 267 b 498 272 502 276 513 276 b 520 276 526 274 531 270 b 534 268 537 264 540 259 b 544 254 544 245 544 237 b 544 226 542 217 537 210 b 531 204 523 201 513 201 b 493 201 480 213 480 237 z m 585 190 l 585 264 l 636 190 l 648 190 l 648 283 l 636 283 l 636 211 l 586 283 l 573 283 l 573 190 z m 670 190 l 682 220 l 721 220 l 732 190 l 747 190 l 708 283 l 694 283 l 658 190 z m 696 256 b 697 263 700 269 700 274 b 703 270 704 263 708 255 l 717 229 l 684 229 z m 814 190 l 814 202 l 768 202 l 768 283 l 754 283 l 754 190 z m 922 231 b 922 218 920 209 916 205 b 911 202 905 201 897 201 b 890 201 887 201 883 204 b 880 205 878 207 876 211 b 874 214 873 221 873 231 l 873 283 l 862 283 l 862 231 b 862 218 863 210 864 208 b 868 203 872 196 877 195 b 881 191 888 189 898 189 b 908 189 916 191 921 195 b 926 198 929 202 931 208 b 933 212 934 220 934 231 l 934 283 l 922 283 z m 951 222 b 951 214 953 209 957 204 b 961 197 966 196 970 192 b 977 189 982 189 993 189 b 998 189 1003 190 1009 192 b 1016 196 1017 197 1021 204 b 1024 207 1026 211 1026 217 b 1026 224 1024 229 1021 231 b 1020 235 1016 237 1009 241 b 1006 241 999 243 988 247 b 968 251 967 254 967 261 b 967 266 969 269 973 270 b 974 274 979 276 988 276 b 996 276 1002 274 1005 270 b 1009 267 1008 263 1012 256 l 1024 259 b 1024 263 1021 269 1020 273 b 1017 277 1012 280 1006 283 b 1002 287 995 286 988 286 b 980 286 974 285 970 283 b 964 281 961 278 960 274 b 957 269 955 265 955 261 b 955 256 957 252 960 249 b 961 245 964 242 969 240 b 970 236 979 235 987 234 b 995 230 1001 232 1005 229 b 1009 228 1008 226 1012 223 b 1013 222 1014 220 1014 216 b 1014 210 1011 205 1005 202 b 1002 201 997 201 990 201 b 987 201 982 202 976 204 b 972 204 970 207 967 210 b 966 214 963 218 963 222 z m 1113 190 l 1113 202 l 1057 202 l 1057 234 l 1107 234 l 1107 244 l 1057 244 l 1057 274 l 1111 274 l 1111 283 l 1044 283 l 1044 190 z m 307 388 b 307 364 271 346 250 345 b 245 342 236 343 232 343 b 223 344 216 346 210 348 b 219 353 226 361 234 372 l 258 397 l 267 408 b 275 408 281 406 285 406 b 300 404 307 398 307 388 z m 324 433 b 324 428 300 412 294 412 l 268 408 b 270 412 272 415 274 417 l 291 432 b 306 437 314 439 316 439 b 321 439 324 437 324 433 z m 342 460 b 339 462 335 463 330 463 l 324 463 b 311 467 302 469 289 469 b 274 469 260 464 246 454 b 233 443 226 432 226 421 b 226 415 229 410 235 406 b 235 407 235 408 234 409 b 231 412 229 416 229 420 b 229 448 275 464 298 466 b 303 466 310 465 319 462 b 299 456 274 435 243 400 l 225 379 b 226 382 226 386 226 391 l 226 393 b 222 386 223 380 219 376 b 215 372 211 368 207 363 b 207 362 203 359 195 354 b 180 363 172 374 172 387 b 172 394 175 400 181 406 b 183 410 185 412 187 412 l 190 417 b 176 407 168 395 166 382 b 166 368 172 357 183 349 b 175 345 170 343 162 343 b 158 343 155 345 148 346 b 141 348 136 352 132 358 b 128 365 126 370 126 379 b 126 389 130 401 139 415 b 149 427 159 436 169 441 b 170 443 176 446 186 450 b 193 454 199 456 205 456 b 210 456 215 454 220 451 b 216 455 209 457 198 457 b 187 456 177 453 166 444 b 149 433 137 420 130 405 b 126 394 124 389 124 381 b 124 367 129 356 139 349 b 145 343 154 340 165 340 b 173 340 180 342 187 346 l 187 345 b 182 341 176 339 168 339 l 163 339 b 167 338 172 336 178 334 l 181 334 b 186 334 192 336 198 340 b 205 337 216 335 224 335 b 230 335 238 337 247 339 b 271 341 321 363 321 391 b 321 401 312 407 294 409 b 317 414 331 421 336 430 l 336 436 b 336 445 328 445 321 445 b 317 445 314 444 310 444 b 306 441 301 440 297 436 b 310 449 321 457 331 459 b 335 459 335 457 339 457 b 342 457 343 458 343 460 z m 346 363 b 342 359 340 358 339 357 b 332 347 326 342 321 342 b 317 342 315 343 315 346 b 315 349 318 355 324 364 l 334 375 b 340 382 343 387 343 391 b 343 392 342 393 339 393 l 334 393 b 334 391 333 388 330 385 l 325 379 l 324 379 b 317 372 312 369 309 369 b 310 368 310 367 310 367 b 313 367 315 368 316 369 l 318 369 b 312 361 309 354 309 349 b 309 343 311 340 316 340 b 321 340 327 342 334 346 b 341 353 345 359 346 363 z m 354 405 b 354 407 354 409 354 411 l 346 414 l 346 411 b 344 404 340 400 333 400 l 328 400 b 332 397 336 396 339 396 b 345 396 350 399 354 405 z m 406 433 b 406 436 405 439 402 441 b 400 435 397 430 394 426 l 385 417 l 367 394 b 347 369 337 354 337 348 b 337 343 340 340 346 339 b 356 339 375 350 375 361 b 372 357 370 358 369 355 b 362 345 355 340 349 340 b 346 340 345 342 345 345 b 345 351 349 359 358 370 l 360 370 b 391 407 406 428 406 433 z m 432 433 b 432 436 430 439 427 441 b 426 437 423 432 418 426 l 409 417 l 391 394 b 371 369 361 354 361 348 b 361 343 364 340 370 339 b 381 339 398 350 400 361 l 394 355 b 385 345 379 340 375 340 b 371 340 369 342 369 345 b 369 350 374 358 384 370 b 416 408 432 429 432 433 z m 387 309 b 380 302 376 298 372 294 b 368 293 364 292 361 292 b 357 292 355 294 355 298 b 355 300 359 306 366 315 b 375 324 387 330 403 333 z m 447 430 b 444 425 440 419 436 411 l 418 394 b 397 375 387 360 387 348 b 387 343 389 340 394 340 b 398 340 404 340 412 348 l 403 334 l 399 334 b 396 334 394 333 393 333 b 382 332 368 325 351 313 l 361 315 l 360 313 b 356 309 355 304 352 303 b 350 300 350 298 350 295 b 350 292 351 290 355 289 b 358 285 363 283 369 283 b 376 285 382 289 388 295 l 406 318 b 413 327 420 332 424 336 l 426 337 b 418 333 412 330 409 328 l 423 346 l 435 366 b 440 374 442 379 442 381 b 442 384 441 386 439 388 l 439 397 b 433 375 423 358 408 346 b 404 344 401 343 400 343 b 397 343 396 345 396 348 b 396 353 399 360 405 369 b 404 366 403 364 403 362 b 403 361 403 361 403 360 b 403 362 404 364 406 366 b 413 375 419 382 426 390 b 426 391 427 390 427 393 b 438 404 445 416 447 430 z m 636 450 b 620 444 601 430 579 408 b 559 420 543 426 531 427 b 553 445 573 456 603 456 b 607 456 612 455 618 453 z m 627 420 b 616 408 608 398 604 393 l 589 402 l 600 412 b 612 424 619 431 622 433 b 633 444 641 444 649 447 z m 663 475 l 661 475 b 659 465 656 457 652 450 l 651 451 l 642 451 l 624 456 b 614 458 606 459 601 459 b 590 459 582 458 577 457 b 556 454 539 445 525 429 b 499 429 469 415 469 385 b 469 376 475 366 487 354 l 484 357 b 476 366 475 374 475 385 b 475 397 483 406 499 412 b 502 414 509 416 519 418 b 518 416 517 414 517 411 b 517 405 521 400 528 396 b 524 402 521 405 520 405 b 520 410 521 414 523 418 l 525 418 b 544 418 561 414 576 405 l 547 375 b 522 348 499 334 478 333 b 459 333 442 347 442 367 b 442 378 447 391 456 405 b 464 414 473 422 484 430 b 499 439 512 444 522 444 b 529 444 533 443 535 441 l 537 441 b 533 445 526 447 516 447 b 504 444 493 444 481 433 b 464 422 453 409 447 393 b 443 388 441 380 441 370 b 441 356 446 346 456 339 l 454 339 b 461 334 470 331 481 331 b 492 331 502 333 510 337 b 499 327 496 327 483 327 b 481 327 480 327 480 327 b 486 324 490 322 493 322 l 498 322 b 510 322 524 330 540 346 b 556 366 566 377 573 385 l 586 399 l 601 391 b 591 376 579 359 579 340 b 579 332 583 328 591 328 b 597 328 606 333 618 342 b 615 333 613 326 613 322 l 633 361 b 641 373 646 386 648 400 l 648 402 b 647 403 646 404 646 405 l 646 400 b 643 389 637 377 627 363 l 621 354 b 612 341 603 334 595 334 b 591 334 589 336 589 340 b 589 342 590 345 592 349 b 593 360 600 372 612 385 b 616 384 617 382 621 382 b 622 382 622 383 622 385 b 618 388 617 387 613 388 l 637 417 b 645 425 652 435 657 447 l 658 447 l 657 448 b 660 455 661 462 661 469 b 662 470 663 471 663 472 z m 682 375 b 682 381 678 385 670 388 b 675 395 678 399 678 400 l 676 402 b 675 402 675 401 675 400 b 668 394 664 391 664 390 b 664 387 666 388 666 387 b 663 382 657 375 648 367 b 639 357 632 352 628 352 l 631 351 l 637 354 b 646 358 657 368 669 385 b 672 383 674 381 674 378 b 674 378 673 377 673 376 b 673 374 670 369 663 360 b 654 351 649 344 649 340 b 649 338 652 337 657 337 b 657 338 657 339 658 339 b 659 339 660 339 661 340 l 658 340 b 665 351 670 358 681 367 b 682 369 682 372 682 375 z m 726 378 b 722 374 719 368 715 364 l 717 367 b 717 372 715 375 711 375 b 712 375 712 374 712 372 b 712 369 710 363 706 355 b 702 350 697 347 691 345 b 689 345 688 346 688 348 b 688 357 704 378 711 382 b 713 384 716 385 720 385 b 721 386 722 386 723 386 b 725 386 726 384 726 379 z m 759 393 b 757 396 754 397 751 397 b 747 397 743 395 738 390 l 730 381 l 729 381 b 729 389 725 393 718 393 b 705 393 682 364 682 352 b 682 344 686 340 694 340 b 696 340 699 341 702 342 l 685 318 b 675 303 666 295 657 295 b 656 295 655 296 655 297 b 654 298 654 299 654 300 b 654 303 654 305 655 307 b 659 319 671 328 690 334 l 688 336 b 684 336 685 334 682 334 b 670 331 659 325 649 315 b 652 315 655 315 657 316 b 653 312 651 308 651 303 b 651 303 651 300 651 295 b 654 290 659 289 664 289 b 682 289 708 333 715 348 b 726 364 733 376 741 385 b 746 390 750 393 754 393 z m 781 382 b 781 385 779 388 775 391 b 774 392 773 393 771 393 b 761 393 753 388 747 379 b 736 369 730 359 730 349 b 730 341 734 340 741 340 b 743 339 744 339 746 339 b 751 339 756 341 762 345 b 771 350 774 356 778 361 b 775 359 773 357 771 355 b 764 349 755 344 745 340 b 741 340 739 341 739 343 b 738 344 738 345 738 346 b 738 349 739 353 741 357 b 742 360 743 363 745 367 b 745 362 746 359 747 358 b 747 362 746 367 753 375 l 753 376 b 762 385 768 390 772 390 l 772 384 b 770 377 766 371 759 367 b 756 367 753 368 751 370 b 754 365 757 363 760 363 l 762 363 b 763 363 764 363 765 364 b 776 370 781 376 781 382 z m 841 433 b 841 436 840 439 837 441 b 837 437 834 432 828 426 l 819 417 l 801 394 b 782 371 772 356 772 348 b 772 344 775 341 780 339 b 791 339 810 349 810 361 b 807 357 805 358 804 355 b 797 345 790 340 784 340 b 781 340 780 342 780 345 b 780 351 784 359 793 370 b 825 408 841 429 841 433 z m 922 387 b 913 371 900 362 892 354 b 879 344 865 339 850 339 l 844 339 b 841 340 840 343 840 349 b 840 364 849 381 868 399 b 875 404 886 410 895 415 b 896 402 905 393 922 387 z m 936 405 l 925 391 b 908 394 899 403 897 417 b 914 425 928 429 940 430 l 952 430 z m 979 457 b 970 448 962 440 958 433 b 949 436 943 435 939 435 b 924 435 911 434 897 430 b 901 438 904 443 907 445 b 923 459 939 463 960 463 b 941 459 927 453 916 444 b 932 453 954 457 979 457 z m 1074 459 b 1070 458 1063 457 1054 457 b 1048 457 1040 459 1030 462 b 1021 466 1013 465 1005 468 b 1010 472 1016 474 1020 475 b 1020 475 1025 476 1036 478 b 1034 480 1025 482 1021 482 b 1013 482 1006 477 991 468 l 990 468 b 979 469 975 469 964 469 b 943 469 926 464 913 453 l 900 439 b 900 435 899 432 897 430 b 866 417 840 392 835 358 b 835 352 836 346 837 340 b 823 345 815 357 813 375 b 813 413 854 457 892 463 b 898 463 903 462 906 459 l 907 460 b 902 464 896 466 889 466 b 876 466 861 459 844 444 b 831 429 821 419 814 400 b 810 392 811 384 811 375 b 812 361 819 349 831 340 b 835 338 837 337 838 337 b 843 332 850 328 858 324 l 846 336 l 855 334 b 863 334 874 337 888 343 b 877 333 866 328 856 328 b 862 328 868 328 873 327 b 884 327 896 334 909 348 b 917 356 924 368 939 384 l 946 384 b 960 384 986 392 993 406 l 991 406 b 987 396 973 390 948 388 l 940 388 l 951 403 b 955 411 962 418 970 427 l 994 423 b 1000 421 1006 420 1011 420 b 1014 420 1018 420 1021 421 b 1032 423 1040 426 1044 430 b 1039 427 1029 426 1015 426 b 1003 426 989 429 973 430 l 994 456 b 1010 456 1023 452 1032 445 b 1028 441 1030 439 1027 438 b 1028 437 1029 436 1030 436 l 1033 436 b 1040 436 1048 439 1056 444 b 1065 448 1070 452 1074 459 z m 982 354 b 975 347 971 343 969 343 b 967 343 966 344 966 346 b 966 357 973 367 979 375 b 979 371 978 368 978 364 b 978 360 979 357 982 354 z m 1002 385 b 1000 378 997 373 994 370 b 994 371 993 374 991 378 b 992 377 993 376 993 375 b 993 373 992 369 990 363 b 987 360 988 361 987 358 l 987 360 l 987 358 l 982 354 b 981 355 981 357 981 360 b 981 365 989 383 993 387 b 995 388 997 388 999 388 b 1001 388 1002 387 1002 385 z m 1008 381 b 1008 389 1004 393 997 393 b 980 393 957 364 957 348 b 957 343 960 340 966 340 l 978 340 b 982 343 988 349 997 358 b 1004 368 1008 376 1008 381 z m 1057 384 b 1056 388 1054 391 1050 393 b 1043 393 1036 390 1030 385 b 1030 389 1027 392 1021 394 b 1021 393 1023 391 1023 388 b 1023 384 1020 379 1015 372 l 1006 361 b 999 354 995 347 993 340 b 992 339 992 337 992 336 b 992 334 993 331 993 327 b 997 335 999 339 1000 340 b 1001 343 1004 348 1009 354 b 1017 363 1025 370 1029 379 b 1037 385 1041 388 1041 388 b 1042 389 1044 389 1045 389 b 1047 389 1048 387 1048 384 b 1048 381 1047 382 1047 379 b 1043 371 1040 366 1038 364 b 1039 366 1039 367 1039 367 l 1039 372 b 1038 369 1037 367 1036 366 b 1032 358 1029 353 1021 345 b 1013 336 1009 325 1008 313 b 1010 321 1014 329 1021 336 l 1039 352 b 1041 354 1045 359 1051 367 b 1054 372 1057 378 1057 384 z m 1123 405 l 1108 405 l 1096 406 l 1102 415 b 1104 417 1105 420 1105 423 b 1105 427 1104 429 1102 430 b 1098 425 1094 417 1087 408 l 1083 409 b 1055 413 1039 417 1038 417 b 1017 417 1001 412 991 402 l 993 402 b 1005 407 1017 409 1029 409 l 1042 409 b 1048 409 1053 409 1057 408 l 1083 405 l 1048 363 b 1044 355 1042 350 1042 348 b 1043 344 1046 341 1051 339 b 1062 339 1080 349 1080 361 b 1077 360 1078 358 1077 357 l 1075 355 b 1066 345 1059 340 1054 340 b 1052 340 1051 342 1051 345 b 1051 350 1053 355 1057 360 b 1059 365 1061 367 1063 367 b 1079 390 1092 401 1093 405 z m 1126 385 b 1126 387 1126 389 1125 390 b 1125 391 1123 392 1119 394 b 1115 394 1114 396 1110 396 b 1101 396 1096 391 1096 381 b 1096 377 1097 373 1098 370 b 1099 367 1099 363 1099 358 b 1099 347 1095 342 1087 342 b 1079 342 1075 346 1075 354 b 1075 356 1077 359 1080 364 b 1082 366 1085 367 1089 367 l 1092 367 l 1086 369 b 1074 367 1068 362 1068 354 b 1068 352 1068 350 1069 349 b 1071 343 1077 340 1086 340 b 1101 340 1110 345 1110 361 b 1107 376 1105 385 1105 387 b 1106 391 1109 393 1114 393 l 1119 393 l 1119 387 b 1119 382 1117 378 1114 375 l 1116 376 b 1123 379 1126 382 1126 385 z"},"e":{"x_min":0,"x_max":384,"ha":384,"o":"m 89 673 b 36 668 8 638 5 582 l 1 511 l 1 289 l 5 222 b 7 189 20 162 43 141 b 44 140 44 140 44 139 l 44 124 l 38 62 l 38 36 b 38 21 48 14 68 14 b 85 14 94 23 95 41 l 100 125 l 101 126 b 102 127 104 127 109 127 b 120 127 126 126 127 123 b 130 110 131 99 131 89 b 132 69 132 49 131 28 b 135 11 146 2 164 2 l 171 2 b 186 5 193 15 193 30 b 193 40 191 50 188 59 b 184 70 180 81 176 91 b 174 100 173 109 173 118 l 173 124 l 175 125 l 224 125 b 225 125 226 124 226 122 b 226 110 222 90 214 62 l 214 58 b 214 45 221 38 234 38 b 249 38 257 45 257 60 l 257 62 b 256 70 255 82 254 98 l 254 102 b 254 108 254 116 255 125 b 255 126 257 126 260 126 b 274 127 288 127 302 128 b 329 130 345 139 352 155 b 355 160 356 171 356 186 l 356 211 b 356 230 356 244 355 253 b 354 269 347 280 335 285 b 332 286 320 288 298 290 b 292 291 289 300 289 317 l 289 324 l 291 326 b 312 328 325 334 330 345 b 332 351 333 361 334 376 l 334 401 l 334 426 b 333 459 318 477 288 480 b 285 481 284 489 284 502 l 284 509 l 286 511 b 313 512 330 517 337 525 b 342 530 344 543 344 564 l 344 589 l 344 615 b 344 651 325 670 286 673 b 243 674 207 675 178 675 b 150 675 120 674 89 673 z m 270 512 b 270 513 271 514 273 514 b 273 510 272 508 271 508 b 270 509 270 511 270 512 z m 259 511 b 261 511 262 510 263 509 l 263 503 b 263 487 260 479 253 479 b 250 479 245 479 239 480 b 233 484 230 493 230 507 b 230 508 230 509 231 510 z m 195 480 b 176 480 167 483 167 488 l 167 502 b 167 507 174 509 188 510 l 211 510 b 211 495 207 485 200 480 l 195 480 z m 213 354 b 213 355 214 355 217 355 b 223 355 226 352 226 346 b 222 346 218 349 213 354 z m 269 351 b 264 351 262 352 262 355 b 267 355 269 354 269 351 z m 227 332 l 228 332 l 228 322 l 227 323 z m 271 327 b 271 329 271 330 272 331 l 272 321 b 271 323 271 325 271 327 z m 195 292 b 176 292 167 295 167 301 l 167 316 b 167 321 172 323 183 324 b 192 325 199 325 206 325 b 209 325 210 324 210 322 b 210 305 208 295 203 292 l 195 292 z m 247 316 l 247 324 l 248 325 l 257 325 b 258 325 259 320 259 311 b 259 298 257 291 253 291 b 252 291 251 292 250 293 b 248 298 247 306 247 316 z m 71 135 b 70 136 70 136 70 137 b 67 146 65 153 62 156 b 45 175 37 191 37 206 l 37 212 b 38 211 38 209 39 208 b 45 192 49 183 52 180 b 67 166 75 156 75 150 b 75 145 74 140 71 135 z m 46 140 b 24 155 13 172 13 190 l 13 191 b 18 174 29 158 46 143 z m 146 134 b 145 139 142 144 136 149 b 131 153 129 156 129 157 b 142 157 149 154 149 147 b 150 129 150 118 150 114 l 150 112 z m 230 155 b 230 156 230 156 231 156 b 234 156 236 155 236 152 b 233 152 231 153 230 155 z m 239 123 b 238 124 238 126 238 130 l 239 130 z m 228 41 b 220 41 216 45 216 54 l 217 54 l 228 43 l 229 41 z m 227 42 b 226 44 223 47 218 51 b 220 46 223 43 227 42 z m 61 40 b 61 45 62 47 64 47 b 65 47 65 45 65 42 b 65 39 64 38 63 38 b 62 38 61 39 61 40 z m 156 31 b 156 34 157 36 158 36 l 159 36 b 160 36 161 34 161 29 b 161 28 160 27 159 27 b 157 27 156 28 156 31 z m 58 17 b 47 17 41 22 41 33 l 41 34 z m 153 5 b 140 5 134 12 134 25 l 134 26 b 138 20 145 13 154 6 b 154 5 154 5 155 5 l 153 5 z"},"b":{"x_min":0,"x_max":441,"ha":441,"o":"m 1 284 l 5 206 b 6 195 8 182 12 167 b 17 146 29 132 48 127 b 55 125 72 123 98 122 b 99 121 99 118 100 111 b 101 93 101 75 102 58 b 103 45 111 39 124 39 b 135 39 143 44 146 55 l 146 70 b 146 75 145 90 143 116 l 143 118 b 143 121 143 122 144 122 l 199 122 b 200 122 200 121 200 120 l 200 118 b 195 98 193 79 193 60 b 193 54 193 48 194 43 b 195 28 205 20 222 20 b 239 20 248 28 248 45 b 248 50 245 64 238 88 b 237 91 237 92 237 93 l 237 120 l 238 122 b 276 126 308 133 335 144 l 337 145 b 338 145 338 144 338 143 l 338 141 b 337 121 336 107 336 98 l 336 81 b 339 70 346 65 357 65 b 368 65 376 71 379 82 l 379 90 l 379 97 b 378 118 377 133 377 142 b 377 152 377 162 378 172 b 378 173 382 178 389 187 b 410 213 421 246 421 286 b 421 339 396 380 345 410 l 343 412 l 347 416 b 383 446 401 482 401 525 b 401 600 368 647 303 665 b 279 672 253 675 225 675 l 161 675 l 97 675 b 88 675 78 675 65 674 b 28 672 8 647 5 600 l 1 537 z m 217 549 b 219 550 221 550 222 550 b 249 550 263 538 263 513 b 263 512 263 511 262 511 b 261 511 260 512 259 513 b 248 527 239 536 233 539 b 223 545 218 548 217 549 z m 234 496 b 234 478 225 469 206 469 l 176 469 b 169 469 166 472 166 478 l 166 511 b 166 517 169 520 174 519 b 179 520 185 520 190 520 b 219 520 234 512 234 496 z m 235 504 b 232 510 226 515 217 519 b 218 520 218 520 219 520 b 230 520 235 515 235 506 l 235 504 z m 220 365 b 219 366 219 366 219 367 b 254 367 271 353 271 325 b 270 325 269 326 267 329 b 254 344 239 356 220 365 z m 171 337 b 181 338 190 338 198 338 b 228 338 243 329 243 310 b 243 290 233 280 212 280 l 176 280 b 169 280 166 284 166 291 l 166 326 b 166 331 168 334 171 337 z m 244 318 b 240 327 232 333 220 337 l 222 337 b 237 337 244 331 244 319 z m 56 154 b 43 154 37 165 37 186 l 37 192 b 38 191 38 190 39 189 b 45 175 52 165 60 158 l 62 156 b 61 155 59 154 56 154 z m 48 129 b 25 129 13 143 13 171 l 13 172 b 20 151 32 137 50 129 l 48 129 z m 357 144 b 354 149 353 153 353 157 l 353 159 b 356 157 357 153 357 147 l 357 144 z m 102 152 b 102 153 103 154 106 154 b 115 154 119 151 119 145 l 119 118 b 118 130 116 137 114 139 z m 215 144 b 207 144 203 147 203 153 b 212 153 216 151 216 147 b 216 145 216 144 215 144 z m 216 129 l 217 130 b 218 128 218 127 218 126 b 218 125 218 123 217 120 b 216 121 216 123 216 126 z m 355 86 b 355 88 355 89 356 90 l 356 88 b 356 85 356 84 355 84 l 355 86 z m 350 68 b 345 68 341 72 338 80 l 339 80 b 341 80 345 77 350 70 b 346 74 343 76 341 76 b 342 72 346 69 351 68 z m 121 63 b 121 66 121 67 122 68 b 123 67 123 65 123 63 b 123 62 122 61 121 60 l 121 63 z m 116 42 b 109 42 105 46 105 54 l 105 56 l 116 44 l 117 42 z m 113 44 l 114 44 b 114 45 113 46 110 49 l 107 52 l 107 51 z m 216 46 b 216 49 217 50 218 50 b 219 50 220 49 220 46 b 220 44 220 43 219 43 b 217 43 216 44 216 46 z m 210 24 b 202 24 197 30 196 42 l 198 40 b 204 33 209 27 214 23 l 213 22 b 212 23 208 27 201 32 z"},"m":{"x_min":0,"x_max":640,"ha":640,"o":"m 26 102 b 26 100 25 92 24 78 l 24 75 b 24 65 29 60 39 60 b 48 60 53 65 53 76 l 53 82 b 53 84 53 87 52 91 l 52 97 b 52 116 55 126 61 126 b 66 126 69 116 69 96 b 69 84 67 71 64 56 l 64 52 b 64 35 72 27 88 27 b 105 27 114 35 114 52 l 114 53 b 112 74 111 86 111 87 b 111 109 113 122 117 126 b 117 127 120 127 125 128 b 148 133 160 152 161 186 l 161 223 l 161 260 b 160 285 159 323 157 374 b 157 378 157 382 158 385 b 159 385 159 385 159 384 l 221 181 b 232 147 255 129 291 126 b 297 126 300 126 300 125 l 301 124 l 301 120 b 301 112 299 98 296 77 l 296 73 b 296 63 301 58 310 58 b 320 58 325 63 325 73 b 325 76 325 77 324 78 l 319 114 l 319 126 l 320 127 b 332 130 341 134 347 138 l 348 138 b 349 138 350 138 350 137 l 353 105 b 354 89 364 81 382 81 b 397 81 405 90 405 107 b 405 140 403 175 398 210 l 398 212 b 398 222 401 240 406 267 l 406 282 l 440 394 l 441 392 l 441 381 l 441 363 b 441 352 441 336 440 315 l 440 253 l 440 191 b 441 170 443 155 448 147 b 450 142 457 136 470 129 l 472 127 l 472 122 b 472 115 468 100 461 78 l 461 73 b 461 63 466 58 476 58 b 487 58 492 63 492 73 b 492 74 489 86 484 109 b 483 112 483 115 483 120 l 483 126 b 484 127 484 127 485 127 l 487 127 b 510 126 524 126 529 126 b 532 126 533 125 533 122 b 533 118 532 113 529 106 b 526 98 522 86 515 71 b 510 59 508 46 508 33 b 508 12 518 1 539 1 b 555 1 565 10 570 27 l 570 39 b 570 59 563 86 549 119 b 548 120 548 122 548 124 b 548 125 548 126 549 126 b 584 130 602 157 604 206 l 607 285 l 607 487 l 604 578 b 603 590 601 605 598 622 b 593 649 579 665 556 671 b 550 673 541 674 528 674 l 489 674 l 449 674 b 402 672 373 648 360 603 l 306 405 l 304 403 l 241 609 b 232 640 217 659 197 667 b 187 671 171 673 150 674 l 115 674 l 77 674 b 35 673 11 651 6 608 b 3 583 1 562 1 544 l 1 253 b 1 223 3 198 7 177 b 10 163 15 150 22 138 b 25 134 26 122 26 102 z m 447 427 b 447 428 448 429 451 429 b 468 429 476 420 476 402 l 472 402 l 447 426 z m 164 420 l 166 422 l 169 422 b 181 422 189 414 194 399 l 258 191 b 261 182 267 173 275 164 l 275 163 b 275 160 272 159 266 159 b 262 159 258 166 254 179 l 193 382 b 190 390 181 402 165 418 b 164 418 164 419 164 420 z m 161 382 b 160 385 159 387 159 389 b 160 389 161 388 162 387 l 221 190 b 226 174 239 155 259 132 l 257 132 b 250 132 243 139 235 152 b 230 161 227 169 224 177 z m 40 180 l 40 186 l 41 186 l 42 186 b 44 181 47 175 50 170 l 54 162 b 54 161 54 161 53 161 l 49 156 l 49 154 b 43 154 40 163 40 180 z m 473 164 b 473 169 474 174 476 177 b 477 176 481 172 487 164 l 487 163 b 487 160 484 158 478 158 b 475 158 473 160 473 164 z m 25 136 b 16 136 12 146 12 165 l 12 166 b 14 161 16 157 18 152 b 24 143 27 137 27 136 z m 375 137 b 366 152 361 162 361 166 b 370 166 375 158 375 142 l 375 137 z m 68 160 b 69 161 70 162 73 162 b 84 162 89 149 89 122 l 89 104 b 87 130 80 149 68 160 z m 476 127 b 456 136 446 146 446 158 l 446 159 b 455 142 466 133 477 132 l 477 131 b 477 129 477 128 476 127 z m 39 122 b 39 132 40 137 42 138 l 42 137 b 42 136 41 129 39 116 l 39 122 z m 301 128 b 301 129 303 130 307 130 b 308 130 309 128 309 124 b 304 124 301 125 301 128 z m 533 128 b 533 129 535 130 539 130 l 539 124 b 535 124 533 125 533 128 z m 69 119 b 68 121 68 122 67 123 b 65 126 64 128 64 129 b 67 129 69 126 69 120 z m 377 117 b 378 115 378 111 378 106 l 376 106 l 376 116 z m 372 84 b 361 84 355 90 355 102 l 355 104 l 374 85 b 373 84 373 84 372 84 z m 372 85 b 372 86 372 86 371 86 b 368 89 365 91 364 92 b 365 89 367 86 372 85 z m 27 70 b 27 71 27 71 28 72 l 38 76 l 38 75 b 38 67 37 63 35 63 b 30 63 27 65 27 70 z m 29 70 b 29 67 31 65 34 65 l 34 70 l 35 70 l 35 72 b 31 71 29 71 29 70 z m 469 62 b 466 62 464 65 464 70 l 466 70 l 466 69 l 465 69 b 465 66 466 64 469 62 z m 302 62 b 300 64 299 66 299 69 l 300 69 b 300 66 301 64 302 62 z m 85 48 b 85 51 86 53 87 54 b 88 53 88 52 88 51 b 88 49 87 48 85 48 z m 81 30 b 72 30 67 35 67 46 l 68 46 b 73 46 78 41 83 30 l 81 30 z m 81 31 b 78 35 75 37 72 37 b 74 34 77 32 81 31 z m 534 31 b 534 33 535 35 537 36 b 538 36 538 35 538 33 b 538 30 537 28 536 28 b 535 28 534 29 534 31 z m 530 5 b 517 5 511 12 511 25 l 511 26 b 514 21 521 14 531 5 z"},"n":{"x_min":0,"x_max":493,"ha":493,"o":"m 2 576 b 1 544 0 512 0 479 l 0 395 l 0 318 b 1 281 2 243 3 205 b 4 194 5 184 7 174 b 10 157 15 143 24 133 l 28 57 b 29 48 35 43 47 43 b 56 43 62 47 65 56 b 66 56 66 60 66 69 b 67 72 67 74 67 77 l 68 79 b 69 80 69 80 70 80 b 71 80 71 79 71 78 b 71 77 71 76 70 76 b 70 71 70 67 69 62 b 69 57 69 49 68 39 l 68 32 b 68 12 77 2 95 2 b 116 2 126 16 126 43 l 126 56 l 123 68 b 121 75 117 87 111 102 b 109 108 108 114 108 119 l 108 122 l 110 123 b 147 126 165 144 165 179 l 165 334 l 166 344 l 167 344 l 168 343 b 179 324 189 305 200 286 b 203 280 205 276 205 275 l 205 273 b 201 256 199 239 199 222 l 199 204 b 200 199 201 191 202 181 b 203 170 203 160 202 149 b 203 136 210 130 222 130 b 243 130 254 140 254 159 l 254 165 b 254 169 254 175 253 182 l 253 186 b 256 186 258 183 261 176 b 262 167 262 151 262 128 l 262 107 b 261 98 260 85 258 67 l 258 59 l 258 51 b 261 36 270 29 283 29 b 302 29 312 38 312 57 l 312 62 b 311 68 310 77 308 90 b 307 96 307 105 307 117 l 307 128 b 307 129 307 129 308 129 l 309 129 b 327 125 349 123 374 123 b 385 123 396 123 407 124 b 434 125 450 143 457 178 b 461 213 463 245 463 275 l 463 525 b 463 536 462 560 460 596 b 459 606 458 618 455 631 b 451 652 442 665 429 670 b 423 673 415 674 405 674 l 378 674 l 350 674 b 315 673 298 652 298 610 l 298 441 l 297 440 l 293 443 l 193 629 b 181 652 166 665 147 670 b 138 673 128 674 116 674 l 88 674 l 60 674 b 33 673 17 662 11 640 b 6 623 3 602 2 576 z m 173 379 b 173 380 175 380 178 380 b 188 380 196 375 201 364 l 236 301 b 238 298 239 294 239 290 b 239 288 239 286 238 285 b 236 286 234 288 232 292 l 196 353 b 195 356 187 363 174 376 b 173 377 173 378 173 379 z m 168 347 b 170 347 172 345 175 341 l 206 284 b 207 283 207 281 207 279 l 207 277 l 206 278 l 168 345 z m 226 194 b 226 214 229 225 234 227 b 236 227 237 226 237 223 b 237 208 233 195 226 184 l 226 194 z m 260 221 b 260 222 260 222 261 223 l 264 223 b 285 223 296 210 296 184 l 296 179 b 294 180 292 183 290 186 l 281 198 b 274 205 267 213 260 220 z m 264 176 b 258 176 255 180 255 188 l 255 190 b 261 190 264 185 264 176 z m 58 139 b 53 139 48 146 42 159 b 41 163 40 171 40 183 l 47 171 b 56 156 60 147 60 144 b 60 142 60 140 59 139 z m 283 133 b 283 139 287 153 296 175 b 301 175 304 172 304 166 b 304 165 304 164 303 163 b 296 156 290 146 283 131 l 283 133 z m 26 133 b 17 141 12 151 12 162 l 12 163 b 14 157 19 149 26 138 b 27 137 27 136 27 135 b 27 134 27 134 26 133 z m 324 160 b 320 160 318 161 318 163 l 319 163 b 322 163 324 162 324 160 z m 224 153 b 224 155 225 158 227 161 b 228 161 228 160 228 159 b 228 156 227 154 224 152 z m 218 133 b 209 133 205 137 205 145 l 205 147 b 214 143 218 139 218 136 z m 217 135 l 211 141 l 216 135 z m 47 82 b 47 95 51 108 59 120 b 62 120 64 118 64 113 b 64 112 64 110 63 109 b 55 100 50 89 47 76 l 47 82 z m 90 82 b 85 86 83 90 83 95 l 83 96 b 88 95 90 91 90 84 l 90 82 z m 44 59 b 44 60 45 63 46 67 l 46 61 b 46 60 45 59 44 59 z m 280 55 b 280 58 281 60 284 60 b 284 56 283 54 281 53 b 280 54 280 54 280 55 z m 43 46 b 34 46 30 50 30 58 b 39 58 43 54 43 46 z m 276 32 b 266 32 261 38 261 49 l 261 51 l 276 34 z m 274 34 b 275 34 275 34 275 35 b 275 36 273 38 268 40 l 269 40 b 269 37 271 35 274 34 z m 93 26 b 93 32 94 35 95 35 l 96 35 b 97 34 97 32 97 31 b 97 28 96 26 93 26 z m 86 5 b 76 5 71 11 71 22 b 81 13 87 7 88 5 l 86 5 z"},"h":{"x_min":0,"x_max":500,"ha":500,"o":"m 4 602 b 3 539 1 476 0 413 l 0 400 l 0 386 b 1 332 1 278 2 225 b 3 208 4 191 7 176 b 9 163 13 152 19 142 b 18 119 18 98 19 79 b 21 68 27 63 36 63 b 46 63 52 68 53 78 l 57 125 l 68 125 b 70 125 72 118 74 105 b 75 101 75 95 75 87 l 75 81 b 74 72 73 59 71 42 l 71 34 b 71 12 81 1 100 1 b 120 1 131 10 132 28 b 133 57 133 76 133 85 b 133 97 132 110 131 123 l 131 124 b 131 125 131 125 132 126 b 159 130 173 146 174 175 l 177 294 b 178 317 196 328 232 328 l 242 328 l 243 327 l 243 324 l 243 319 b 242 308 240 293 239 273 l 239 266 b 239 250 247 242 262 242 b 276 242 283 249 283 262 l 283 264 b 277 295 274 314 274 320 l 274 324 b 274 325 274 325 275 325 b 286 325 292 313 293 289 l 296 166 b 297 143 312 130 343 126 b 344 126 344 126 345 125 l 345 120 b 345 109 342 95 336 78 l 336 74 b 336 66 340 62 347 62 b 354 62 358 66 358 74 l 358 75 b 357 79 356 85 355 94 b 352 106 351 115 351 121 b 351 122 351 123 352 124 l 353 125 l 392 125 b 395 125 396 116 396 97 b 396 88 394 75 389 59 b 388 55 387 50 387 43 b 387 28 395 20 410 20 b 422 20 430 27 433 40 b 436 61 437 81 437 98 b 437 105 437 114 436 125 l 436 127 b 436 128 438 131 443 135 b 454 145 461 161 464 184 b 467 211 468 237 468 260 l 468 540 b 468 553 467 573 466 600 b 465 612 462 625 459 639 b 454 657 444 668 429 672 b 422 674 405 675 380 675 b 351 675 332 674 322 672 b 305 669 296 655 295 632 l 292 527 b 291 506 281 495 262 495 l 203 495 b 186 495 177 505 176 525 l 173 631 b 172 654 165 667 150 671 b 144 673 138 674 131 674 b 117 675 103 675 89 675 b 76 675 64 675 53 674 b 30 673 16 661 11 640 b 8 626 5 613 4 602 z m 256 351 b 249 351 246 354 246 359 b 255 359 259 357 259 354 b 259 352 258 351 256 351 z m 281 355 b 281 356 282 357 284 357 b 309 357 321 344 321 317 b 321 315 320 314 319 314 l 318 315 b 309 328 297 340 284 351 b 282 352 281 354 281 355 z m 257 332 l 258 332 l 257 325 z m 292 308 b 288 317 283 323 277 326 l 279 326 b 288 326 292 320 292 309 z m 254 245 b 245 245 241 249 241 257 l 242 258 l 243 257 l 255 245 z m 251 247 b 250 250 247 251 244 252 b 247 249 250 247 251 247 z m 40 149 b 40 150 39 155 37 164 b 36 167 36 171 36 177 l 36 184 b 45 169 49 160 49 157 b 49 156 49 154 48 153 b 43 144 39 137 38 132 l 38 133 l 38 135 b 39 139 40 142 40 144 l 40 149 z m 323 159 b 323 163 324 166 326 169 l 328 169 b 334 166 337 162 337 157 b 337 155 334 154 328 154 b 325 154 323 156 323 159 z m 20 142 b 15 147 12 154 12 163 l 12 164 l 20 146 z m 98 116 b 95 129 89 139 81 146 b 75 152 72 155 72 156 b 89 156 98 146 98 126 l 98 116 z m 321 130 b 307 130 300 138 300 154 l 300 155 b 305 145 313 137 322 131 b 322 130 322 130 321 130 z m 413 122 b 412 124 412 126 411 128 b 408 139 406 145 403 147 b 398 152 396 154 396 155 b 407 155 413 146 413 127 l 413 122 z m 73 118 b 72 121 71 124 68 127 l 70 127 b 72 127 73 124 73 119 z m 34 80 b 34 83 34 85 35 88 l 35 79 l 34 78 l 34 80 z m 31 66 b 25 66 22 69 22 76 l 22 77 b 26 76 29 74 30 71 b 28 72 26 74 23 75 b 24 73 26 70 31 67 b 32 67 32 67 32 66 z m 407 42 b 407 44 408 46 409 47 l 409 45 b 409 43 408 42 407 41 z m 402 23 b 394 23 390 27 390 36 l 390 37 l 403 23 z m 95 29 b 95 32 96 34 98 35 b 99 34 100 33 100 32 b 100 28 99 26 97 26 b 96 26 95 27 95 29 z m 400 25 l 394 31 l 392 33 b 395 28 398 25 400 25 z m 92 4 b 79 4 73 11 73 24 l 75 22 b 81 15 87 9 93 4 z"},"z":{"x_min":0,"x_max":436,"ha":436,"o":"m 8 591 b 8 576 9 560 10 543 b 13 524 28 513 56 512 b 72 511 88 511 104 511 b 105 510 106 509 106 508 l 106 507 l 100 457 l 100 451 b 100 445 102 438 107 430 l 107 427 l 30 325 b 10 298 0 261 0 214 b 0 187 1 168 4 159 b 6 152 15 144 30 135 b 31 135 31 134 31 132 l 31 130 l 23 89 l 23 86 b 23 77 27 73 35 73 b 42 73 46 77 46 85 l 46 89 b 41 110 39 124 39 132 b 47 132 58 131 71 129 b 114 128 166 127 227 126 b 228 126 228 125 228 123 b 228 105 228 90 227 79 b 226 73 225 64 224 52 l 224 44 l 224 35 b 228 22 237 15 251 15 b 265 15 274 22 278 36 l 278 48 l 278 59 b 278 62 278 66 277 71 l 277 92 l 277 113 b 278 122 280 127 281 127 l 288 127 b 290 127 291 120 292 107 l 292 94 b 292 90 292 80 291 65 l 291 62 b 291 50 297 44 310 44 b 323 44 330 50 330 61 b 330 62 330 62 329 63 b 327 84 326 97 326 100 b 326 118 327 127 329 128 b 340 129 351 131 361 132 b 383 135 397 144 403 158 b 405 161 406 169 407 182 b 408 191 408 201 408 214 b 408 227 408 239 407 252 b 406 276 396 289 377 292 b 368 293 362 294 359 294 l 311 295 l 307 296 b 307 297 309 298 312 301 b 321 308 325 320 325 336 b 325 344 324 353 323 362 b 320 380 317 398 314 415 l 314 417 b 314 418 314 419 315 420 l 342 456 b 343 458 344 459 345 459 b 346 459 347 458 347 457 l 350 423 b 351 416 355 413 363 413 b 372 413 376 417 377 425 l 384 510 b 384 513 387 522 393 537 b 399 552 402 573 402 602 b 402 616 402 626 401 633 b 399 654 385 667 359 670 b 340 673 317 674 290 674 l 205 674 l 121 674 b 104 674 87 673 70 672 b 41 670 22 663 15 650 b 10 642 8 622 8 591 z m 39 546 b 39 553 41 557 45 560 b 50 555 53 551 53 548 l 53 547 b 48 544 45 543 42 543 b 40 543 39 544 39 546 z m 155 545 l 159 545 b 180 545 191 536 191 518 b 191 515 190 514 188 514 b 176 526 168 533 164 536 b 158 541 155 543 154 544 z m 33 517 b 22 517 16 524 13 538 b 14 538 15 537 16 535 l 34 517 z m 105 513 b 108 514 111 515 114 515 l 113 509 b 113 510 112 510 111 510 b 107 511 105 512 105 513 z m 158 505 b 156 508 154 510 151 511 l 154 511 b 157 511 159 510 159 507 b 159 506 159 506 158 505 z m 131 465 b 127 477 125 492 125 511 b 146 511 156 508 156 503 b 156 500 154 494 149 486 b 140 471 135 464 133 464 b 132 464 131 464 131 465 z m 358 465 b 358 468 359 469 360 469 l 361 469 b 362 467 362 463 362 457 b 362 454 362 452 361 449 l 361 455 b 359 461 358 464 358 465 z m 109 430 b 105 435 103 439 103 442 l 103 444 b 108 441 110 437 110 432 b 110 431 110 430 109 430 z m 356 417 b 354 418 353 420 353 422 l 353 423 b 353 421 354 419 356 417 z m 283 379 l 284 379 b 289 379 293 370 297 353 b 298 346 299 338 299 329 b 299 326 299 322 298 319 b 295 312 294 306 294 299 b 293 300 292 301 292 302 l 292 304 b 295 313 297 321 297 330 b 297 343 292 359 283 378 z m 268 357 b 268 358 269 358 270 358 b 273 358 274 354 274 347 l 274 346 z m 237 304 b 237 309 239 315 244 322 b 257 344 265 355 268 355 b 270 355 272 349 274 337 b 275 325 276 316 277 310 b 278 307 278 305 279 303 l 282 296 l 255 296 b 243 297 237 299 237 304 z m 283 298 b 281 298 280 301 280 306 l 280 308 l 286 302 l 286 301 b 286 299 285 298 283 298 z m 32 169 b 32 176 34 180 37 182 l 51 167 b 50 165 47 164 40 164 b 35 164 32 166 32 169 z m 231 161 b 231 162 233 163 236 163 b 247 163 252 159 252 151 l 252 121 b 251 122 251 122 251 123 b 248 138 242 151 232 160 z m 304 156 b 297 156 294 158 294 163 b 301 163 304 161 304 156 z m 34 134 b 15 142 6 151 6 160 l 6 161 b 20 146 30 139 36 139 b 35 137 35 135 34 134 z m 306 129 b 306 132 306 134 307 135 l 308 134 l 307 116 b 306 120 306 124 306 129 z m 303 47 b 297 47 294 50 294 57 l 294 59 l 299 56 l 296 56 b 296 52 299 49 304 47 z m 247 39 b 247 44 248 46 249 46 l 251 46 b 251 41 250 39 247 39 z m 242 18 b 232 18 227 23 227 33 l 227 34 l 242 19 z m 234 24 b 236 21 238 20 239 20 l 234 26 l 236 22 z"},"B":{"x_min":0,"x_max":441,"ha":441,"o":"m 1 284 l 5 206 b 6 195 8 182 12 167 b 17 146 29 132 48 127 b 55 125 72 123 98 122 b 99 121 99 118 100 111 b 101 93 101 75 102 58 b 103 45 111 39 124 39 b 135 39 143 44 146 55 l 146 70 b 146 75 145 90 143 116 l 143 118 b 143 121 143 122 144 122 l 199 122 b 200 122 200 121 200 120 l 200 118 b 195 98 193 79 193 60 b 193 54 193 48 194 43 b 195 28 205 20 222 20 b 239 20 248 28 248 45 b 248 50 245 64 238 88 b 237 91 237 92 237 93 l 237 120 l 238 122 b 276 126 308 133 335 144 l 337 145 b 338 145 338 144 338 143 l 338 141 b 337 121 336 107 336 98 l 336 81 b 339 70 346 65 357 65 b 368 65 376 71 379 82 l 379 90 l 379 97 b 378 118 377 133 377 142 b 377 152 377 162 378 172 b 378 173 382 178 389 187 b 410 213 421 246 421 286 b 421 339 396 380 345 410 l 343 412 l 347 416 b 383 446 401 482 401 525 b 401 600 368 647 303 665 b 279 672 253 675 225 675 l 161 675 l 97 675 b 88 675 78 675 65 674 b 28 672 8 647 5 600 l 1 537 z m 217 549 b 219 550 221 550 222 550 b 249 550 263 538 263 513 b 263 512 263 511 262 511 b 261 511 260 512 259 513 b 248 527 239 536 233 539 b 223 545 218 548 217 549 z m 234 496 b 234 478 225 469 206 469 l 176 469 b 169 469 166 472 166 478 l 166 511 b 166 517 169 520 174 519 b 179 520 185 520 190 520 b 219 520 234 512 234 496 z m 235 504 b 232 510 226 515 217 519 b 218 520 218 520 219 520 b 230 520 235 515 235 506 l 235 504 z m 220 365 b 219 366 219 366 219 367 b 254 367 271 353 271 325 b 270 325 269 326 267 329 b 254 344 239 356 220 365 z m 171 337 b 181 338 190 338 198 338 b 228 338 243 329 243 310 b 243 290 233 280 212 280 l 176 280 b 169 280 166 284 166 291 l 166 326 b 166 331 168 334 171 337 z m 244 318 b 240 327 232 333 220 337 l 222 337 b 237 337 244 331 244 319 z m 56 154 b 43 154 37 165 37 186 l 37 192 b 38 191 38 190 39 189 b 45 175 52 165 60 158 l 62 156 b 61 155 59 154 56 154 z m 48 129 b 25 129 13 143 13 171 l 13 172 b 20 151 32 137 50 129 l 48 129 z m 357 144 b 354 149 353 153 353 157 l 353 159 b 356 157 357 153 357 147 l 357 144 z m 102 152 b 102 153 103 154 106 154 b 115 154 119 151 119 145 l 119 118 b 118 130 116 137 114 139 z m 215 144 b 207 144 203 147 203 153 b 212 153 216 151 216 147 b 216 145 216 144 215 144 z m 216 129 l 217 130 b 218 128 218 127 218 126 b 218 125 218 123 217 120 b 216 121 216 123 216 126 z m 355 86 b 355 88 355 89 356 90 l 356 88 b 356 85 356 84 355 84 l 355 86 z m 350 68 b 345 68 341 72 338 80 l 339 80 b 341 80 345 77 350 70 b 346 74 343 76 341 76 b 342 72 346 69 351 68 z m 121 63 b 121 66 121 67 122 68 b 123 67 123 65 123 63 b 123 62 122 61 121 60 l 121 63 z m 116 42 b 109 42 105 46 105 54 l 105 56 l 116 44 l 117 42 z m 113 44 l 114 44 b 114 45 113 46 110 49 l 107 52 l 107 51 z m 216 46 b 216 49 217 50 218 50 b 219 50 220 49 220 46 b 220 44 220 43 219 43 b 217 43 216 44 216 46 z m 210 24 b 202 24 197 30 196 42 l 198 40 b 204 33 209 27 214 23 l 213 22 b 212 23 208 27 201 32 z"},"K":{"x_min":0,"x_max":497,"ha":497,"o":"m 5 193 b 7 159 20 137 45 128 b 46 127 46 126 46 125 l 46 124 l 30 70 b 29 65 28 60 28 53 b 28 36 37 28 55 28 b 72 28 81 36 81 52 b 81 57 80 63 78 70 b 73 87 67 105 62 122 l 62 123 b 62 125 62 126 63 126 l 108 126 b 109 126 109 125 109 123 l 109 122 b 104 104 99 86 94 67 b 93 64 93 61 93 56 l 93 50 b 96 40 103 35 113 35 b 128 35 136 43 136 58 l 136 62 l 126 119 l 126 126 l 139 129 b 158 132 168 145 170 168 b 171 209 171 249 172 289 b 172 294 172 300 173 309 b 174 311 176 312 177 312 b 180 312 184 309 189 302 b 197 289 205 277 212 265 b 214 262 215 259 215 257 b 215 256 215 256 214 256 l 185 302 b 183 305 180 307 177 310 b 182 305 186 299 190 293 b 205 269 213 256 213 254 l 213 253 b 209 242 207 234 206 229 b 205 222 204 211 202 196 b 201 187 199 177 196 168 l 196 164 b 196 151 203 145 217 145 b 236 145 246 153 246 170 b 246 171 245 182 242 202 l 242 204 b 242 205 243 206 245 207 b 246 208 254 196 270 172 b 287 149 301 138 313 138 b 313 135 313 133 312 133 b 310 133 304 137 293 144 b 284 150 277 157 270 166 b 262 178 254 190 247 201 l 245 203 b 264 172 284 149 303 136 b 304 136 305 135 305 134 l 305 129 b 305 118 302 99 296 73 b 295 72 295 70 295 69 b 295 59 301 54 312 54 b 323 54 329 59 329 69 l 329 70 l 319 118 l 319 129 b 321 129 329 129 342 128 b 351 127 368 126 395 126 b 414 126 424 126 426 127 b 459 128 475 136 475 152 b 475 164 470 177 461 192 l 352 365 b 339 384 333 403 333 421 b 333 454 345 479 369 498 l 370 497 l 370 492 b 370 483 367 468 361 446 l 361 442 b 361 428 367 421 380 421 b 395 421 403 429 403 446 l 403 451 b 398 470 395 489 395 510 b 395 516 395 522 396 528 b 397 534 398 538 399 540 l 455 620 b 464 632 468 643 468 652 b 468 665 456 673 433 674 b 423 675 410 675 395 675 b 359 675 336 674 327 673 b 301 670 280 657 265 635 l 181 511 l 175 505 l 173 505 b 172 505 171 547 170 631 b 169 653 161 666 147 671 b 142 672 136 673 128 674 b 114 675 100 675 87 675 b 75 675 63 675 52 674 b 31 673 17 661 11 639 b 4 615 1 581 1 537 l 1 265 z m 378 503 b 378 505 378 506 379 506 b 380 505 381 503 381 499 l 381 497 b 379 498 378 500 378 503 z m 374 424 b 367 424 363 428 363 436 l 365 436 l 372 428 l 369 431 l 366 433 l 366 432 b 366 422 368 420 373 425 l 374 426 z m 241 263 b 240 263 229 279 207 311 b 204 316 198 323 191 330 b 184 337 180 341 180 342 b 192 342 203 334 213 319 b 223 303 231 290 237 280 b 240 275 242 270 242 266 b 242 264 242 263 241 263 z m 224 214 b 224 231 231 240 244 240 b 253 240 262 235 271 225 b 279 213 287 201 295 190 b 300 182 307 175 316 168 b 323 163 327 161 328 160 b 325 159 323 158 320 158 b 311 157 301 165 289 182 b 280 197 272 207 267 214 b 259 226 252 232 245 232 b 236 232 229 226 224 213 z m 48 155 b 40 155 36 165 36 186 l 37 186 b 42 174 47 164 54 157 b 53 156 51 155 48 155 z m 217 166 b 217 169 218 171 221 171 b 221 168 220 166 217 165 z m 41 130 b 22 130 12 142 12 165 l 12 166 b 19 152 28 140 41 131 l 42 130 z m 210 148 b 203 148 199 152 199 159 b 204 159 207 155 210 148 z m 206 150 l 207 150 b 207 151 206 153 203 155 l 204 153 l 201 156 l 201 155 z m 44 129 b 49 130 53 131 54 131 b 54 129 54 128 53 127 b 52 127 52 127 51 128 b 47 129 45 129 44 129 z m 109 128 l 116 129 b 117 130 117 129 117 127 l 117 125 b 116 125 115 125 114 126 b 111 126 109 126 109 127 z m 303 58 b 299 58 297 61 297 66 b 300 66 301 65 302 64 l 299 64 b 299 63 301 61 304 58 z m 106 38 b 99 38 95 42 95 50 l 95 51 b 102 50 106 46 106 41 l 106 40 b 105 41 102 43 99 46 l 97 48 b 98 44 102 41 107 38 z m 46 31 b 35 31 30 36 30 47 l 30 48 l 47 31 z m 43 33 b 40 37 37 39 36 39 l 35 39 b 38 36 40 34 43 33 z"},"R":{"x_min":0,"x_max":468,"ha":468,"o":"m 64 124 b 68 121 70 114 71 101 b 72 80 73 67 73 62 l 73 25 b 73 9 83 1 102 1 b 119 1 128 9 129 24 l 129 34 b 129 43 129 51 128 59 b 127 66 127 71 127 73 b 127 84 128 92 131 97 l 146 127 b 147 127 147 127 147 128 b 162 137 170 154 170 177 l 170 296 l 173 296 l 237 169 b 242 160 251 149 264 136 l 264 123 b 264 112 261 96 255 74 b 253 67 252 62 252 58 b 252 45 259 38 273 38 b 287 38 294 44 294 57 l 294 60 b 293 65 291 72 289 81 b 288 84 288 90 288 98 b 288 117 290 126 295 126 b 297 126 301 126 308 125 b 310 124 311 122 311 121 b 315 107 317 95 317 85 l 317 76 b 316 71 315 63 313 53 l 313 48 b 313 29 321 20 337 20 b 354 20 362 27 362 40 l 362 56 b 358 79 356 97 356 112 l 356 121 l 357 123 b 374 124 390 125 407 126 b 426 127 435 135 435 150 b 435 159 432 169 425 181 l 351 319 b 347 326 345 333 345 340 b 345 345 346 348 348 350 b 393 395 416 443 416 496 b 416 581 379 636 305 661 b 281 670 257 674 233 674 l 76 674 b 35 674 12 654 7 614 b 3 585 1 563 1 548 l 1 256 b 1 242 2 223 4 199 b 8 152 28 127 64 124 z m 273 506 b 264 521 252 533 238 543 b 231 548 228 552 228 554 b 260 554 276 539 276 510 l 276 506 b 276 505 276 505 275 505 b 274 505 274 505 273 506 z m 201 522 b 204 523 207 523 209 523 l 209 517 b 208 518 208 518 207 518 b 203 519 201 520 201 521 z m 244 497 b 239 506 232 514 223 519 l 222 520 l 224 520 b 237 520 244 513 244 500 l 244 497 z m 175 449 b 172 449 170 451 170 455 l 170 509 b 170 516 172 519 175 519 l 201 519 l 201 502 b 200 475 200 458 200 451 l 198 449 z m 218 517 b 219 518 219 518 220 518 b 235 518 243 507 243 485 b 243 462 234 450 217 450 b 217 471 217 494 218 517 z m 178 333 l 183 333 b 193 333 201 327 207 315 l 275 182 b 276 180 279 177 284 172 l 293 162 l 287 156 b 282 151 275 158 266 177 l 204 300 b 201 307 196 313 190 318 b 182 326 178 331 178 332 z m 176 293 b 173 296 172 298 172 300 b 175 300 177 299 178 297 l 242 170 b 245 164 252 154 265 141 b 266 140 267 139 267 138 b 267 137 267 136 266 136 b 253 147 244 157 239 168 z m 40 171 b 40 178 40 182 41 182 l 42 182 b 45 175 49 170 52 166 b 55 163 56 161 56 160 b 56 157 53 156 46 156 b 42 156 40 161 40 171 z m 40 129 b 21 129 12 140 12 162 l 12 164 b 17 152 26 141 40 130 l 41 129 z m 312 160 b 314 161 316 161 317 161 b 327 161 332 158 332 153 l 332 144 l 331 143 b 324 136 317 142 312 160 z m 69 158 b 69 159 71 160 74 160 b 93 160 103 148 103 124 b 103 116 102 105 99 91 b 98 118 94 135 86 142 b 75 152 69 157 69 158 z m 278 129 b 278 132 279 134 280 137 l 280 136 b 280 134 279 131 278 127 l 278 129 z m 331 128 b 331 131 331 134 332 136 l 333 135 b 334 134 335 124 335 105 l 335 101 b 332 109 331 118 331 128 z m 315 114 b 314 117 312 121 309 126 l 309 127 b 312 127 313 127 313 126 b 314 121 315 118 315 116 l 315 114 z m 72 112 b 72 113 72 113 71 114 b 68 121 66 125 64 126 l 66 126 b 70 126 72 122 72 113 z m 255 52 b 255 53 255 53 256 54 b 263 49 266 46 266 43 b 261 48 258 51 257 51 l 259 48 l 258 49 b 260 45 263 42 267 41 l 266 41 b 259 41 255 45 255 52 z m 335 45 b 335 48 336 49 337 49 l 337 43 b 336 43 335 44 335 45 z m 330 24 b 321 24 316 30 316 41 l 316 42 l 331 26 l 324 31 l 324 30 l 320 34 l 320 33 b 320 28 324 25 332 24 l 330 24 z m 97 30 b 97 33 98 35 99 35 b 100 35 101 33 101 30 b 101 28 100 27 99 26 b 98 27 97 28 97 30 z m 93 5 b 82 5 76 11 76 23 l 76 24 l 95 5 l 93 5 z m 93 6 b 92 6 92 6 92 7 b 89 8 88 10 87 11 b 88 8 90 6 93 6 z"},"T":{"x_min":0,"x_max":457,"ha":457,"o":"m 1 586 l 1 558 b 2 525 17 508 46 507 l 48 505 b 49 504 49 499 49 490 b 49 483 49 478 48 474 b 47 465 44 453 41 436 b 40 432 40 424 40 413 l 40 402 b 43 390 51 384 64 384 b 81 384 90 391 90 404 l 90 429 l 84 482 l 84 489 b 84 496 84 501 85 504 b 86 505 87 506 88 506 b 106 506 115 490 116 457 l 121 195 b 122 167 128 146 141 132 b 140 123 140 114 141 105 b 142 98 143 89 145 76 b 146 68 146 60 147 52 b 150 39 158 33 171 33 b 183 33 191 40 194 53 b 195 70 196 80 196 84 b 196 94 194 106 189 120 l 191 122 l 194 122 b 205 122 210 122 211 121 l 212 120 b 209 107 208 96 208 88 b 208 79 209 65 210 46 b 211 29 221 20 238 20 b 255 20 263 28 263 45 l 263 52 b 257 79 254 100 254 113 l 254 123 b 255 124 257 125 261 126 b 278 131 288 148 291 177 b 294 251 295 295 295 310 b 296 355 296 400 297 445 b 298 455 299 465 300 474 b 304 495 314 506 330 506 l 335 506 b 336 505 337 504 337 502 b 338 499 338 497 338 495 b 338 488 337 482 336 479 l 322 413 b 321 410 321 406 321 403 b 321 382 332 372 353 372 b 373 372 383 382 383 401 b 383 403 383 404 382 405 l 371 472 l 371 493 b 371 498 379 504 396 511 b 406 515 412 525 413 542 b 414 553 414 568 414 587 b 414 606 413 621 412 634 b 410 653 395 665 367 670 b 352 673 331 674 302 674 l 113 674 b 102 674 85 673 64 672 b 34 670 15 662 7 649 b 3 642 1 630 1 613 l 1 586 z m 31 537 b 31 547 33 553 37 554 b 38 554 38 554 39 553 b 44 548 48 545 51 544 b 60 540 64 537 64 535 b 61 535 59 536 56 537 b 52 539 49 540 47 540 l 45 540 b 41 539 38 538 35 537 l 31 537 z m 99 541 b 131 541 147 525 147 494 b 147 492 147 491 146 490 b 133 511 117 527 99 538 z m 350 534 b 344 534 341 536 341 541 b 348 541 352 539 352 536 b 352 535 351 534 350 534 z m 22 511 b 11 511 6 517 6 530 l 6 531 b 7 528 13 522 22 513 z m 64 508 b 64 511 64 512 65 513 l 66 514 l 66 498 b 65 499 64 503 64 508 z m 353 503 b 353 508 353 512 354 513 b 355 512 355 511 355 510 b 355 503 355 499 354 498 l 353 497 l 353 503 z m 114 482 b 110 495 103 503 94 507 l 97 507 b 108 507 114 499 114 484 l 114 482 z m 61 407 b 61 411 62 413 64 414 b 65 413 65 412 65 411 b 65 408 64 407 61 407 z m 347 401 b 347 403 348 404 349 404 b 350 404 351 403 351 401 b 351 399 350 398 349 398 b 348 398 347 399 347 401 z m 56 387 b 47 387 43 391 43 400 l 43 402 b 52 395 56 390 56 387 z m 54 389 b 53 392 51 394 49 395 b 50 394 51 393 51 392 l 51 391 l 47 396 b 47 391 49 389 53 389 z m 345 375 b 331 375 324 382 324 395 l 324 396 l 326 394 b 335 385 341 378 345 375 z m 157 170 l 157 176 l 158 179 b 166 174 170 166 170 155 b 170 145 168 135 164 126 b 165 137 164 144 163 147 b 159 156 157 164 157 170 z m 143 132 b 133 141 128 150 128 161 l 128 162 b 129 158 131 155 133 152 l 144 134 b 144 133 144 133 143 132 z m 216 157 b 217 158 218 158 219 158 b 225 158 228 155 228 149 b 222 149 218 152 216 157 z m 230 127 b 230 129 230 131 231 132 l 232 131 l 232 120 b 231 121 230 123 230 127 z m 168 70 b 168 77 168 82 167 85 l 167 88 l 167 90 b 168 86 169 78 169 67 l 169 57 b 169 56 168 56 167 56 l 167 60 b 168 64 168 67 168 70 z m 165 36 b 156 36 150 41 149 52 b 154 52 159 47 165 36 z m 234 46 b 234 48 234 49 235 50 b 236 49 237 48 237 45 b 237 44 236 43 235 43 b 234 43 234 44 234 46 z m 162 38 l 154 47 b 159 41 161 38 162 38 z m 230 23 b 219 23 214 28 214 38 l 214 40 l 230 25 l 231 23 z m 228 25 l 222 30 b 222 29 223 28 225 27 b 224 28 222 29 220 31 b 219 32 219 33 218 33 b 220 28 223 25 227 25 z"},"P":{"x_min":0,"x_max":469,"ha":469,"o":"m 1 267 l 4 200 b 5 188 6 177 9 167 b 12 157 16 147 22 137 b 23 136 24 134 24 133 b 30 103 32 71 30 38 b 34 25 42 18 54 18 b 71 18 80 27 80 45 l 80 50 b 80 53 79 58 78 65 l 78 74 b 78 100 81 116 86 121 l 87 122 b 88 123 94 123 106 123 l 112 123 l 114 121 b 115 120 116 109 117 87 b 118 78 118 68 117 59 b 121 50 127 46 134 46 b 145 46 151 51 151 60 l 151 77 l 146 116 l 146 124 l 153 128 b 167 134 174 149 175 173 l 177 275 b 177 289 188 296 211 296 l 223 296 l 225 295 l 225 289 b 220 260 217 234 217 213 b 217 188 227 175 246 175 b 263 175 272 183 272 200 b 272 206 271 217 268 233 b 267 238 265 246 263 256 b 262 259 262 264 262 270 b 262 289 266 300 274 302 b 293 306 313 313 334 323 l 335 324 b 336 324 337 323 337 320 l 340 282 b 341 275 346 271 356 271 b 363 271 367 274 370 281 l 370 288 l 370 294 b 370 299 369 306 368 316 l 368 324 b 368 333 369 342 370 350 b 371 351 371 351 371 352 b 402 393 418 437 418 486 b 418 513 415 535 410 554 b 395 606 362 641 309 659 b 280 669 255 674 232 674 l 75 674 b 32 674 9 651 6 606 l 1 529 z m 206 553 b 206 554 207 555 210 555 b 217 555 221 553 221 549 b 221 547 220 546 219 546 b 210 545 206 547 206 553 z m 234 549 l 239 549 b 265 549 278 534 278 505 b 277 505 275 505 274 506 b 269 515 256 527 237 543 b 234 545 233 547 233 548 z m 212 514 b 212 518 213 520 214 521 l 214 518 b 214 515 214 511 213 508 b 212 510 212 512 212 514 z m 182 448 b 178 449 176 454 176 461 l 176 507 b 176 515 177 519 180 519 l 201 519 b 204 519 206 500 206 461 b 206 454 205 450 204 449 b 201 448 196 448 189 448 l 182 448 z m 246 496 b 243 498 238 504 230 515 l 232 515 b 241 515 246 509 246 497 z m 221 468 b 221 479 222 490 223 499 b 224 508 226 513 228 513 b 239 513 244 504 244 486 b 244 465 237 454 223 454 b 222 454 221 454 221 455 l 221 468 z m 348 330 b 348 332 348 333 349 333 l 350 333 b 351 329 352 326 352 323 b 352 322 352 321 351 320 b 349 325 348 328 348 330 z m 240 323 b 233 323 229 326 229 331 b 236 331 240 328 240 323 z m 244 305 b 245 305 245 304 245 302 b 245 295 244 292 243 291 l 243 303 z m 353 288 b 353 289 353 290 354 291 b 355 289 355 287 355 285 b 355 284 355 284 354 283 b 353 286 353 287 353 288 z m 349 274 b 345 275 343 277 343 281 l 343 282 b 344 279 346 277 349 274 z m 240 202 b 240 203 240 205 241 207 l 242 207 b 244 207 245 205 244 201 b 244 200 243 200 242 199 b 241 200 240 201 240 202 z m 239 178 b 226 178 220 184 220 197 l 220 198 l 239 179 z m 229 184 b 233 181 235 180 236 180 b 233 185 230 187 228 187 l 230 185 z m 40 179 b 40 181 40 183 41 185 l 42 184 l 51 166 b 56 157 58 152 58 149 b 58 143 57 137 56 132 l 54 87 l 52 85 l 52 137 b 52 139 51 142 50 146 b 43 159 40 170 40 179 z m 25 135 b 16 135 12 145 12 165 l 12 166 b 13 162 15 158 18 153 b 24 142 27 136 27 135 z m 127 125 b 127 128 127 129 128 129 l 129 128 l 129 119 b 128 121 127 123 127 125 z m 131 61 b 131 62 132 64 133 67 l 133 65 b 133 62 132 61 131 61 z m 127 50 b 122 50 120 53 120 59 b 123 59 125 59 126 58 l 121 58 b 121 55 123 52 128 50 z m 51 40 b 51 45 52 47 54 47 b 54 42 53 40 51 40 z m 47 21 b 38 21 33 26 33 36 l 33 37 l 47 23 l 46 23 l 44 25 b 42 27 40 29 37 31 b 38 29 40 27 41 26 l 39 26 b 40 25 41 24 43 23 l 48 21 z"},"t":{"x_min":0,"x_max":457,"ha":457,"o":"m 1 586 l 1 558 b 2 525 17 508 46 507 l 48 505 b 49 504 49 499 49 490 b 49 483 49 478 48 474 b 47 465 44 453 41 436 b 40 432 40 424 40 413 l 40 402 b 43 390 51 384 64 384 b 81 384 90 391 90 404 l 90 429 l 84 482 l 84 489 b 84 496 84 501 85 504 b 86 505 87 506 88 506 b 106 506 115 490 116 457 l 121 195 b 122 167 128 146 141 132 b 140 123 140 114 141 105 b 142 98 143 89 145 76 b 146 68 146 60 147 52 b 150 39 158 33 171 33 b 183 33 191 40 194 53 b 195 70 196 80 196 84 b 196 94 194 106 189 120 l 191 122 l 194 122 b 205 122 210 122 211 121 l 212 120 b 209 107 208 96 208 88 b 208 79 209 65 210 46 b 211 29 221 20 238 20 b 255 20 263 28 263 45 l 263 52 b 257 79 254 100 254 113 l 254 123 b 255 124 257 125 261 126 b 278 131 288 148 291 177 b 294 251 295 295 295 310 b 296 355 296 400 297 445 b 298 455 299 465 300 474 b 304 495 314 506 330 506 l 335 506 b 336 505 337 504 337 502 b 338 499 338 497 338 495 b 338 488 337 482 336 479 l 322 413 b 321 410 321 406 321 403 b 321 382 332 372 353 372 b 373 372 383 382 383 401 b 383 403 383 404 382 405 l 371 472 l 371 493 b 371 498 379 504 396 511 b 406 515 412 525 413 542 b 414 553 414 568 414 587 b 414 606 413 621 412 634 b 410 653 395 665 367 670 b 352 673 331 674 302 674 l 113 674 b 102 674 85 673 64 672 b 34 670 15 662 7 649 b 3 642 1 630 1 613 l 1 586 z m 31 537 b 31 547 33 553 37 554 b 38 554 38 554 39 553 b 44 548 48 545 51 544 b 60 540 64 537 64 535 b 61 535 59 536 56 537 b 52 539 49 540 47 540 l 45 540 b 41 539 38 538 35 537 l 31 537 z m 99 541 b 131 541 147 525 147 494 b 147 492 147 491 146 490 b 133 511 117 527 99 538 z m 350 534 b 344 534 341 536 341 541 b 348 541 352 539 352 536 b 352 535 351 534 350 534 z m 22 511 b 11 511 6 517 6 530 l 6 531 b 7 528 13 522 22 513 z m 64 508 b 64 511 64 512 65 513 l 66 514 l 66 498 b 65 499 64 503 64 508 z m 353 503 b 353 508 353 512 354 513 b 355 512 355 511 355 510 b 355 503 355 499 354 498 l 353 497 l 353 503 z m 114 482 b 110 495 103 503 94 507 l 97 507 b 108 507 114 499 114 484 l 114 482 z m 61 407 b 61 411 62 413 64 414 b 65 413 65 412 65 411 b 65 408 64 407 61 407 z m 347 401 b 347 403 348 404 349 404 b 350 404 351 403 351 401 b 351 399 350 398 349 398 b 348 398 347 399 347 401 z m 56 387 b 47 387 43 391 43 400 l 43 402 b 52 395 56 390 56 387 z m 54 389 b 53 392 51 394 49 395 b 50 394 51 393 51 392 l 51 391 l 47 396 b 47 391 49 389 53 389 z m 345 375 b 331 375 324 382 324 395 l 324 396 l 326 394 b 335 385 341 378 345 375 z m 157 170 l 157 176 l 158 179 b 166 174 170 166 170 155 b 170 145 168 135 164 126 b 165 137 164 144 163 147 b 159 156 157 164 157 170 z m 143 132 b 133 141 128 150 128 161 l 128 162 b 129 158 131 155 133 152 l 144 134 b 144 133 144 133 143 132 z m 216 157 b 217 158 218 158 219 158 b 225 158 228 155 228 149 b 222 149 218 152 216 157 z m 230 127 b 230 129 230 131 231 132 l 232 131 l 232 120 b 231 121 230 123 230 127 z m 168 70 b 168 77 168 82 167 85 l 167 88 l 167 90 b 168 86 169 78 169 67 l 169 57 b 169 56 168 56 167 56 l 167 60 b 168 64 168 67 168 70 z m 165 36 b 156 36 150 41 149 52 b 154 52 159 47 165 36 z m 234 46 b 234 48 234 49 235 50 b 236 49 237 48 237 45 b 237 44 236 43 235 43 b 234 43 234 44 234 46 z m 162 38 l 154 47 b 159 41 161 38 162 38 z m 230 23 b 219 23 214 28 214 38 l 214 40 l 230 25 l 231 23 z m 228 25 l 222 30 b 222 29 223 28 225 27 b 224 28 222 29 220 31 b 219 32 219 33 218 33 b 220 28 223 25 227 25 z"},"M":{"x_min":0,"x_max":640,"ha":640,"o":"m 26 102 b 26 100 25 92 24 78 l 24 75 b 24 65 29 60 39 60 b 48 60 53 65 53 76 l 53 82 b 53 84 53 87 52 91 l 52 97 b 52 116 55 126 61 126 b 66 126 69 116 69 96 b 69 84 67 71 64 56 l 64 52 b 64 35 72 27 88 27 b 105 27 114 35 114 52 l 114 53 b 112 74 111 86 111 87 b 111 109 113 122 117 126 b 117 127 120 127 125 128 b 148 133 160 152 161 186 l 161 223 l 161 260 b 160 285 159 323 157 374 b 157 378 157 382 158 385 b 159 385 159 385 159 384 l 221 181 b 232 147 255 129 291 126 b 297 126 300 126 300 125 l 301 124 l 301 120 b 301 112 299 98 296 77 l 296 73 b 296 63 301 58 310 58 b 320 58 325 63 325 73 b 325 76 325 77 324 78 l 319 114 l 319 126 l 320 127 b 332 130 341 134 347 138 l 348 138 b 349 138 350 138 350 137 l 353 105 b 354 89 364 81 382 81 b 397 81 405 90 405 107 b 405 140 403 175 398 210 l 398 212 b 398 222 401 240 406 267 l 406 282 l 440 394 l 441 392 l 441 381 l 441 363 b 441 352 441 336 440 315 l 440 253 l 440 191 b 441 170 443 155 448 147 b 450 142 457 136 470 129 l 472 127 l 472 122 b 472 115 468 100 461 78 l 461 73 b 461 63 466 58 476 58 b 487 58 492 63 492 73 b 492 74 489 86 484 109 b 483 112 483 115 483 120 l 483 126 b 484 127 484 127 485 127 l 487 127 b 510 126 524 126 529 126 b 532 126 533 125 533 122 b 533 118 532 113 529 106 b 526 98 522 86 515 71 b 510 59 508 46 508 33 b 508 12 518 1 539 1 b 555 1 565 10 570 27 l 570 39 b 570 59 563 86 549 119 b 548 120 548 122 548 124 b 548 125 548 126 549 126 b 584 130 602 157 604 206 l 607 285 l 607 487 l 604 578 b 603 590 601 605 598 622 b 593 649 579 665 556 671 b 550 673 541 674 528 674 l 489 674 l 449 674 b 402 672 373 648 360 603 l 306 405 l 304 403 l 241 609 b 232 640 217 659 197 667 b 187 671 171 673 150 674 l 115 674 l 77 674 b 35 673 11 651 6 608 b 3 583 1 562 1 544 l 1 253 b 1 223 3 198 7 177 b 10 163 15 150 22 138 b 25 134 26 122 26 102 z m 447 427 b 447 428 448 429 451 429 b 468 429 476 420 476 402 l 472 402 l 447 426 z m 164 420 l 166 422 l 169 422 b 181 422 189 414 194 399 l 258 191 b 261 182 267 173 275 164 l 275 163 b 275 160 272 159 266 159 b 262 159 258 166 254 179 l 193 382 b 190 390 181 402 165 418 b 164 418 164 419 164 420 z m 161 382 b 160 385 159 387 159 389 b 160 389 161 388 162 387 l 221 190 b 226 174 239 155 259 132 l 257 132 b 250 132 243 139 235 152 b 230 161 227 169 224 177 z m 40 180 l 40 186 l 41 186 l 42 186 b 44 181 47 175 50 170 l 54 162 b 54 161 54 161 53 161 l 49 156 l 49 154 b 43 154 40 163 40 180 z m 473 164 b 473 169 474 174 476 177 b 477 176 481 172 487 164 l 487 163 b 487 160 484 158 478 158 b 475 158 473 160 473 164 z m 25 136 b 16 136 12 146 12 165 l 12 166 b 14 161 16 157 18 152 b 24 143 27 137 27 136 z m 375 137 b 366 152 361 162 361 166 b 370 166 375 158 375 142 l 375 137 z m 68 160 b 69 161 70 162 73 162 b 84 162 89 149 89 122 l 89 104 b 87 130 80 149 68 160 z m 476 127 b 456 136 446 146 446 158 l 446 159 b 455 142 466 133 477 132 l 477 131 b 477 129 477 128 476 127 z m 39 122 b 39 132 40 137 42 138 l 42 137 b 42 136 41 129 39 116 l 39 122 z m 301 128 b 301 129 303 130 307 130 b 308 130 309 128 309 124 b 304 124 301 125 301 128 z m 533 128 b 533 129 535 130 539 130 l 539 124 b 535 124 533 125 533 128 z m 69 119 b 68 121 68 122 67 123 b 65 126 64 128 64 129 b 67 129 69 126 69 120 z m 377 117 b 378 115 378 111 378 106 l 376 106 l 376 116 z m 372 84 b 361 84 355 90 355 102 l 355 104 l 374 85 b 373 84 373 84 372 84 z m 372 85 b 372 86 372 86 371 86 b 368 89 365 91 364 92 b 365 89 367 86 372 85 z m 27 70 b 27 71 27 71 28 72 l 38 76 l 38 75 b 38 67 37 63 35 63 b 30 63 27 65 27 70 z m 29 70 b 29 67 31 65 34 65 l 34 70 l 35 70 l 35 72 b 31 71 29 71 29 70 z m 469 62 b 466 62 464 65 464 70 l 466 70 l 466 69 l 465 69 b 465 66 466 64 469 62 z m 302 62 b 300 64 299 66 299 69 l 300 69 b 300 66 301 64 302 62 z m 85 48 b 85 51 86 53 87 54 b 88 53 88 52 88 51 b 88 49 87 48 85 48 z m 81 30 b 72 30 67 35 67 46 l 68 46 b 73 46 78 41 83 30 l 81 30 z m 81 31 b 78 35 75 37 72 37 b 74 34 77 32 81 31 z m 534 31 b 534 33 535 35 537 36 b 538 36 538 35 538 33 b 538 30 537 28 536 28 b 535 28 534 29 534 31 z m 530 5 b 517 5 511 12 511 25 l 511 26 b 514 21 521 14 531 5 z"}}}
